<svg id="Layer_1" data-name="Layer 1" xmlns="http://www.w3.org/2000/svg" viewBox="0 0 96.7 163"><defs><style>.cls-1{fill:#fff;}</style></defs><title>2018-B-Corp-Logo-White</title><path class="cls-1" d="M28.2,47h20c4.9,0,11.3,0,14.6,2a13.2,13.2,0,0,1,6.5,11.5,12.8,12.8,0,0,1-8.2,12.4h0c6.8,1.4,10.5,6.5,10.5,13.3s-5.8,15.8-16.8,15.8H28.2Zm7.4,23.7H50.2c8.3,0,11.7-3,11.7-8.8,0-7.6-5.4-8.7-11.7-8.7H35.6Zm0,25.2H53.9c6.3,0,10.4-3.8,10.4-9.9s-5.8-9.1-12-9.1H35.6Z"/><path class="cls-1" d="M90.3,74.6A41.9,41.9,0,1,1,48.4,32.7,41.9,41.9,0,0,1,90.3,74.6ZM48.4,26.3A48.3,48.3,0,1,0,96.7,74.5,48.2,48.2,0,0,0,48.4,26.3Z"/><rect class="cls-1" x="0.3" y="133" width="96.3" height="6.33"/><path class="cls-1" d="M93.6,126h.8v-.6c0-.1-.1-.1-.2-.2H93v1Zm.2-1.5a1.2,1.2,0,0,1,.9.3.8.8,0,0,1,.3.7.9.9,0,0,1-.3.7.8.8,0,0,1-.6.2l1,1.5h-.6l-.9-1.5H93v1.5h-.5v-3.4Zm-2.4,2.7.5.8.8.5.9.2,1-.2.7-.5a3.5,3.5,0,0,0,.5-.8,2.6,2.6,0,0,0,0-2,1.8,1.8,0,0,0-.5-.7c-.2-.3-.5-.4-.7-.6H92.7a2.4,2.4,0,0,0-.8.6l-.5.7a5,5,0,0,0,0,2m-.4-2.1a1.5,1.5,0,0,1,.6-.9l.9-.6a2.3,2.3,0,0,1,1.1-.3l1.2.3.9.6.6.9a3.1,3.1,0,0,1,0,2.2l-.6,1-.9.6-1.2.2-1.1-.2-.9-.6a2.1,2.1,0,0,1-.6-1,2.2,2.2,0,0,1,0-2.2"/><path class="cls-1" d="M11.9,5.1a3.9,3.9,0,0,0-.8-1,2.7,2.7,0,0,0-1.2-.6,3.1,3.1,0,0,0-1.3-.3,4.8,4.8,0,0,0-2.2.5A5,5,0,0,0,4.9,5.1,5.4,5.4,0,0,0,4.1,7a7.8,7.8,0,0,0-.3,2.2,7.6,7.6,0,0,0,.3,2.1,6.4,6.4,0,0,0,.8,1.9,3.7,3.7,0,0,0,1.5,1.3,3.8,3.8,0,0,0,2.2.5,3.5,3.5,0,0,0,2.7-1,4.8,4.8,0,0,0,1.2-2.9h3.7a9.4,9.4,0,0,1-.7,3,7.3,7.3,0,0,1-1.6,2.2,7.2,7.2,0,0,1-2.4,1.4,7.1,7.1,0,0,1-2.9.5A8,8,0,0,1,5,17.5a6.6,6.6,0,0,1-2.7-1.9A7.7,7.7,0,0,1,.6,12.7,9.5,9.5,0,0,1,0,9.2,10.5,10.5,0,0,1,.6,5.6,7.7,7.7,0,0,1,2.3,2.7,6.8,6.8,0,0,1,5,.7,8,8,0,0,1,8.6,0a8.4,8.4,0,0,1,2.7.4,10.1,10.1,0,0,1,2.3,1.2,8.2,8.2,0,0,1,1.7,2,7.7,7.7,0,0,1,.8,2.7H12.4A2.2,2.2,0,0,0,11.9,5.1Z"/><path class="cls-1" d="M21.2,14.8a3.2,3.2,0,0,0,2.3.8,2.8,2.8,0,0,0,1.8-.6,1.9,1.9,0,0,0,.9-1.1h3.1A6.4,6.4,0,0,1,27,17.2a7,7,0,0,1-3.7,1,7.5,7.5,0,0,1-2.6-.5,6,6,0,0,1-2.1-1.4,7.2,7.2,0,0,1-1.2-2.1,7.6,7.6,0,0,1-.5-2.7,7.5,7.5,0,0,1,.5-2.6,5.7,5.7,0,0,1,1.3-2.1,5.6,5.6,0,0,1,2-1.4,7.5,7.5,0,0,1,2.6-.5,6.5,6.5,0,0,1,2.9.6,6.1,6.1,0,0,1,1.9,1.7,6.6,6.6,0,0,1,1.1,2.4,8.6,8.6,0,0,1,.3,2.8H20.4A3.3,3.3,0,0,0,21.2,14.8Zm3.9-6.6a2.2,2.2,0,0,0-1.9-.7,2.5,2.5,0,0,0-1.3.3,2.2,2.2,0,0,0-.9.7,2.2,2.2,0,0,0-.5.8,3.1,3.1,0,0,0-.1.9H26A3.4,3.4,0,0,0,25.1,8.2Z"/><path class="cls-1" d="M34.3,5.2V7.6h.1A3.9,3.9,0,0,1,35,6.5a4.3,4.3,0,0,1,1-.9l1.1-.5a3,3,0,0,1,1.3-.2h.8V8.2H37.9a3.8,3.8,0,0,0-1.6.3,3.1,3.1,0,0,0-1.1.9,3.9,3.9,0,0,0-.5,1.3,7.7,7.7,0,0,0-.2,1.5v5.7H31V5.2Z"/><path class="cls-1" d="M48.4,5.2V7.5H45.9v6.3a1.7,1.7,0,0,0,.3,1.2c.2.2.6.2,1.2.2h1v2.6h-2l-1.5-.2a2.8,2.8,0,0,1-1.3-.4,2.6,2.6,0,0,1-.9-.9,3.3,3.3,0,0,1-.3-1.5V7.5H40.3V5.2h2.1V1.4h3.5V5.2Z"/><path class="cls-1" d="M50.4,3.3V.4h3.5V3.3Zm3.5,1.9V17.8H50.4V5.2Z"/><path class="cls-1" d="M55.3,7.5V5.2h2.1v-1a3.6,3.6,0,0,1,1-2.7A4.4,4.4,0,0,1,61.6.4h1.8V3.1H62.1a1.2,1.2,0,0,0-1,.4,1.4,1.4,0,0,0-.3,1.1v.7h2.4V7.5H60.8V17.8H57.4V7.5Z"/><path class="cls-1" d="M65.6,3.3V.4H69V3.3ZM69,5.2V17.8H65.6V5.2Z"/><path class="cls-1" d="M74.5,14.8a3.1,3.1,0,0,0,2.2.8,2.8,2.8,0,0,0,1.8-.6,2.1,2.1,0,0,0,1-1.1h3a6.2,6.2,0,0,1-2.2,3.3,7.3,7.3,0,0,1-3.7,1,7.6,7.6,0,0,1-2.7-.5,5.6,5.6,0,0,1-2-1.4,5.7,5.7,0,0,1-1.3-2.1,7.7,7.7,0,0,1-.4-2.7,7.5,7.5,0,0,1,.4-2.6A6,6,0,0,1,72,6.8a4.8,4.8,0,0,1,2-1.4,7.5,7.5,0,0,1,2.6-.5,6.1,6.1,0,0,1,2.8.6,5.5,5.5,0,0,1,2,1.7,6.6,6.6,0,0,1,1.1,2.4,8.6,8.6,0,0,1,.2,2.8H73.6A3.8,3.8,0,0,0,74.5,14.8Zm3.9-6.6a2.2,2.2,0,0,0-1.9-.7,3.2,3.2,0,0,0-1.4.3,2.7,2.7,0,0,0-.8.7,1.4,1.4,0,0,0-.5.8c-.1.4-.1.6-.2.9h5.7A4.1,4.1,0,0,0,78.4,8.2Z"/><path class="cls-1" d="M93.3,16.2a4.5,4.5,0,0,1-1.6,1.5,5.6,5.6,0,0,1-2.3.5,5.1,5.1,0,0,1-2.5-.6,5,5,0,0,1-1.7-1.5A5.3,5.3,0,0,1,84.1,14a11.5,11.5,0,0,1-.3-2.6A9.9,9.9,0,0,1,84.1,9a5.3,5.3,0,0,1,1.1-2.1,5,5,0,0,1,1.7-1.5,6,6,0,0,1,2.4-.5,4.2,4.2,0,0,1,2.2.5,3.1,3.1,0,0,1,1.6,1.4h0V.4h3.5V17.8H93.3V16.2ZM93.1,10a5,5,0,0,0-.5-1.3,3.8,3.8,0,0,0-.9-.9,3.2,3.2,0,0,0-1.4-.3,3.3,3.3,0,0,0-1.5.3,3.8,3.8,0,0,0-.9.9,5,5,0,0,0-.5,1.3,7.7,7.7,0,0,0-.2,1.5,7.7,7.7,0,0,0,.2,1.5,5,5,0,0,0,.5,1.3,2.8,2.8,0,0,0,1,.9,2.9,2.9,0,0,0,1.4.4,2.3,2.3,0,0,0,1.4-.4,2,2,0,0,0,.9-.9,5,5,0,0,0,.5-1.3,7.7,7.7,0,0,0,.2-1.5A7.7,7.7,0,0,0,93.1,10Z"/><path class="cls-1" d="M8.7,151.8A2.6,2.6,0,0,0,6,149.6c-2.4,0-3.3,2.1-3.3,4.2s.9,4.1,3.3,4.1a2.7,2.7,0,0,0,2.8-2.7h2.6a5.2,5.2,0,0,1-5.4,5c-3.8,0-6-2.8-6-6.4s2.2-6.5,6-6.5a5,5,0,0,1,5.3,4.5Z"/><path class="cls-1" d="M17.1,150.8a4.7,4.7,0,0,1,0,9.3,4.7,4.7,0,0,1,0-9.3Zm0,7.5c1.6,0,2.1-1.4,2.1-2.8s-.5-2.9-2.1-2.9-2.2,1.4-2.2,2.9S15.4,158.3,17.1,158.3Z"/><path class="cls-1" d="M23.2,151h2.3v1.7h0a3.1,3.1,0,0,1,2.9-1.9h.5v2.3H28c-1.8,0-2.4,1.3-2.4,2.9v4H23.2Z"/><path class="cls-1" d="M29.8,151h2.4v1.2h0a2.8,2.8,0,0,1,2.6-1.4c2.8,0,4.1,2.2,4.1,4.8s-1.3,4.5-3.9,4.5a3.1,3.1,0,0,1-2.7-1.3h0V163H29.8Zm6.6,4.5c0-1.4-.5-2.9-2.1-2.9s-2.1,1.4-2.1,2.9.5,2.8,2.1,2.8S36.4,156.9,36.4,155.5Z"/><path class="cls-1" d="M44.2,150.8a4.7,4.7,0,0,1,0,9.3,4.7,4.7,0,0,1,0-9.3Zm0,7.5c1.7,0,2.2-1.4,2.2-2.8s-.5-2.9-2.2-2.9-2.1,1.4-2.1,2.9S42.6,158.3,44.2,158.3Z"/><path class="cls-1" d="M50.3,151h2.4v1.7h0a2.9,2.9,0,0,1,2.8-1.9h.6v2.3h-.9c-1.8,0-2.4,1.3-2.4,2.9v4H50.3Z"/><path class="cls-1" d="M56.8,153.8c.1-2.3,2.2-3,4.2-3s3.9.4,3.9,2.5v4.6a3.8,3.8,0,0,0,.3,2H62.7a2.9,2.9,0,0,1-.2-.9,3.8,3.8,0,0,1-3,1.1c-1.7,0-3-.8-3-2.6s1.5-2.5,3-2.7,2.9-.2,2.9-1.2-.7-1.2-1.6-1.2a1.4,1.4,0,0,0-1.6,1.4Zm5.6,1.8a8.3,8.3,0,0,1-2,.5c-.8.1-1.5.4-1.5,1.3s.8,1.1,1.5,1.1a1.8,1.8,0,0,0,2-2Z"/><path class="cls-1" d="M69.8,151h1.8v1.7H69.8V157c0,.9.2,1.1,1,1.1h.8v1.9H70.1c-1.4,0-2.8-.3-2.8-2.1v-5.2H65.9V151h1.4v-2.6h2.5Z"/><path class="cls-1" d="M75.9,149.6H73.4v-2h2.5ZM73.4,151h2.5v8.9H73.4Z"/><path class="cls-1" d="M82.1,150.8a4.7,4.7,0,1,1-4.6,4.7A4.3,4.3,0,0,1,82.1,150.8Zm0,7.5c1.6,0,2.1-1.4,2.1-2.8s-.5-2.9-2.1-2.9-2.2,1.4-2.2,2.9S80.4,158.3,82.1,158.3Z"/><path class="cls-1" d="M88.3,151h2.3v1.3h0a3.3,3.3,0,0,1,2.7-1.5c2.6,0,3.3,1.4,3.3,3.6v5.5H94.2v-5c0-1.5-.5-2.2-1.6-2.2s-1.9.7-1.9,2.5v4.7H88.3Z"/></svg>