<svg xmlns="http://www.w3.org/2000/svg" width="23" height="18" viewBox="0 0 23 18">
    <g fill="none" fill-rule="evenodd">
        <g fill="#05CE7C">
            <g transform="translate(-938 -147) translate(938 147)">
                <path fill-rule="nonzero" d="M22.991 14v-3.917c0-.583-.164-1.166-.41-1.666l-2.458-4.25c-.247-.5-.822-.834-1.396-.834H15.03c-.575 0-1.068.5-1.068 1.084v8.916h-.822V1.667C13.141.75 12.402 0 11.5 0H0v15h2.464c.41-1.417 1.643-2.5 3.203-2.5 1.56 0 2.875 1.083 3.203 2.5h5.996c.41-1.417 1.643-2.5 3.203-2.5 1.315 0 2.382.75 2.875 1.833.246.417.65.667 1.062.667.574 0 1.067-.5.985-1zm-5.102-6.059c.47 0 .852-.395.852-.882s-.382-.883-.852-.883-.852.396-.852.883.381.882.852.882zm-2.284 1.226V5h3.286l2.382 4.167h-5.668z"/>
                <rect width="2" height="3" x="17" y="8" fill-rule="nonzero" rx="1"/>
                <path fill-rule="nonzero" d="M18.5 13c-1.417 0-2.5 1.083-2.5 2.5s1.083 2.5 2.5 2.5 2.5-1.083 2.5-2.5-1.083-2.5-2.5-2.5zm0 3.667c-.667 0-1.167-.5-1.167-1.167s.5-1.167 1.167-1.167 1.167.5 1.167 1.167-.5 1.167-1.167 1.167zM5.5 13C4.083 13 3 14.083 3 15.5S4.083 18 5.5 18 8 16.917 8 15.5 6.917 13 5.5 13zm0 3.667c-.667 0-1.167-.5-1.167-1.167s.5-1.167 1.167-1.167 1.167.5 1.167 1.167-.5 1.167-1.167 1.167z"/>
                <circle cx="5.5" cy="15.5" r="1"/>
                <circle cx="18.5" cy="15.5" r="1"/>
            </g>
        </g>
    </g>
</svg>
