<svg xmlns="http://www.w3.org/2000/svg" width="15" height="19" viewBox="0 0 15 19">
    <g fill="none" fill-rule="evenodd">
        <g fill="#05CE7C">
            <g>
                <path fill-rule="nonzero" d="M1.73 19h11.54c.954 0 1.73-.75 1.73-1.67V5.566h-4.038c-.955 0-1.731-.749-1.731-1.67V0h-7.5C.776 0 0 .75 0 1.67v15.66C0 18.25.776 19 1.73 19zM4.039 7.83h6.924c.318 0 .576.249.576.557 0 .307-.258.556-.576.556H4.038c-.318 0-.576-.249-.576-.556 0-.308.258-.557.576-.557zm0 2.227h6.924c.318 0 .576.249.576.556 0 .308-.258.557-.576.557H4.038c-.318 0-.576-.249-.576-.557 0-.307.258-.556.576-.556zm0 2.226h6.924c.318 0 .576.25.576.557 0 .308-.258.556-.576.556H4.038c-.318 0-.576-.248-.576-.556 0-.308.258-.557.576-.557zm0 2.227h4.616c.319 0 .577.249.577.556 0 .308-.258.557-.577.557H4.038c-.318 0-.576-.249-.576-.557 0-.307.258-.556.576-.556z" transform="translate(-817 -181) translate(817 181)"/>
                <path d="M10.674 5H15l-5-5v4.326c0 .372.302.674.674.674z" transform="translate(-817 -181) translate(817 181)"/>
            </g>
        </g>
    </g>
</svg>
