<svg xmlns="http://www.w3.org/2000/svg" xmlns:xlink="http://www.w3.org/1999/xlink" width="709" height="571" viewBox="0 0 709 571">
    <defs>
        <path id="7e7xnm4dqa" d="M0.147 0.352L203.229 0.352 203.229 65.058 0.147 65.058z"/>
        <path id="h3tg4qdlmc" d="M0.176 0.646L23.853 0.646 23.853 14.311 0.176 14.311z"/>
        <path id="i8j0cc1swe" d="M.613 62.295C2.24 54.334 14.965 12.515 18.853.287L120.043 58.69c-2.765 8.79-15.415 49.693-18.303 61.976L.613 62.295z"/>
        <path id="z0ugfj7vdg" d="M0.321 0.174L4.16 0.174 4.16 10.524 0.321 10.524z"/>
        <path id="46yfn1bfwi" d="M1.912 78.369c-.423.244-1.18.6-1.484.258-.315-.352-.242-1.457.206-3.027 3.9-13.648 10.034-33.967 13.822-46.159.384-1.245 1.94-5.47 5.7-7.64L56.377.891c1.558-.898 3-1.255 3 2.193v16.013c0 5.909-1.708 9.974-5.885 14.025L3.758 76.969c-.696.625-1.312 1.092-1.846 1.4"/>
    </defs>
    <g fill="none" fill-rule="evenodd">
        <g>
            <g>
                <g>
                    <g>
                        <path fill="#E8B034" d="M390.999 288.272L163.938 419.575 138.761 405.014 126.151 463.591 227.445 456.301 202.27 441.74 431.13 309.393z" transform="translate(-326 -954) translate(326 954)"/>
                        <g>
                            <path fill="#027043" d="M31.213 404.4c-2.727 3.03-4.33 7.668-4.33 13.668 0 15.838 11.122 35.095 24.843 43.014 5.196 3 10.016 3.935 14.004 3.086-4.475 4.969-11.99 5.591-20.513.672-13.718-7.92-24.84-27.176-24.84-43.017 0-9.836 4.296-16.035 10.836-17.423" transform="translate(-326 -954) translate(326 954)"/>
                            <path fill="#027043" d="M45.218 464.839c13.72 7.919 24.843 1.498 24.843-14.34 0-15.836-11.124-35.095-24.843-43.014-12.054-6.957-22.098-2.84-24.36 9.004l-7.318-35.853 9.334-5.13c8.535-5.004 19.489-4.039 31.974 3.167 24.974 14.413 44.307 49.412 42.545 80.51-2.201 38.915-52.177 76.598-52.177 76.598L26.52 444.21c4.554 8.645 11.232 16.32 18.698 20.63" transform="translate(-326 -954) translate(326 954)"/>
                            <path fill="#05CE7C" d="M20.376 421.826c0 15.836 11.122 35.095 24.843 43.014 13.719 7.916 24.843 1.498 24.843-14.34 0-15.836-11.124-35.095-24.843-43.014-13.719-7.92-24.843-1.501-24.843 14.34m24.843-37.861c24.973 14.413 45.218 49.469 45.218 78.296 0 28.83-45.22 73.522-45.22 73.522S-.002 438.892 0 410.065c0-28.83 20.245-40.514 45.218-26.1" transform="translate(-326 -954) translate(326 954)"/>
                            <path fill="#E8B034" fill-opacity=".308" d="M447.527 476.61l-60.67 35.016 60.67 35.021c33.507-19.34 33.505-50.7 0-70.037" transform="translate(-326 -954) translate(326 954)"/>
                            <path fill="#8A6B27" d="M447.527 476.61L386.857 511.626 447.527 546.647 367.659 511.99 367.659 505.533z" transform="translate(-326 -954) translate(326 954)"/>
                            <path fill="#E8B034" d="M447.527 476.607L386.857 507.735 447.527 546.647 367.659 505.533z" transform="translate(-326 -954) translate(326 954)"/>
                            <path fill="#E8B034" d="M447.527 470.513c-33.508-19.34-87.836-19.34-121.344 0-33.505 19.34-33.505 50.697.003 70.037 33.505 19.34 87.833 19.34 121.34 0 33.506-19.34 33.506-50.697 0-70.037m11.13 76.46c-39.655 22.889-103.945 22.889-143.6 0-39.656-22.887-39.656-59.997 0-82.883 39.653-22.89 103.945-22.89 143.6 0 39.654 22.886 39.654 59.996 0 82.883" transform="translate(-326 -954) translate(326 954)"/>
                            <path fill="#8A6B27" d="M447.527 470.513c-33.508-19.34-87.836-19.34-121.344 0-18.098 10.446-26.33 24.397-24.877 38.067 1.238-11.642 9.47-23.076 24.877-31.97 33.508-19.342 87.836-19.342 121.344 0 15.41 8.892 23.641 20.328 24.877 31.97 1.452-13.67-6.78-27.62-24.877-38.067" transform="translate(-326 -954) translate(326 954)"/>
                            <g transform="translate(-326 -954) translate(326 954) translate(285.167 505.178)">
                                <mask id="k91xc29tkb" fill="#fff">
                                    <use xlink:href="#7e7xnm4dqa"/>
                                </mask>
                                <path fill="#8A6B27" d="M173.488 41.796c-39.652 22.889-103.945 22.889-143.6 0C10.06 30.353.149 15.354.149.352V6.45c0 15 9.912 29.998 29.74 41.444 39.655 22.886 103.948 22.886 143.6 0 19.828-11.446 29.741-26.445 29.741-41.444 0-.844-.012-3.696-.02-5.62-.206 14.839-10.102 29.64-29.721 40.966" mask="url(#k91xc29tkb)"/>
                            </g>
                            <path fill="#0B242E" d="M573.736 221.188L593.577 232.639 593.577 240.772 573.736 229.321z" transform="translate(-326 -954) translate(326 954)"/>
                            <g transform="translate(-326 -954) translate(326 954) translate(573.56 218.327)">
                                <mask id="lpxyvnzoud" fill="#fff">
                                    <use xlink:href="#h3tg4qdlmc"/>
                                </mask>
                                <path fill="#184C60" d="M0.176 2.861L20.017 14.311 23.854 12.097 4.014 0.646z" mask="url(#lpxyvnzoud)"/>
                            </g>
                            <path fill="#0E3241" d="M590.056 219.901L533.741 252.405 515.388 255.941 497.622 273.251 361.427 351.859 339.977 345.121 590.056 211.162z" transform="translate(-326 -954) translate(326 954)"/>
                            <path fill="#051015" d="M330.022 363.103l27.327 15.757c2.14-24.872-12.847-27.117-27.327-15.757M509.418 259.564l27.327 15.754c2.139-24.872-12.85-27.114-27.327-15.754" transform="translate(-326 -954) translate(326 954)"/>
                            <path fill="#051015" d="M347.547 365.19l-27.88 48.693s-5.345-3.032-8.941-5.158c-3.542-2.092-5.728-6.52-5.728-12.794 0-12.652 8.881-28.035 19.84-34.362 5.527-3.187 10.521-3.465 14.12-1.341 3.54 2.094 8.589 4.961 8.589 4.961" transform="translate(-326 -954) translate(326 954)"/>
                            <path fill="#0B242E" d="M313.702 400.954c0 12.654 8.884 17.78 19.846 11.453 10.959-6.325 19.843-21.708 19.843-34.36 0-12.65-8.884-17.777-19.843-11.452-10.962 6.324-19.846 21.707-19.846 34.359" transform="translate(-326 -954) translate(326 954)"/>
                            <path fill="#ECEFF1" d="M320.152 397.234c0 8.537 5.999 11.997 13.393 7.73 7.398-4.273 13.394-14.653 13.394-23.192 0-8.54-5.996-12-13.394-7.732-7.394 4.272-13.393 14.652-13.393 23.194" transform="translate(-326 -954) translate(326 954)"/>
                            <path fill="#027043" d="M324.712 394.602c0-.73.072-1.481.197-2.237l-1.7-.155c.235-1.14.575-2.323 1.045-3.539.475-1.215 1.044-2.377 1.68-3.482l1.727.153c.904-1.46 1.974-2.789 3.158-3.918v-2.313c.874-.766 1.783-1.447 2.728-1.991.943-.547 1.854-.918 2.725-1.154v2.266c1.194-.244 2.27-.128 3.178.293l1.71-2.124c.63.374 1.204.876 1.677 1.546.473.674.81 1.464 1.049 2.333l-1.699 2.111c.123.613.195 1.285.195 2.01 0 .729-.074 1.48-.197 2.24l1.7.15c-.238 1.142-.575 2.326-1.05 3.541-.47 1.216-1.044 2.378-1.674 3.485l-1.73-.158c-.907 1.465-1.975 2.791-3.16 3.92v2.311c-.87.77-1.781 1.45-2.724 1.994-.945.546-1.854.915-2.728 1.156v-2.266c-1.191.239-2.267.128-3.18-.293l-1.706 2.121c-.635-.371-1.204-.876-1.679-1.548-.47-.669-.81-1.464-1.046-2.328l1.699-2.113c-.126-.613-.195-1.283-.195-2.011" transform="translate(-326 -954) translate(326 954)"/>
                            <path fill="#05CE7C" d="M326.488 395.626c0-.729.072-1.48.197-2.237l-3.478-1.179c.239-1.14.576-2.323 1.049-3.539.472-1.215 1.043-2.377 1.676-3.482l3.505 1.179c.904-1.462 1.975-2.79 3.159-3.918l-1.775-3.34c.871-.765 1.78-1.446 2.725-1.993.943-.544 1.854-.915 2.727-1.151l1.775 3.29c1.194-.241 2.27-.128 3.178.293l-.066-3.148c.632.374 1.203.876 1.679 1.546.47.674.81 1.464 1.046 2.333l.079 3.137c.123.613.246 1.285.194 2.01-.273 3.793-2.393 9.633-6.11 13.179l-1.775 1.284c-.873.77-1.784 1.45-2.727 1.994-.945.546-1.854.915-2.725 1.156l1.775-1.242c-1.192.24-2.267.13-3.18-.293l-3.484 1.097c-.633-.371-1.204-.876-1.676-1.548-.473-.669-.81-1.464-1.049-2.328l3.476-1.09c-.126-.612-.195-1.28-.195-2.01" transform="translate(-326 -954) translate(326 954)"/>
                            <path fill="#FFF" d="M330.674 393.21c0 2.964 2.082 4.162 4.65 2.683 2.567-1.484 4.645-5.087 4.645-8.05 0-2.963-2.078-4.163-4.645-2.682-2.568 1.481-4.65 5.087-4.65 8.05" transform="translate(-326 -954) translate(326 954)"/>
                            <path fill="#027043" d="M333.546 394.867c2.568-1.482 4.648-5.085 4.648-8.048 0-.952-.234-1.7-.61-2.256 1.417.1 2.385 1.272 2.385 3.28 0 2.966-2.078 6.566-4.645 8.05-1.743 1.004-3.245.753-4.04-.426.672.05 1.438-.126 2.262-.6" transform="translate(-326 -954) translate(326 954)"/>
                            <path fill="#101F25" d="M172.728 273.456c2.44 3.54 3.54 5.091 2.993 9.179l-1.026 6.063 3.427 4.728c.105.145-1.58 9.742-1.58 9.742l-3.747-4.013c-.658 1.703-2.58 1.836-3.745.957-3.71-2.798-8.054-10.693-7.734-13.702.322-3.022 4.123-16.715 4.554-17.43 1.686-2.821 3.072-1.027 6.858 4.476" transform="translate(-326 -954) translate(326 954)"/>
                            <path fill="#051015" d="M528.417 260.222l-27.883 49.172s-5.733-3.333-9.35-5.392c-3.64-2.08-5.898-6.566-5.898-12.964 0-6.02 4.82-10.184 8.092-16.18 3.653-6.697 6.075-15.074 11.902-18.435 5.617-3.244 10.69-3.497 14.324-1.287l8.813 5.086z" transform="translate(-326 -954) translate(326 954)"/>
                            <path fill="#0B242E" d="M534.467 273.268c0 12.747-8.95 28.244-19.99 34.615-11.04 6.371-19.991 1.208-19.991-11.537 0-12.747 8.95-28.243 19.99-34.615 11.04-6.373 19.991-1.208 19.991 11.537" transform="translate(-326 -954) translate(326 954)"/>
                            <path fill="#05CE7C" d="M528.417 276.761c0 3.418-3.993 17.38-13.94 24.14-7.353 4.995-13.943.84-13.943-8.045 0-8.89 6.242-19.697 13.942-24.142 7.7-4.444 13.94-.842 13.94 8.047" transform="translate(-326 -954) translate(326 954)"/>
                            <path fill="#E3F2FD" d="M520.082 279.523c0 4.705-3.306 10.426-7.382 12.78-4.077 2.354-7.383.447-7.383-4.26 0-4.706 3.306-10.428 7.383-12.78 4.076-2.355 7.382-.448 7.382 4.26" transform="translate(-326 -954) translate(326 954)"/>
                            <path fill="#FFF" d="M514.476 270.025c-7.075 4.083-12.808 14.01-12.808 22.175 0 8.165 5.733 11.473 12.808 7.39 7.072-4.082 12.806-14.01 12.806-22.172 0-8.166-5.734-11.476-12.806-7.393m14.514 6.408c0 9.25-6.499 20.5-14.514 25.126-8.015 4.627-14.514.874-14.514-8.374 0-9.253 6.497-20.502 14.514-25.129 8.015-4.626 14.514-.876 14.514 8.377" transform="translate(-326 -954) translate(326 954)"/>
                            <path fill="#027043" d="M518.229 280.843l-5.536 9.197s-1.763.43-2.58.184c-1.167-.354-1.92-1.54-1.92-3.366 0-3.104 2.18-6.881 4.869-8.431 1.423-.822 2.703-.857 3.594-.247.792.544 1.573 2.663 1.573 2.663" transform="translate(-326 -954) translate(326 954)"/>
                            <path fill="#FFF" d="M518.76 282.809c0 2.5-1.755 5.542-3.921 6.792-2.169 1.25-3.924.234-3.924-2.264 0-2.5 1.755-5.542 3.924-6.792 2.166-1.25 3.921-.236 3.921 2.264" transform="translate(-326 -954) translate(326 954)"/>
                            <path fill="#022E1C" d="M506.49 297.966c.2.042.5-.214.668-.561.24-.51.484-1.016.726-1.523.167-.347.152-.647-.022-.684-1.037-.222-1.923-.734-2.632-1.519-.12-.135-.389.005-.605.32l-.956 1.393c-.216.315-.29.706-.152.859.8.888 1.802 1.464 2.973 1.715m-1.865-15.08c.216.064.484-.106.605-.38.709-1.604 1.595-3.137 2.632-4.554.174-.24.19-.557.022-.714l-.579-.541c-1.356 1.84-2.523 3.866-3.441 5.957l.76.232m5.972 14.672c1.394-.502 2.812-1.32 4.205-2.424.241-.192.401-.589.364-.881-.054-.429-.108-.854-.16-1.28-.037-.29-.236-.386-.445-.22-1.234.98-2.487 1.704-3.72 2.15-.21.076-.408.398-.445.73-.057.49-.109.977-.16 1.467-.037.332.123.546.361.458m-8.78-5.07c.044.254.308.288.578.089.397-.293.793-.583 1.192-.874.27-.2.45-.531.41-.75-.23-1.292-.23-2.737 0-4.297.04-.264-.14-.389-.41-.276-.394.165-.788.332-1.182.5-.381 1.474-.618 2.936-.694 4.363.032.416.034.854.106 1.245m9.024-17.679c1.233-.98 2.484-1.703 3.72-2.148.209-.074.408-.397.445-.731l.158-1.467c.04-.335-.12-.544-.362-.458-.28.101-.566.224-.85.352-1.297.81-2.545 1.811-3.716 2.963.054.423.103.85.157 1.272.04.29.239.382.448.217m10.974 6.374c.396-.168.793-.335 1.192-.502.268-.113.534-.453.576-.756.263-1.76.263-3.393 0-4.853-.042-.248-.308-.285-.576-.083-.4.29-.796.578-1.192.87-.27.2-.45.532-.411.751.229 1.292.229 2.74 0 4.297-.04.263.14.389.411.276m-2.905-11.586c-.201-.042-.502.214-.667.56-.241.508-.487 1.017-.728 1.524-.165.347-.15.647.022.687 1.039.219 1.925.73 2.634 1.518.118.133.389-.007.605-.322.318-.463.638-.928.953-1.393.219-.315.293-.706.155-.859-.802-.886-1.802-1.467-2.974-1.715m-1.395 20.728c-.165-.155-.15-.472.024-.714 1.037-1.417 1.923-2.95 2.632-4.555.118-.27.386-.443.605-.379.318.099.638.195.953.29.219.067.293.372.155.682-.8 1.814-1.802 3.549-2.974 5.149-.199.273-.502.364-.667.209-.241-.23-.485-.456-.728-.682" transform="translate(-326 -954) translate(326 954)"/>
                            <path fill="#027043" d="M506.904 277.584c-1.036 1.418-1.923 2.951-2.631 4.558-.07.153-.188.258-.31.322-.03.064-.072.126-.1.19l.762.231c.216.064.484-.106.605-.379.709-1.604 1.595-3.137 2.632-4.555.174-.239.19-.556.022-.714l-.579-.54c-.103.14-.184.294-.285.435.017.147-.013.307-.116.452" transform="translate(-326 -954) translate(326 954)"/>
                            <path fill="#0D47A1" d="M504.851 293.78c.465.384.985.674 1.566.863-.439-.253-.835-.575-1.187-.964-.081-.089-.226-.025-.379.1" transform="translate(-326 -954) translate(326 954)"/>
                            <path fill="#027043" d="M514.048 271.563c-.039.332-.238.655-.448.731-1.08.391-2.176 1.031-3.266 1.836.02.155.042.307.059.462.037.29.236.382.445.217 1.234-.98 2.487-1.703 3.722-2.148.21-.074.409-.397.446-.731l.158-1.467c.039-.335-.124-.544-.362-.458-.202.072-.407.165-.61.254-.05.433-.097.869-.144 1.304" transform="translate(-326 -954) translate(326 954)"/>
                            <path fill="#0D47A1" d="M518.027 272.553c-.153-.088-.332-.12-.492-.192l.002.005c.177.037.322.133.49.187" transform="translate(-326 -954) translate(326 954)"/>
                            <path fill="#027043" d="M520.924 270.947c.14.152.064.541-.153.856-.315.465-.635.93-.953 1.393-.073.106-.15.157-.226.219.192.157.406.28.576.47.12.133.391-.005.606-.322l.955-1.39c.219-.316.29-.707.155-.86-.714-.792-1.598-1.324-2.61-1.607.616.306 1.175.71 1.65 1.24M520.859 284.703c.123.123.175.332.064.578-.8 1.816-1.8 3.549-2.971 5.148-.052.071-.119.091-.18.138l.472.44c.163.155.466.064.665-.209 1.172-1.602 2.174-3.334 2.974-5.148.138-.312.064-.618-.153-.682l-.871-.265M503.998 290.954c-.234-1.292-.234-2.737 0-4.297.039-.264-.143-.389-.412-.276-.192.079-.381.16-.57.241-.185 1.428-.193 2.766.022 3.965.039.216-.138.549-.412.748l-.854.63c.013.175.015.36.042.524.047.254.308.286.581.086l1.191-.87c.269-.2.45-.532.412-.751M523.582 275.073c-.044-.251-.307-.286-.576-.086l-.335.243c.178 1.33.185 2.769-.046 4.33-.042.3-.308.639-.579.752-.207.089-.41.175-.618.261-.014.116-.01.219-.027.335-.037.263.143.388.411.275.397-.167.795-.334 1.194-.504.269-.111.532-.45.576-.753.261-1.76.261-3.394 0-4.853M514.56 292.753c-.152.121-.302.2-.455.313.034.273.069.549.1.82.04.292-.12.688-.36.878-1.19.945-2.399 1.666-3.592 2.173-.008.057-.013.108-.02.165-.035.33.125.544.364.455 1.393-.502 2.809-1.319 4.205-2.424.238-.19.4-.586.364-.88-.054-.427-.108-.855-.16-1.28-.037-.29-.236-.384-.446-.22M506.906 294.835c.17.041.185.337.022.679-.243.507-.485 1.014-.728 1.526-.165.344-.468.6-.667.558-.126-.027-.244-.071-.367-.108.416.207.852.374 1.324.475.2.042.5-.212.667-.559.242-.51.485-1.016.726-1.523.168-.35.153-.65-.022-.687-.344-.073-.645-.226-.955-.361" transform="translate(-326 -954) translate(326 954)"/>
                            <path fill="#033A23" d="M361.427 343.12L260.168 284.674 256.614 136.66 361.425 197.157z" transform="translate(-326 -954) translate(326 954)"/>
                            <path fill="#0B242E" d="M293.007 305.125c1.986-5.972 6.296-11.027 9.494-12.873l51.096-29.491c1.155-.667 2.024-.866 2.624-.527-3.84-2.21-104.122-59.98-104.656-60.405-.598-.477-1.524-.288-2.782.436l-51.096 29.491c-3.197 1.846-7.505 6.903-9.492 12.873-1.875 5.638-19.291 62.2-19.291 66.14v54.137l104.81 60.496v-54.137c0-3.94 17.42-60.504 19.293-66.14" transform="translate(-326 -954) translate(326 954)"/>
                            <path fill="#0F3848" d="M293.007 305.125L188.195 244.63c-1.875 5.638-19.291 62.2-19.291 66.14l104.81 60.496c0-3.94 17.42-60.504 19.293-66.14" transform="translate(-326 -954) translate(326 954)"/>
                            <g transform="translate(-326 -954) translate(326 954) translate(170.511 247.387)">
                                <mask id="feai478nxf" fill="#fff">
                                    <use xlink:href="#i8j0cc1swe"/>
                                </mask>
                                <use fill="#2E5A6C" xlink:href="#i8j0cc1swe"/>
                                <g mask="url(#feai478nxf)" opacity=".43">
                                    <g>
                                        <path fill="#E3E3E3" d="M17.26 30.495c2.171-2.616 3.183-6.313.675-8.96-2.14-2.257-4.597 1.11-6.695 3.405C7.174 29.39 1.158 37.5.046 40.383c-.499 1.29 3.146 3.748 6.356 1.938.364-.205 7.376-7.628 10.859-11.826" transform="translate(84.563 45.042)"/>
                                        <path fill="#E0E0E0" d="M12.375 50.675c.198.659.392 1.376.75 2.258.569 1.68-4.461 3.23-5.895 2.14-.432-.647-1.05-1.321-1.672-2.181-.359-.496 6.648-2.782 6.817-2.217" transform="translate(84.563 45.042)"/>
                                        <path fill="#F0C7AD" d="M13.856 54.958c-.877-1.791-2.513-4.372-2.513-4.372l-4.412 2.21s3.186 3.421 3.686 4.72c.016.04 3.417-2.193 3.239-2.558" transform="translate(84.563 45.042)"/>
                                        <path fill="#F0F0F0" d="M12.472 51.297c.18.435-5.082 1.33-5.064 2.754C5.78 51.473-.194 42.974.005 40.839c.167-1.796 4.554-1.945 7.27.526.685.624 4.553 8.378 5.197 9.932" transform="translate(84.563 45.042)"/>
                                        <path fill="#FFF" d="M12.204 49.023c.59.85.745 1.893.966 3.424-1.328-2.136-5.609.557-5.589 2.297-.504-.854-1.367-1.7-1.994-3.017-.6-1.264 5.4-4.462 6.617-2.704" transform="translate(84.563 45.042)"/>
                                        <path fill="#F0C7AD" d="M17.775 60.583c-.55-.424-1.544-1.955-1.798-2-1.022-.165-1.553 1.908-.91 3.037.828 1.456 1.579 2.273 1.678 2.772.264 1.327-3.051.843-4.139-1.129-.632-1.147-2.146-4.054-1.95-4.909.128-.563-.079-1.195-.207-1.624-.511-1.706 2.934-4.093 3.365-3.164.4.848.795 1.253 1.512 1.537 1.337.53 2.452 2.242 2.523 2.625.158.84 1.035 2.03 1.466 2.438.114.107.127.29.019.404-.332.351-.865.548-1.56.013" transform="translate(84.563 45.042)"/>
                                        <path fill="#CCC" d="M29.875 20.557c-.386-.405-.037-.724-.04-.725-.171-.07-.51-.973-.516-1.268-.048-.31-.084-.64-.11-.98.414-.44.778-.997 1.094-1.627.65.232 1.29-3.194 1.714-4.831C33.514 5.341 32.16.693 26.172.053c-3.33-.356-7.364 1.061-8.278 4.609-.157.61-1.076 1.785-.175 2.026.009-.018.019-.031.028-.047.052.433.157.776.151 1.121-.017 1.018.002 2.901-.037 3.89-.13 3.371.686 6.439 2.001 8.223v1.832h1.157c.409.838 1.103 1.614 2.289 1.793 1.459.222 3.233-.198 4.657-.778.313-.48.754-.88 1.258-1.148.25-.87-.149-.613.652-1.017" transform="translate(84.563 45.042)"/>
                                        <path fill="#CCC" d="M29.516 21.482H18.715v-1.82c3.42-1.638 6.74-2.225 10.045-.964.236.09.497.374.732.483.357.872.464 2.022.024 2.3" transform="translate(84.563 45.042)"/>
                                        <path fill="#F0C7AD" d="M32.201 56.13l1.07-30.489c-1.265-1.05-.974-3.776-2.464-4.396-3.71-1.54-8.633-1.984-12.496-1.805-1.26.06-2.544 2.811-3.786 3.69l-.662 33H32.2z" transform="translate(84.563 45.042)"/>
                                        <path fill="#EBEBEB" d="M11.15 59.71c.674-2.3 2.044-4.518 2.121-7.271.12-4.228-.138-8.989-.325-12.996-.228-4.896-1.596-9.28-1.192-11.911.249-1.621 1.42-6.6 6.39-7.436-.247.312-.446.699-.598 1.16-1.172 3.572.974 10.913 2.138 12.176l.342.371.281-.417c.611-.904 3.4-3.721 5.862-6.206 3.3-3.331 4.6-4.685 5.056-5.322 1.653.598 4.582 2.027 5.502 2.7 2.942 2.148-4.29 23.08-4.604 24.233-1.117 4.097.303 10.68-.27 14.257-.953 5.95-22.028 1.182-20.703-3.338" transform="translate(84.563 45.042)"/>
                                        <path fill="#E8B034" d="M35.392 23.917c-1.057-.776-3.317-1.923-4.867-2.435-.093.717-10.692 15.915-11.958 17.8l-1.932 20.646s1.457 8.655 2.528 9.327c3.937 2.472 15.52-1.765 14.744-5.814-.726-3.79-1.677-10.8-1.178-15.423.416-3.844 2.094-7.14 3.679-13.347.954-3.736 2.107-8.46-1.016-10.754" transform="translate(84.563 45.042)"/>
                                        <path fill="#E8B034" d="M16.824 23.513c.307-2.308 1.39-3.858 2.584-4.11-5.602-.016-7.665 4.573-8.169 7.92-.741 4.926 2.037 18.807 1.079 24.902-.395 2.501-.882 6.353-1.921 8.053.145 2.9 2.24 6.765 3.862 5.188 1.828-1.777 2.727-5.753 2.727-5.753l1.782-20.617c-.974-1.08-2.671-10.112-1.944-15.583" transform="translate(84.563 45.042)"/>
                                        <path fill="#E3E3E3" d="M17.328 20.096s.905-.918 1.601-1.213c1.271-.539 3.9-.866 3.9-.866l.044 1.96-5.545.119z" transform="translate(84.563 45.042)"/>
                                        <path fill="#D9B49C" d="M19.858 9.701l-1.143 9.505s.053 3.857 2.962 4.293c3.02.453 7.366-1.722 7.435-2.565-2.47-1.064-.922-10.956-.922-10.956l-8.332-.277z" transform="translate(84.563 45.042)"/>
                                        <path fill="#FFF" d="M17.56 24.6c-.396-.95-3.411.227-3.686.347-.239-2.28 3.358-4.83 4.212-5.237.923-.439 2.015-.278 2.015-.278-1.593.63-2.3 2.212-2.54 5.168M30.928 26.333c-.572-.814-3.558-1.381-4.589-1.006 2.298-2.42 2.964-5.483 2.08-6.617.99.32 2.724 2.717 2.762 3.448.072 1.392-.253 4.175-.253 4.175" transform="translate(84.563 45.042)"/>
                                        <path fill="#FFF" d="M28.419 24.982c-3.244 2.752-6.333 6.359-9.011 8.973 2.156-2.584 4.095-6.156 6.873-8.726.39-.176 1.564-.362 2.138-.247" transform="translate(84.563 45.042)"/>
                                        <path fill="#FFF" d="M15.942 23.56c.626 4.36 1.729 7.437 4.159 10.395-1.492-2.929-2.268-5.943-2.642-9.847-.255-.348-.938-.361-1.517-.547" transform="translate(84.563 45.042)"/>
                                        <path fill="#B48725" d="M18.715 39.499s-.022 1.263-.103 3.152c-.048.944-.087 2.047-.16 3.226l-.228 3.692-.281 3.686c-.088 1.177-.202 2.272-.284 3.212-.178 1.879-.33 3.128-.33 3.128s.021-1.264.102-3.153c.048-.943.085-2.047.16-3.225l.228-3.693.281-3.686c.09-1.176.203-2.272.284-3.212.18-1.878.33-3.127.33-3.127" transform="translate(84.563 45.042)"/>
                                        <path fill="#4A3D35" d="M18.717 43.037c.382.172.691.588.69.931-.001.342-.312.48-.695.308-.383-.172-.692-.588-.69-.929 0-.344.312-.481.695-.31" transform="translate(84.563 45.042)"/>
                                        <path fill="#A8A8A8" d="M18.022 42.964c.003-.01.293.09.478.278.083.095.145.198.181.278.032.08.034.137.034.137l-.087-.122c-.046-.074-.122-.166-.214-.25-.154-.182-.392-.32-.392-.32" transform="translate(84.563 45.042)"/>
                                        <path fill="#4A3D35" d="M18.024 49.274c.382.171.691.587.69.93-.001.342-.312.48-.695.308-.383-.171-.692-.587-.69-.928 0-.344.312-.482.695-.31" transform="translate(84.563 45.042)"/>
                                        <path fill="#A8A8A8" d="M17.328 49.2c.004-.009.294.09.479.278.083.096.145.2.181.278.032.081.034.137.034.137l-.087-.121c-.046-.074-.122-.167-.214-.25-.154-.182-.393-.321-.393-.321" transform="translate(84.563 45.042)"/>
                                        <path fill="#4A3D35" d="M17.33 56.897c.383.171.693.587.692.93-.002.342-.313.48-.696.308-.383-.171-.692-.588-.69-.929 0-.343.312-.48.694-.31" transform="translate(84.563 45.042)"/>
                                        <path fill="#A8A8A8" d="M17.328 56.823c.004-.01.294.09.478.278.084.096.146.199.182.278.031.08.034.137.034.137l-.087-.122c-.046-.073-.123-.166-.214-.25-.154-.182-.393-.32-.393-.32" transform="translate(84.563 45.042)"/>
                                        <path fill="#4A3D35" d="M18.717 63.133c.382.172.692.588.69.931 0 .342-.312.48-.695.308-.383-.172-.692-.588-.69-.929 0-.343.312-.481.695-.31" transform="translate(84.563 45.042)"/>
                                        <path fill="#A8A8A8" d="M18.715 63.06c.003-.01.293.09.478.278.083.095.145.198.181.278.032.08.034.136.034.136l-.087-.121c-.046-.074-.122-.167-.214-.25-.154-.182-.392-.32-.392-.32" transform="translate(84.563 45.042)"/>
                                        <path fill="#2B2B2B" d="M17.352 8.05l.666 4.423c-.157-1.042.378-2.775 1.39-4.027-.605-.81-.752-2.325-.544-3.595-1.012 1.252-1.67 2.156-1.512 3.2" transform="translate(84.563 45.042)"/>
                                        <path fill="#F0C7AD" d="M30.291 10.205c-.29 3.045-1.375 6.685-3.344 7.982-2.062 1.357-3.654 3.285-6.115 3.295-2.786.011-4.953-4.486-4.744-9.723.04-.976.02-2.837.038-3.842.015-.804-.604-1.586.35-3.587C17.728 1.7 20.941.412 24.492.744c6.11.573 6.378 3.371 5.798 9.46" transform="translate(84.563 45.042)"/>
                                        <path fill="#734731" d="M18.022 18.634c.275 1.602 1.19 2.294 2.559 2.678 3.277.919 6.04-2.11 7.384-3.838.762-.98.334-5.694.334-5.694l-1.052.267s.169 3.574-.442 4.63c-.839 1.448-4.23 4.614-6.474 3.121-.465-.31-.94-.985-1.315-1.217-.496-.308-.82-.032-.994.053" transform="translate(84.563 45.042)"/>
                                        <path fill="#734731" d="M24.786.053c-3.331-.355-7.364 1.059-8.278 4.6-.157.61-1.077 1.78-.175 2.02.485-1.004 2.71 1.268 4.932 1.21 2.139-.054 2.683.294 5.11 2.368.5.426.6 1.916.6 2.294.242.099.55.22.922.42.273-.977-.01-2.5.862-2.46.903.041.927 1.361.688 2.488-.16.763-.568 2.6-.557 2.923.658.335 1.31-3.157 1.74-4.813 1.497-5.774.144-10.411-5.844-11.05" transform="translate(84.563 45.042)"/>
                                        <path fill="#734731" d="M21.487 6.237l-5.266-.105c-.42-.81-.324-2.822.014-3.82C16.76.76 18.687 1.39 20.239.693l1.248 5.544zM20.69 17.15c-.467-1.353-1.968-2.584-3.35-2.598-.053 0 .085 1.372.217 1.388.97.119 2.257.693 2.735 1.922.383.343.663.123.398-.713" transform="translate(84.563 45.042)"/>
                                        <path fill="#734731" d="M17.964 19.162c-.277-.682-1.114-3.125.033-3.25.11-.012-.184-1.361-.228-1.36-1.913.055-1 3.846-.196 4.85l.39-.24zM20.794 20.608l-.625.18c-.172-1.614.395-2.59-.068-3.968l.282-.189c.453 1.37.177 2.33.411 3.977" transform="translate(84.563 45.042)"/>
                                        <path fill="#F1F1F1" d="M22.1 35.264c-2.565.758-.944 7.674 1.436 8.367 1.157.337 21.868-2.627 22.7-3.845 1.02-1.493-2.008-3.976-5.465-5.106-.392-.128-17.128.128-18.672.584" transform="translate(84.563 45.042) rotate(90 33.617 39.152)"/>
                                    </g>
                                </g>
                            </g>
                            <path fill="#05CE7C" d="M174.274 309.064l48.555-42.076-30.903-17.837c-4.187 13.274-15.555 50.71-17.652 59.913" opacity=".33" transform="translate(-326 -954) translate(326 954)"/>
                            <path fill="#0B242E" d="M168.903 347.119L168.903 364.907 273.715 425.403 273.715 407.613z" transform="translate(-326 -954) translate(326 954)"/>
                            <path fill="#05CE7C" d="M597.412 60.953L361.425 197.157 256.614 136.66 492.601 0.457z" transform="translate(-326 -954) translate(326 954)"/>
                            <path fill="#027043" d="M257.726 370.166L184.892 328.126 184.892 348.367 257.726 390.407z" transform="translate(-326 -954) translate(326 954)"/>
                            <g transform="translate(-326 -954) translate(326 954) translate(593.253 230.25)">
                                <mask id="1vaxwe3xfh" fill="#fff">
                                    <use xlink:href="#z0ugfj7vdg"/>
                                </mask>
                                <path fill="#07141A" d="M4.162 0.174L0.321 2.389 0.321 10.524 4.162 8.307z" mask="url(#1vaxwe3xfh)"/>
                            </g>
                            <path fill="#07141A" d="M593.575 232.639L585.659 222.439 577.742 227.009 593.575 237.684z" transform="translate(-326 -954) translate(326 954)"/>
                            <path fill="#020506" d="M186.772 347.17L186.772 329.212 184.891 328.127 184.891 348.366z" transform="translate(-326 -954) translate(326 954)"/>
                            <path fill="#E3F2FD" d="M186.772 347.17L184.891 348.366 257.726 390.405 257.726 388.126zM186.772 339.799L184.891 340.995 257.726 383.032 257.726 380.753z" transform="translate(-326 -954) translate(326 954)"/>
                            <path fill="#05CE7C" d="M257.726 383.04L184.892 341.001 184.892 343.572 257.726 385.612z" transform="translate(-326 -954) translate(326 954)"/>
                            <path fill="#E3F2FD" d="M186.772 332.193L184.891 333.389 257.726 375.428 257.726 373.15z" transform="translate(-326 -954) translate(326 954)"/>
                            <path fill="#05CE7C" d="M257.726 375.434L184.892 333.394 184.892 335.966 257.726 378.006z" transform="translate(-326 -954) translate(326 954)"/>
                            <path fill="#0E3241" d="M306.493 408.212l-24.151 13.938-8.626 3.25v-54.136c0-3.938 17.419-60.504 19.29-66.14 1.986-5.97 6.296-11.027 9.496-12.873 3.198-1.845 46.936-27.092 51.096-29.491 2.398-1.383 3.6-.817 3.6 2.63v75.617l-28.627 16.522c-7.038 4.063-16.953 17.662-18.87 29.723-1.835 11.53-3.208 20.96-3.208 20.96" transform="translate(-326 -954) translate(326 954)"/>
                            <path fill="#0B242E" d="M309.7 387.253c-1.835 11.53-3.208 20.96-3.208 20.96l3.968-2.292c.45-3.054 1.603-10.456 2.976-19.187.741-4.713 7.272-17.28 14.763-21.604l28.998-16.737v-7.385L328.57 357.53c-7.035 4.06-16.953 17.662-18.87 29.723" transform="translate(-326 -954) translate(326 954)"/>
                            <path fill="#0B242E" d="M309.933 386.068l-36.218 20.903v18.43l7.673-2.7 25.106-14.49s1.371-9.43 3.205-20.959c.064-.391.155-.79.234-1.184M537.53 246.738c-.92-4.511-3.614-3.175-5.745-1.942l-17.163 9.905-17.16 9.905c-2.134 1.23-4.825 3-5.745 8.574l-4.82 29.164 1.713.756 3.892-2.247s1.886-9.97 3.478-18.7c.562-3.062 8.5-15.536 12.299-17.729l6.343-3.662 6.344-3.661c3.798-2.193 11.74 1.117 12.3 3.533 1.593 6.889 3.479 14.685 3.479 14.685l3.892-2.245 1.713-2.736s-2.912-14.249-4.82-23.6" transform="translate(-326 -954) translate(326 954)"/>
                            <g fill="#027043">
                                <path d="M236.63 146.088L0.644 282.291 0.641 136.326 236.628 0.125z" transform="translate(-326 -954) translate(326 954) translate(360.784 60.83)"/>
                            </g>
                            <path fill="#0B242E" d="M362.954 373.879L486.897 302.346 491.717 273.181 357.669 350.55z" transform="translate(-326 -954) translate(326 954)"/>
                            <path fill="#0B242E" d="M357.197 348.393l-14.433 8.33c0 .807 1.438.83 3.87 1.164 3.554.495 6.498 3.172 7.234 6.288 1.63 6.86 3.481 14.686 3.481 14.686 2.033-1.176 4.325-2.901 5.605-4.983l-5.757-25.485z" transform="translate(-326 -954) translate(326 954)"/>
                            <path fill="#051015" d="M343.398 357.371l14.002-8.079-.205-.898-14.432 8.328c0 .315.224.507.635.65" transform="translate(-326 -954) translate(326 954)"/>
                            <path fill="#0B242E" d="M286.191 360.243l49.819-43.924c4.925-4.777 6.752-9.768 6.752-15.923v-16.015c0-3.322-1.238-4.683-4.278-2.931l-36.223 20.91c-4.4 2.537-6.344 7.501-6.873 9.202-3.828 12.324-9.972 32.695-13.837 46.218-1.519 5.313.64 6.054 4.64 2.463" transform="translate(-326 -954) translate(326 954)"/>
                            <g transform="translate(-326 -954) translate(326 954) translate(282.106 282.035)">
                                <mask id="hwv1p8rb8j" fill="#fff">
                                    <use xlink:href="#46yfn1bfwi"/>
                                </mask>
                                <use fill="#2E5A6C" xlink:href="#46yfn1bfwi"/>
                                <g mask="url(#hwv1p8rb8j)" opacity=".43">
                                    <g>
                                        <path fill="#E3E3E3" d="M17.26 30.495c2.171-2.616 3.183-6.313.675-8.96-2.14-2.257-4.597 1.11-6.695 3.405C7.174 29.39 1.158 37.5.046 40.383c-.499 1.29 3.146 3.748 6.356 1.938.364-.205 7.376-7.628 10.859-11.826" transform="translate(-27.032 10.394)"/>
                                        <path fill="#E0E0E0" d="M12.375 50.675c.198.659.392 1.376.75 2.258.569 1.68-4.461 3.23-5.895 2.14-.432-.647-1.05-1.321-1.672-2.181-.359-.496 6.648-2.782 6.817-2.217" transform="translate(-27.032 10.394)"/>
                                        <path fill="#F0C7AD" d="M13.856 54.958c-.877-1.791-2.513-4.372-2.513-4.372l-4.412 2.21s3.186 3.421 3.686 4.72c.016.04 3.417-2.193 3.239-2.558" transform="translate(-27.032 10.394)"/>
                                        <path fill="#F0F0F0" d="M12.472 51.297c.18.435-5.082 1.33-5.064 2.754C5.78 51.473-.194 42.974.005 40.839c.167-1.796 4.554-1.945 7.27.526.685.624 4.553 8.378 5.197 9.932" transform="translate(-27.032 10.394)"/>
                                        <path fill="#FFF" d="M12.204 49.023c.59.85.745 1.893.966 3.424-1.328-2.136-5.609.557-5.589 2.297-.504-.854-1.367-1.7-1.994-3.017-.6-1.264 5.4-4.462 6.617-2.704" transform="translate(-27.032 10.394)"/>
                                        <path fill="#F0C7AD" d="M17.775 60.583c-.55-.424-1.544-1.955-1.798-2-1.022-.165-1.553 1.908-.91 3.037.828 1.456 1.579 2.273 1.678 2.772.264 1.327-3.051.843-4.139-1.129-.632-1.147-2.146-4.054-1.95-4.909.128-.563-.079-1.195-.207-1.624-.511-1.706 2.934-4.093 3.365-3.164.4.848.795 1.253 1.512 1.537 1.337.53 2.452 2.242 2.523 2.625.158.84 1.035 2.03 1.466 2.438.114.107.127.29.019.404-.332.351-.865.548-1.56.013" transform="translate(-27.032 10.394)"/>
                                        <path fill="#CCC" d="M29.875 20.557c-.386-.405-.037-.724-.04-.725-.171-.07-.51-.973-.516-1.268-.048-.31-.084-.64-.11-.98.414-.44.778-.997 1.094-1.627.65.232 1.29-3.194 1.714-4.831C33.514 5.341 32.16.693 26.172.053c-3.33-.356-7.364 1.061-8.278 4.609-.157.61-1.076 1.785-.175 2.026.009-.018.019-.031.028-.047.052.433.157.776.151 1.121-.017 1.018.002 2.901-.037 3.89-.13 3.371.686 6.439 2.001 8.223v1.832h1.157c.409.838 1.103 1.614 2.289 1.793 1.459.222 3.233-.198 4.657-.778.313-.48.754-.88 1.258-1.148.25-.87-.149-.613.652-1.017" transform="translate(-27.032 10.394)"/>
                                        <path fill="#CCC" d="M29.516 21.482H18.715v-1.82c3.42-1.638 6.74-2.225 10.045-.964.236.09.497.374.732.483.357.872.464 2.022.024 2.3" transform="translate(-27.032 10.394)"/>
                                        <path fill="#F0C7AD" d="M32.201 56.13l1.07-30.489c-1.265-1.05-.974-3.776-2.464-4.396-3.71-1.54-8.633-1.984-12.496-1.805-1.26.06-2.544 2.811-3.786 3.69l-.662 33H32.2z" transform="translate(-27.032 10.394)"/>
                                        <path fill="#EBEBEB" d="M11.15 59.71c.674-2.3 2.044-4.518 2.121-7.271.12-4.228-.138-8.989-.325-12.996-.228-4.896-1.596-9.28-1.192-11.911.249-1.621 1.42-6.6 6.39-7.436-.247.312-.446.699-.598 1.16-1.172 3.572.974 10.913 2.138 12.176l.342.371.281-.417c.611-.904 3.4-3.721 5.862-6.206 3.3-3.331 4.6-4.685 5.056-5.322 1.653.598 4.582 2.027 5.502 2.7 2.942 2.148-4.29 23.08-4.604 24.233-1.117 4.097.303 10.68-.27 14.257-.953 5.95-22.028 1.182-20.703-3.338" transform="translate(-27.032 10.394)"/>
                                        <path fill="#E8B034" d="M35.392 23.917c-1.057-.776-3.317-1.923-4.867-2.435-.093.717-10.692 15.915-11.958 17.8l-1.932 20.646s1.457 8.655 2.528 9.327c3.937 2.472 15.52-1.765 14.744-5.814-.726-3.79-1.677-10.8-1.178-15.423.416-3.844 2.094-7.14 3.679-13.347.954-3.736 2.107-8.46-1.016-10.754" transform="translate(-27.032 10.394)"/>
                                        <path fill="#E8B034" d="M16.824 23.513c.307-2.308 1.39-3.858 2.584-4.11-5.602-.016-7.665 4.573-8.169 7.92-.741 4.926 2.037 18.807 1.079 24.902-.395 2.501-.882 6.353-1.921 8.053.145 2.9 2.24 6.765 3.862 5.188 1.828-1.777 2.727-5.753 2.727-5.753l1.782-20.617c-.974-1.08-2.671-10.112-1.944-15.583" transform="translate(-27.032 10.394)"/>
                                        <path fill="#E3E3E3" d="M17.328 20.096s.905-.918 1.601-1.213c1.271-.539 3.9-.866 3.9-.866l.044 1.96-5.545.119z" transform="translate(-27.032 10.394)"/>
                                        <path fill="#D9B49C" d="M19.858 9.701l-1.143 9.505s.053 3.857 2.962 4.293c3.02.453 7.366-1.722 7.435-2.565-2.47-1.064-.922-10.956-.922-10.956l-8.332-.277z" transform="translate(-27.032 10.394)"/>
                                        <path fill="#FFF" d="M17.56 24.6c-.396-.95-3.411.227-3.686.347-.239-2.28 3.358-4.83 4.212-5.237.923-.439 2.015-.278 2.015-.278-1.593.63-2.3 2.212-2.54 5.168M30.928 26.333c-.572-.814-3.558-1.381-4.589-1.006 2.298-2.42 2.964-5.483 2.08-6.617.99.32 2.724 2.717 2.762 3.448.072 1.392-.253 4.175-.253 4.175" transform="translate(-27.032 10.394)"/>
                                        <path fill="#FFF" d="M28.419 24.982c-3.244 2.752-6.333 6.359-9.011 8.973 2.156-2.584 4.095-6.156 6.873-8.726.39-.176 1.564-.362 2.138-.247" transform="translate(-27.032 10.394)"/>
                                        <path fill="#FFF" d="M15.942 23.56c.626 4.36 1.729 7.437 4.159 10.395-1.492-2.929-2.268-5.943-2.642-9.847-.255-.348-.938-.361-1.517-.547" transform="translate(-27.032 10.394)"/>
                                        <path fill="#B48725" d="M18.715 39.499s-.022 1.263-.103 3.152c-.048.944-.087 2.047-.16 3.226l-.228 3.692-.281 3.686c-.088 1.177-.202 2.272-.284 3.212-.178 1.879-.33 3.128-.33 3.128s.021-1.264.102-3.153c.048-.943.085-2.047.16-3.225l.228-3.693.281-3.686c.09-1.176.203-2.272.284-3.212.18-1.878.33-3.127.33-3.127" transform="translate(-27.032 10.394)"/>
                                        <path fill="#4A3D35" d="M18.717 43.037c.382.172.691.588.69.931-.001.342-.312.48-.695.308-.383-.172-.692-.588-.69-.929 0-.344.312-.481.695-.31" transform="translate(-27.032 10.394)"/>
                                        <path fill="#A8A8A8" d="M18.022 42.964c.003-.01.293.09.478.278.083.095.145.198.181.278.032.08.034.137.034.137l-.087-.122c-.046-.074-.122-.166-.214-.25-.154-.182-.392-.32-.392-.32" transform="translate(-27.032 10.394)"/>
                                        <path fill="#4A3D35" d="M18.024 49.274c.382.171.691.587.69.93-.001.342-.312.48-.695.308-.383-.171-.692-.587-.69-.928 0-.344.312-.482.695-.31" transform="translate(-27.032 10.394)"/>
                                        <path fill="#A8A8A8" d="M17.328 49.2c.004-.009.294.09.479.278.083.096.145.2.181.278.032.081.034.137.034.137l-.087-.121c-.046-.074-.122-.167-.214-.25-.154-.182-.393-.321-.393-.321" transform="translate(-27.032 10.394)"/>
                                        <path fill="#4A3D35" d="M17.33 56.897c.383.171.693.587.692.93-.002.342-.313.48-.696.308-.383-.171-.692-.588-.69-.929 0-.343.312-.48.694-.31" transform="translate(-27.032 10.394)"/>
                                        <path fill="#A8A8A8" d="M17.328 56.823c.004-.01.294.09.478.278.084.096.146.199.182.278.031.08.034.137.034.137l-.087-.122c-.046-.073-.123-.166-.214-.25-.154-.182-.393-.32-.393-.32" transform="translate(-27.032 10.394)"/>
                                        <path fill="#4A3D35" d="M18.717 63.133c.382.172.692.588.69.931 0 .342-.312.48-.695.308-.383-.172-.692-.588-.69-.929 0-.343.312-.481.695-.31" transform="translate(-27.032 10.394)"/>
                                        <path fill="#A8A8A8" d="M18.715 63.06c.003-.01.293.09.478.278.083.095.145.198.181.278.032.08.034.136.034.136l-.087-.121c-.046-.074-.122-.167-.214-.25-.154-.182-.392-.32-.392-.32" transform="translate(-27.032 10.394)"/>
                                        <path fill="#2B2B2B" d="M17.352 8.05l.666 4.423c-.157-1.042.378-2.775 1.39-4.027-.605-.81-.752-2.325-.544-3.595-1.012 1.252-1.67 2.156-1.512 3.2" transform="translate(-27.032 10.394)"/>
                                        <path fill="#F0C7AD" d="M30.291 10.205c-.29 3.045-1.375 6.685-3.344 7.982-2.062 1.357-3.654 3.285-6.115 3.295-2.786.011-4.953-4.486-4.744-9.723.04-.976.02-2.837.038-3.842.015-.804-.604-1.586.35-3.587C17.728 1.7 20.941.412 24.492.744c6.11.573 6.378 3.371 5.798 9.46" transform="translate(-27.032 10.394)"/>
                                        <path fill="#734731" d="M18.022 18.634c.275 1.602 1.19 2.294 2.559 2.678 3.277.919 6.04-2.11 7.384-3.838.762-.98.334-5.694.334-5.694l-1.052.267s.169 3.574-.442 4.63c-.839 1.448-4.23 4.614-6.474 3.121-.465-.31-.94-.985-1.315-1.217-.496-.308-.82-.032-.994.053" transform="translate(-27.032 10.394)"/>
                                        <path fill="#734731" d="M24.786.053c-3.331-.355-7.364 1.059-8.278 4.6-.157.61-1.077 1.78-.175 2.02.485-1.004 2.71 1.268 4.932 1.21 2.139-.054 2.683.294 5.11 2.368.5.426.6 1.916.6 2.294.242.099.55.22.922.42.273-.977-.01-2.5.862-2.46.903.041.927 1.361.688 2.488-.16.763-.568 2.6-.557 2.923.658.335 1.31-3.157 1.74-4.813 1.497-5.774.144-10.411-5.844-11.05" transform="translate(-27.032 10.394)"/>
                                        <path fill="#734731" d="M21.487 6.237l-5.266-.105c-.42-.81-.324-2.822.014-3.82C16.76.76 18.687 1.39 20.239.693l1.248 5.544zM20.69 17.15c-.467-1.353-1.968-2.584-3.35-2.598-.053 0 .085 1.372.217 1.388.97.119 2.257.693 2.735 1.922.383.343.663.123.398-.713" transform="translate(-27.032 10.394)"/>
                                        <path fill="#734731" d="M17.964 19.162c-.277-.682-1.114-3.125.033-3.25.11-.012-.184-1.361-.228-1.36-1.913.055-1 3.846-.196 4.85l.39-.24zM20.794 20.608l-.625.18c-.172-1.614.395-2.59-.068-3.968l.282-.189c.453 1.37.177 2.33.411 3.977" transform="translate(-27.032 10.394)"/>
                                        <path fill="#F1F1F1" d="M22.1 35.264c-2.565.758-.944 7.674 1.436 8.367 1.157.337 21.868-2.627 22.7-3.845 1.02-1.493-2.008-3.976-5.465-5.106-.392-.128-17.128.128-18.672.584" transform="translate(-27.032 10.394) rotate(90 33.617 39.152)"/>
                                    </g>
                                </g>
                            </g>
                            <path fill="#0D47A1" d="M309.863 386.172L281.069 402.793 281.069 360.342 281.389 360.157 281.389 402.236 309.863 385.805z" transform="translate(-326 -954) translate(326 954)"/>
                            <path fill="#0B242E" d="M346.802 347.006l-.32.185-.003-70.987c0-1.18-.83-1.657-1.85-1.068l-43.41 25.054c-1.262.728-2.426 2.257-2.96 3.888l-1.81 5.542-.29.01 1.811-5.54c.584-1.791 1.861-3.47 3.25-4.272l43.408-25.052c1.199-.691 2.171-.128 2.171 1.253l.003 70.987z" transform="translate(-326 -954) translate(326 954)"/>
                            <path fill="#0E3241" d="M310.002 385.725l-28.614 16.512v17.249l25.624-14.788c.563-3.765 1.53-10.188 2.688-17.445.078-.507.194-1.02.302-1.528" transform="translate(-326 -954) translate(326 954)"/>
                            <path fill="#0B242E" d="M301.413 390.683c-.63 4.06-1.152 7.525-1.506 9.912l7.104 4.102c.564-3.765 1.53-10.185 2.688-17.445.079-.507.194-1.019.303-1.528l-8.589 4.959z" transform="translate(-326 -954) translate(326 954)"/>
                            <path fill="#0B242E" d="M299.906 400.596L281.389 411.283 281.389 419.486 307.013 404.698z" transform="translate(-326 -954) translate(326 954)"/>
                            <path fill="#0D47A1" d="M280.833 402.864L280.833 422.899 281.389 422.702 281.389 402.542z" transform="translate(-326 -954) translate(326 954)"/>
                            <path fill="#0D47A1" d="M281.388 403.186L281.388 402.542 273.716 406.971 273.716 407.614zM168.903 347.119L168.903 346.474 273.715 406.971 273.715 407.613z" transform="translate(-326 -954) translate(326 954)"/>
                            <path fill="#0B242E" d="M338.323 342.822c0 1.63-1.784 3.98-3.983 5.252-2.203 1.267-3.985.977-3.985-.652 0-1.632 1.782-3.982 3.985-5.252 2.199-1.27 3.983-.977 3.983.652" transform="translate(-326 -954) translate(326 954)"/>
                            <path fill="#E3F2FD" d="M339.977 341.945c0 .564-.391 1.243-.876 1.52l-9.524 5.499c-.485.28-.877.051-.877-.507v-.16c0-.559.392-1.24.877-1.521l9.524-5.495c.485-.28.876-.052.876.51v.154z" transform="translate(-326 -954) translate(326 954)"/>
                            <path fill="#027043" d="M477.636 300.504L371.744 361.62 371.744 349.606 477.636 288.49z" transform="translate(-326 -954) translate(326 954)"/>
                            <path fill="#05CE7C" d="M477.636 289.038L371.744 350.154 371.744 349.606 477.636 288.489zM477.636 299.956L371.744 361.072 371.744 361.621 477.636 300.505z" transform="translate(-326 -954) translate(326 954)"/>
                            <path fill="#E8B034" d="M276.292 416.712L276.292 407.998 278.81 406.543 278.81 415.26z" transform="translate(-326 -954) translate(326 954)"/>
                            <path fill="#022E1C" d="M396.583 342.731L389.033 347.089 389.033 344.183 396.583 339.825zM460.349 305.928L452.802 310.286 452.802 307.38 460.349 303.022z" transform="translate(-326 -954) translate(326 954)"/>
                            <path fill="#0B242E" d="M347.547 262.15L298.949 290.201 324.038 265.226 347.547 251.659z" transform="translate(-326 -954) translate(326 954)"/>
                            <path fill="#0E3241" d="M302.502 292.251s3.843-14.945 12.953-29.774c9.11-14.827 43.455-56.864 43.455-56.864v43.59l-31.319 18.075-25.089 24.973z" transform="translate(-326 -954) translate(326 954)"/>
                            <path fill="#0B242E" d="M358.908 205.613l-104.811-60.497s-34.345 42.04-43.453 56.867c-9.113 14.827-12.955 29.772-12.955 29.772l104.813 60.496s3.84-14.945 12.953-29.774c9.11-14.827 43.453-56.864 43.453-56.864" transform="translate(-326 -954) translate(326 954)"/>
                            <path fill="#051015" d="M257.575 416.125L182.222 372.634 184.218 367.965 255.576 409.149z" transform="translate(-326 -954) translate(326 954)"/>
                            <path fill="#020506" d="M273.715 407.169L262.793 400.864 262.793 393.4 267.6 390.41 273.715 393.941z" transform="translate(-326 -954) translate(326 954)"/>
                            <path fill="#FFF" d="M272.859 406.676L264.16 401.653 264.16 393.936 267.781 391.847 272.859 394.777z" transform="translate(-326 -954) translate(326 954)"/>
                            <path fill="#051015" d="M233.408 390.495L209.208 376.527 209.208 370.579 233.408 384.547zM257.724 400.35c0 2.307-1.622 3.244-3.621 2.09l-17.657-10.19V386.3l21.278 12.28v1.77zM188.515 364.583l17.654 10.191v-5.948l-21.275-12.282v1.772c0 2.308 1.622 5.113 3.62 6.267" transform="translate(-326 -954) translate(326 954)"/>
                            <path fill="#020506" d="M273.713 421.278L262.793 414.973 262.793 401.507 273.715 407.809z" transform="translate(-326 -954) translate(326 954)"/>
                            <path fill="#0D47A1" d="M273.715 407.81L168.904 347.316 168.904 346.674 273.715 407.168z" transform="translate(-326 -954) translate(326 954)"/>
                            <path fill="#FFF" d="M272.859 407.317L264.16 402.295 264.16 414.193 272.859 419.213z" transform="translate(-326 -954) translate(326 954)"/>
                            <path fill="#05CE7C" d="M264.159 414.193L272.859 419.213 272.859 415.035 264.159 410.015z" transform="translate(-326 -954) translate(326 954)"/>
                            <path fill="#020506" d="M168.903 346.674L179.826 352.979 179.826 344.268 175.973 337.527 168.903 333.447z" transform="translate(-326 -954) translate(326 954)"/>
                            <path fill="#FFF" d="M169.757 347.167L178.456 352.187 178.456 344.47 174.835 338.2 169.757 335.271z" transform="translate(-326 -954) translate(326 954)"/>
                            <path fill="#020506" d="M168.903 360.784L179.826 367.089 179.826 353.62 168.903 347.315z" transform="translate(-326 -954) translate(326 954)"/>
                            <path fill="#FFF" d="M169.757 347.809L178.456 352.832 178.456 360.549 178.456 364.728 169.757 359.707z" transform="translate(-326 -954) translate(326 954)"/>
                            <path fill="#05CE7C" d="M178.457 364.728L169.757 359.707 169.757 355.529 178.457 360.549z" transform="translate(-326 -954) translate(326 954)"/>
                            <path fill="#101F25" d="M281.069 355.78l5.432.566 1.042-5.062-4.596-.128-1.878 4.624zm25.869-15.946c.084.829-2.944 15.617-3.503 18.604-.396 2.114-7.83 3.135-14.307 2.697-1.452-.098-3.067-.962-2.942-2.78l-7.114-.207s.19-9.3 3.87-10.956l5.248.893 1.792-9.344c.724-4.366 3.301-3.175 8.185-2.586 6.728.81 8.488.831 8.77 3.679z" transform="translate(-326 -954) translate(326 954)"/>
                            <path fill="#FFF" d="M234.437 400.038L207.411 384.453 207.411 375.429 234.437 391.014z" transform="translate(-326 -954) translate(326 954)"/>
                            <path fill="#101F25" d="M244.529 335.762s-52.46-30.85-55.921-32.26c-2.257-.918-17.335 5.448-17.483 6.179l101.127 58.37c1.083-4.607 3.537-13.24 6.33-22.692-9.247-7.956-24.025-14.96-34.053-9.597" transform="translate(-326 -954) translate(326 954)"/>
                            <path fill="#101F25" d="M278.446 331.984c-7.004-7.341-17.101-8.303-22.559-2.149-5.457 6.155-4.202 17.096 2.8 24.437 4.607 4.83 10.538 6.841 15.618 5.933.441-1.587.923-3.295 1.435-5.091-4.278 2.335-10.267 1.053-14.656-3.547-5.302-5.559-6.253-13.845-2.12-18.508 4.134-4.658 11.78-3.93 17.082 1.63 1.787 1.87 3.064 4.05 3.835 6.297.507-1.698 1.017-3.409 1.529-5.11-.832-1.367-1.81-2.684-2.964-3.892" transform="translate(-326 -954) translate(326 954)"/>
                        </g>
                    </g>
                    <g>
                        <path fill="#FFDDA8" d="M90.594 19.699L88.499 18.457 81.977 14.567 65.188 24.566 71.714 28.452 73.818 29.703 81.014 33.989 97.77 23.99 97.782 23.99z" transform="translate(-326 -954) translate(326 954) translate(514 275)"/>
                        <path fill="#F9C98A" d="M81.282 14.567L65.188 23.909 80.33 32.602 96.395 23.351z" transform="translate(-326 -954) translate(326 954) translate(514 275)"/>
                        <path fill="#BC7C46" d="M79.751 33.358L79.732 54.798 73.079 50.689 71.151 49.496 65.188 45.822 65.188 24.278z" transform="translate(-326 -954) translate(326 954) translate(514 275)"/>
                        <path fill="#DDA866" d="M79.769 33.731L79.751 54.798 97.782 45.41 97.782 24.278z" transform="translate(-326 -954) translate(326 954) translate(514 275)"/>
                        <path fill="#9B7451" d="M72.648 30.344L72.648 52.024 70.904 50.821 70.904 29.133z" transform="translate(-326 -954) translate(326 954) translate(514 275)"/>
                        <path fill="#CAAF8F" d="M91.541 19.256L85.528 22.701 83.376 23.935 74.339 29.091 74.275 29.133 72.123 27.899 72.183 27.861 81.223 22.701 83.376 21.458 89.393 18.035z" transform="translate(-326 -954) translate(326 954) translate(514 275)"/>
                        <path fill="#E59E85" d="M92.676 43.7c2.802-1.2 5.011-1.68 6.493-2.807-.697-1.494-.256-3.5-1.282-4.823-.045 1.378-1.35 2.216-2.526 2.868-1.128.613-3.933 1.056-4.514 2.256l1.829 2.506z" transform="translate(-326 -954) translate(326 954) translate(514 275)"/>
                        <path fill="#E2E7E8" d="M110.958 113.414c0 4.023-6.988 7.281-15.603 7.281-8.62 0-15.604-3.258-15.604-7.281 0-4.024 6.985-7.286 15.604-7.286 8.615 0 15.603 3.262 15.603 7.286" transform="translate(-326 -954) translate(326 954) translate(514 275)"/>
                        <path fill="#192226" d="M102.87 101.278c-1.704-.131.837 2.496-2.207 1.786-1.012-.245-2.817-.52-3.691.368-1.35 1.373-.022 3.265.86 4.617.33.498.727.954 1.27 1.258.638.372 1.414.448 2.038.85 1.172.734 2.055 1.744 3.499 2.057 1.003.223 2.451.228 3.432-.11.361-.14.811-.503.807-.913-.013-1.457-1.645-4.524-1.016-5.787.387-.76-3.629-3.966-4.993-4.126M97.734 113.843c-.285-1.252-2.303-2.833-1.668-4.204.335-.748-4.137-.921-6.596-.541-.188.29-.395.585-.652.836-.226.221-.488.464-.79.619-.153.081-.479.195-.57.254-.162.324-.676.67-2.345 1.05-1.296.295-4.21.42-5.06 1.356-.17.184-.23.369-.257.553-.386.958 1.81 1.934 4.283 2.454.938.192 1.425.221 2.652.291 1.774.092 2.257-.129 3.622-.199 1.36-.077 3.768-.04 4.9-.096 1.46-.08 2.803-.969 2.48-2.373" transform="translate(-326 -954) translate(326 954) translate(514 275)"/>
                        <path fill="#F2C4B0" d="M101.943 19.365l-1.697-6.78c-.05-.974-.345-2.089-1.447-2.178-1.215-.1-4.368 2.674-4.484 3.785L95 21.056c-.013.057.137.387.141.447 1.855-.535 4.917-1.908 6.801-2.138" transform="translate(-326 -954) translate(326 954) translate(514 275)"/>
                        <path fill="#F2C4B0" d="M102.554 8.493c-1.038-.994-2.125-1.92-3.306-2.732-.723-.425-.601-.544-1.367-.905-5.76 1.194-10.512 6.51-7.474 13.38.376.825 1.359 4.722 3.198 4.654 5.353-.166 2.012-2.894 2.774-2.503 1.302.658 3.93-.344 4.44-2.074.749-.459 1.32-.969 1.818-1.496-.122-2.774-.303-5.554-.083-8.324" transform="translate(-326 -954) translate(326 954) translate(514 275)"/>
                        <path fill="#0B242E" d="M90.847 11.318c.234 1.836.473 2.796 1.455 4.224.926.46 3.733 1.106 3.733 1.106 1.482-1.235 1.897-3.789 2.31-5.838.347-1.711-.02-2.95-.806-3.874l-6.692 4.382z" transform="translate(-326 -954) translate(326 954) translate(514 275)"/>
                        <path fill="#0B242E" d="M95.302 3.846c5.842-1.767 12.092 2.833 8.213 10.344-1.428 2.757-1.401 3.152-2.867 3.606-1.617.398-3.33.386-4.61-.718-3.449-2.979 3.22-8.53-.882-10.691l.146-2.541z" transform="translate(-326 -954) translate(326 954) translate(514 275)"/>
                        <path fill="#F2C4B0" d="M90.956 16.031c-.16-1.866 1.296-1.592 1.66-.992.486.798.129 2.494-.87 2.972-.416-1.04-.745-1.45-.79-1.98" transform="translate(-326 -954) translate(326 954) translate(514 275)"/>
                        <path fill="#030B0D" d="M101.02 57.594c-.068-.132-5.461 1.523-4.513 5.48.518 2.142-.352 10.056 2.714 22.4 1.41 5.68 1.55 9.9 1.838 15.765.083 1.823-.976 4.4.094 6.15 2.106 3.328 5.441 4.416 7.749 2.967.106-1.572 2.264-14.85-1.778-29.714-.076-8.608-.028-19.14-.265-26.537 0 0-1.703 4.12-5.84 3.489" transform="translate(-326 -954) translate(326 954) translate(514 275)"/>
                        <path fill="#0B242E" d="M86.77 50.823c-1.006 10.074-1.332 16.41.862 29.856 1.16 7.124.13 18.971.236 24.868.04 1.843-.81 3.463-1.388 5.252 1.219 1.17 7.01 3.182 9.358 1.797.157-1.57 3.275-16.694.845-28.583.2-8.657 1.408-25.847 3.873-34.07 0 0-9.692 1.653-13.785.88" transform="translate(-326 -954) translate(326 954) translate(514 275)"/>
                        <path fill="#05CE7C" d="M107.96 19.813c-.2-.13-.444-.235-.726-.292-.627-.138-1.451-.126-2.344 0h-.004c-3.156.41-7.255 2.066-7.533 2.188-.914.385-1.828.84-2.677 1.327-.944.523-3.037 2.118-3.818 2.678-.303.885.431.75.081 1.57-.935 2.2-1.866 4.391-2.865 6.559-.022 2.317.615 5.332.88 9.43 0 .03-.013.062-.018.094h.005c.17.077.32.195.444.333 6.79-.154 13.472-2.325 19.118-5.905.166-1.083.375-2.236.627-3.55.227-1.157.564-2.354.88-3.548.06-.162.103-.328.145-.487 1.03-3.924 1.725-7.75-2.195-10.397" transform="translate(-326 -954) translate(326 954) translate(514 275)"/>
                        <path fill="#0B242E" d="M107.831 45.326c-.074.286-.095.716-.074 1.218.074 2.372.979 6.557 1.21 7.644.008.005.008.009.008.013.035.147.044.228.044.236.039.27.03.544 0 .813v.013c-.3 2.807-3.51 6.174-7.437 8.184-4.798 2.461-10.651 2.874-13.509-2.322.148-1.024.653-14.004.7-14.303.127-.65.222-1.256.305-1.842 0-.034.009-.063.009-.093 1.026-.164 2.005-.653 2.813-1.277 3.693-2.878 3.519-8.538 3.284-12.693-.113-1.913-.67-5.108-3.21-5.124.87-.65 1.866-1.315 2.94-1.926.948.366 2.44.817 3.04 1.88 2.349 4.15 1.492 11.02 1.149 14.163 4.723-1.192 6.384-1.234 8.824-3.56.97-4.51 2.849-13.31-2.605-16.133.909-.126 1.744-.143 2.387 0 3.797 2.575 3.528 7.936 2.827 11.606-.339 1.82-1.9 10.106-2.705 13.503" transform="translate(-326 -954) translate(326 954) translate(514 275)"/>
                        <path fill="#F2C4B0" d="M95.008 22.215c.767 1.086 4.42-.336 5.359-.843 1.664-.898.748-1.928-.867-1.616-1.011.198-2.084.895-3.099 1.113l-1.393 1.346zM83.563 43.7c-1.68.399-3.924.95-9.758 2.639-.628.187-.307 3.248 1.483 3.096 3.257-.27 8.258.426 9.318.508L83.563 43.7z" transform="translate(-326 -954) translate(326 954) translate(514 275)"/>
                        <path fill="#202427" d="M72.764 45.379c-.021-.313.07-.704.148-.983-.056-.011-4.456-.09-6.148 2.692-1.221 2.014 3.813 4.085 5.309 3.422.026-.007 1.5-2.044 1.948-2.699.082-.128.126-.249.182-.369-.804-.414-1.365-1.126-1.439-2.063" transform="translate(-326 -954) translate(326 954) translate(514 275)"/>
                        <path fill="#05CE7C" d="M95.972 29.285c-.639-1.927-2.479-3.392-3.832-3.592-2.354-.353-3.864 2.697-4.52 4.452-1.05 2.795-2.265 7.832-3.118 10.54-.71.31-4.4 1.763-5.217 1.936-1.572 2.218-1.076 3.647 1.072 5.237.433.651 3.841.808 4.542.628.903-.228 3.86-1.064 4.378-1.465.58-.459.982-1.134 1.29-1.911 1.184-1.437 3.18-4.578 3.645-5.716 1.956-4.77 2.742-7.164 1.76-10.109" transform="translate(-326 -954) translate(326 954) translate(514 275)"/>
                        <path fill="#8A6B27" d="M96.896 4.235c5.352.462 9.473 2.983 9.195 5.617-.278 2.646-4.836 4.412-10.193 3.947-5.352-.462-9.468-2.975-9.2-5.621.279-2.642 4.845-4.404 10.198-3.943" transform="translate(-326 -954) translate(326 954) translate(514 275)"/>
                        <path fill="#E8B034" d="M106.103 7.18c.023.851-.274 1.523-.825 2.063-.073.088-.156.156-.24.22-.068.048-.152.112-.232.164-.57.416-1.312.716-2.171.949-.088.028-.164.048-.251.06-1.023.256-2.195.38-3.45.452-3.719.16-6.723-1.477-7.297-3.285-.038-.156-.084-.32-.087-.488V7.3c-.137-2.4 1.312-4.872 3.559-6.24.14-.092.312-.188.468-.264.559-.28 1.152-.496 1.79-.624.248-.068.491-.096.735-.124.118-.024.25-.02.38-.036 3.613-.212 7.533 2.732 7.62 7.168" transform="translate(-326 -954) translate(326 954) translate(514 275)"/>
                        <path fill="#8A6B27" d="M93.67 4.247c-1.893.365-3.379 1.874-4.21 4v.017c.004.178.052.353.099.518.766-2.265 2.24-3.885 4.17-4.255 3.272-.629 6.681 2.564 7.931 7.265.099-.013.185-.03.283-.064-1.28-4.85-4.835-8.144-8.273-7.481M104.024 10.238c-.897-4.902-3.73-8.648-6.895-9.544-.246.024-.488.056-.734.125 3.332.495 6.449 4.335 7.383 9.497l.015.089.23-.167" transform="translate(-326 -954) translate(326 954) translate(514 275)"/>
                        <g>
                            <path fill="#E5E5E5" d="M116.369 81.572L57.311 115.839 54.761 114.383 50.522 111.903 42.905 107.47 34.518 102.611 30.279 100.157 22.657 95.728 14.497 90.985 10.225 88.518 2.641 84.114 0 82.586 2.641 81.059 10.225 76.655 14.497 74.184 59.066 48.336z" transform="translate(-326 -954) translate(326 954) translate(514 275) translate(76.977 94.336)"/>
                            <path fill="#895B1F" d="M117.2 80.778L61.097 113.339 6.65 81.738 6.65 80.451 62.744 49.169 117.2 79.495z" transform="translate(-326 -954) translate(326 954) translate(514 275) translate(76.977 94.336)"/>
                            <path fill="#B78E44" d="M117.2 80.766L61.095 113.339 58.675 111.953 54.65 109.598 47.414 105.381 39.437 100.763 35.42 98.445 28.172 94.22 20.422 89.713 16.367 87.358 9.156 83.166 6.65 81.722 9.156 80.269 16.367 76.09 20.422 73.735 62.758 49.169z" transform="translate(-326 -954) translate(326 954) translate(514 275) translate(76.977 94.336)"/>
                            <path fill="#E2AC62" d="M70.652 54.268L14.296 86.671 14.13 86.577 70.487 54.17zM76.471 55.094L20.118 87.505 19.949 87.414 76.305 55.003zM83.12 60.098L26.76 92.505 26.599 92.414 82.951 60.003zM89.77 65.936L33.409 98.339 33.248 98.244 89.605 65.837zM95.589 66.757L39.236 99.172 39.067 99.081 95.427 66.67zM103.901 70.928L47.544 103.339 47.379 103.236 103.739 70.837zM110.55 76.761L54.198 109.172 54.028 109.09 110.389 76.671z" transform="translate(-326 -954) translate(326 954) translate(514 275) translate(76.977 94.336)"/>
                            <path fill="#774A15" d="M19.118 74.17v14.168l-7.481-4.055v-6.397c2.425-1.333 4.961-2.526 7.48-3.715" transform="translate(-326 -954) translate(326 954) translate(514 275) translate(76.977 94.336)"/>
                            <path fill="#895B1F" d="M21.588 74.171L21.588 86.014 18.31 88.338 18.31 74.171z" transform="translate(-326 -954) translate(326 954) translate(514 275) translate(76.977 94.336)"/>
                            <path fill="#774A15" d="M36.573 85.004L36.573 99.172 29.092 95.045 29.092 85.004z" transform="translate(-326 -954) translate(326 954) translate(514 275) translate(76.977 94.336)"/>
                            <path fill="#895B1F" d="M39.863 85.004L39.863 96.783 36.608 99.172 36.608 85.004z" transform="translate(-326 -954) translate(326 954) translate(514 275) translate(76.977 94.336)"/>
                            <path fill="#774A15" d="M85.614 83.338L85.614 96.672 78.133 92.747 78.133 83.338z" transform="translate(-326 -954) translate(326 954) translate(514 275) translate(76.977 94.336)"/>
                            <path fill="#895B1F" d="M88.904 83.338L88.904 94.429 85.649 96.672 85.649 83.338z" transform="translate(-326 -954) translate(326 954) translate(514 275) translate(76.977 94.336)"/>
                            <path fill="#774A15" d="M61.509 99.172L61.509 112.506 54.028 108.578 54.028 99.172z" transform="translate(-326 -954) translate(326 954) translate(514 275) translate(76.977 94.336)"/>
                            <path fill="#895B1F" d="M64.799 99.172L64.799 110.262 61.544 112.506 61.544 99.172z" transform="translate(-326 -954) translate(326 954) translate(514 275) translate(76.977 94.336)"/>
                            <path fill="#774A15" d="M103.069 76.671L103.069 80.406 110.55 84.171 110.55 76.671z" transform="translate(-326 -954) translate(326 954) translate(514 275) translate(76.977 94.336)"/>
                            <path fill="#895B1F" d="M110.585 76.671L110.585 84.171 113.84 82.019 113.84 76.671z" transform="translate(-326 -954) translate(326 954) translate(514 275) translate(76.977 94.336)"/>
                            <path fill="#A8732C" d="M117.2 75.772L61.097 108.339 6.65 76.74 6.65 75.536 62.744 44.169 117.2 74.58z" transform="translate(-326 -954) translate(326 954) translate(514 275) translate(76.977 94.336)"/>
                            <path fill="#E2AC62" d="M117.2 74.107L61.097 106.672 6.65 75.063 62.744 42.502z" transform="translate(-326 -954) translate(326 954) translate(514 275) translate(76.977 94.336)"/>
                            <path fill="#89570E" d="M70.652 46.764L14.296 79.171 14.13 79.084 70.487 46.669zM76.471 50.923L20.118 83.338 19.949 83.247 76.305 50.836zM83.12 55.094L26.76 87.505 26.599 87.41 82.951 55.003zM89.77 57.598L33.409 90.005 33.248 89.906 89.605 57.503zM95.589 61.761L39.236 94.172 39.067 94.089 95.427 61.67zM103.901 66.761L47.544 99.172 47.379 99.069 103.739 66.67zM110.55 70.924L54.198 103.339 54.028 103.244 110.389 70.837z" transform="translate(-326 -954) translate(326 954) translate(514 275) translate(76.977 94.336)"/>
                            <path fill="#774A15" d="M60.678 113.339L60.612 112.064 5.818 80.838 5.827 82.117z" transform="translate(-326 -954) translate(326 954) translate(514 275) translate(76.977 94.336)"/>
                            <path fill="#E8E8E8" d="M62.663 74.913L62.825 74.81 34.611 58.336 6.65 74.617 30.299 88.421 30.132 88.532 58.35 105.006 108.888 74.511z" transform="translate(-326 -954) translate(326 954) translate(514 275) translate(76.977 94.336)"/>
                            <path fill="#E8E8E8" d="M27.43 63.226L55.826 80.004 83.952 63.439 55.564 46.669z" transform="translate(-326 -954) translate(326 954) translate(514 275) translate(76.977 94.336)"/>
                            <path fill="#FFDDA8" d="M76.184 24.994L73.195 23.186 63.868 17.501 39.898 32.101 49.22 37.756 52.218 39.582 62.503 45.836 86.433 31.252 86.445 31.244z" transform="translate(-326 -954) translate(326 954) translate(514 275) translate(76.977 94.336)"/>
                            <path fill="#F9C98A" d="M63.871 16.668L40.729 30.928 62.501 44.169 85.614 30.059z" transform="translate(-326 -954) translate(326 954) translate(514 275) translate(76.977 94.336)"/>
                            <path fill="#BC7C46" d="M62.34 44.221L62.311 75.837 51.674 69.788 48.592 68.025 39.067 62.605 39.067 30.835z" transform="translate(-326 -954) translate(326 954) translate(514 275) translate(76.977 94.336)"/>
                            <path fill="#DDA866" d="M62.373 43.961L62.34 75.004 86.445 61.175 86.445 30.002z" transform="translate(-326 -954) translate(326 954) translate(514 275) translate(76.977 94.336)"/>
                            <path fill="#9B7451" d="M52.77 37.599L52.77 69.17 50.3 67.41 50.3 35.835z" transform="translate(-326 -954) translate(326 954) translate(514 275) translate(76.977 94.336)"/>
                            <path fill="#CAAF8F" d="M77.302 24.984L68.811 29.633 65.764 31.309 53.005 38.285 52.911 38.335 49.872 36.675 49.966 36.62 62.725 29.633 65.764 27.968 74.272 23.335z" transform="translate(-326 -954) translate(326 954) translate(514 275) translate(76.977 94.336)"/>
                            <path fill="#FFDDA8" d="M50.417 38.319L47.424 36.51 38.105 30.835 14.13 45.425 23.449 51.087 26.45 52.904 36.735 59.17 60.662 44.584 60.678 44.576z" transform="translate(-326 -954) translate(326 954) translate(514 275) translate(76.977 94.336)"/>
                            <path fill="#F9C98A" d="M38.935 30.002L15.793 44.255 37.56 57.503 60.678 43.396z" transform="translate(-326 -954) translate(326 954) translate(514 275) translate(76.977 94.336)"/>
                            <path fill="#BC7C46" d="M36.573 57.565L36.548 89.171 25.911 83.119 22.824 81.361 13.299 75.933 13.299 44.169z" transform="translate(-326 -954) translate(326 954) translate(514 275) translate(76.977 94.336)"/>
                            <path fill="#DDA866" d="M34.935 58.966L34.911 90.005 59.016 76.167 59.016 45.002z" transform="translate(-326 -954) translate(326 954) translate(514 275) translate(76.977 94.336)"/>
                            <path fill="#9B7451" d="M25.342 52.608L25.342 84.171 22.868 82.415 22.868 50.836z" transform="translate(-326 -954) translate(326 954) translate(514 275) translate(76.977 94.336)"/>
                            <path fill="#CAAF8F" d="M49.872 40.817L41.381 45.472 38.338 47.139 25.575 54.111 25.485 54.17 22.443 52.506 22.532 52.455 35.3 45.472 38.338 43.8 46.838 39.169z" transform="translate(-326 -954) translate(326 954) translate(514 275) translate(76.977 94.336)"/>
                            <path fill="#E8E8E8" d="M51.535 76.568L79.92 93.338 108.057 76.773 79.663 60.003z" transform="translate(-326 -954) translate(326 954) translate(514 275) translate(76.977 94.336)"/>
                            <path fill="#FFDDA8" d="M99.455 38.317L96.458 36.512 87.14 30.835 63.172 45.425 72.489 51.085 75.486 52.911 85.771 59.17 109.699 44.588 109.719 44.571z" transform="translate(-326 -954) translate(326 954) translate(514 275) translate(76.977 94.336)"/>
                            <path fill="#F9C98A" d="M89.638 30.002L66.496 44.255 88.264 57.503 111.381 43.391z" transform="translate(-326 -954) translate(326 954) translate(514 275) translate(76.977 94.336)"/>
                            <path fill="#BC7C46" d="M85.614 57.559L85.589 89.171 74.95 83.115 71.863 81.361 62.34 75.942 62.34 44.169z" transform="translate(-326 -954) translate(326 954) translate(514 275) translate(76.977 94.336)"/>
                            <path fill="#DDA866" d="M84.799 58.958L84.783 90.005 108.888 76.167 108.888 45.002z" transform="translate(-326 -954) translate(326 954) translate(514 275) translate(76.977 94.336)"/>
                            <path fill="#9B7451" d="M76.045 50.938L76.045 82.504 73.572 80.752 73.572 49.169z" transform="translate(-326 -954) translate(326 954) translate(514 275) translate(76.977 94.336)"/>
                            <path fill="#CAAF8F" d="M99.745 37.48L91.249 42.138 88.211 43.806 75.443 50.778 75.353 50.836 72.315 49.168 72.405 49.114 85.168 42.138 88.211 40.467 96.706 35.835z" transform="translate(-326 -954) translate(326 954) translate(514 275) translate(76.977 94.336)"/>
                            <path fill="#FFDDA8" d="M75.346 52.491L72.369 50.668 63.039 45.002 39.067 59.601 48.384 65.259 51.389 67.085 61.67 73.337 85.598 58.76 85.614 58.743z" transform="translate(-326 -954) translate(326 954) translate(514 275) translate(76.977 94.336)"/>
                            <path fill="#F9C98A" d="M62.206 44.169L39.067 58.431 60.836 71.67 83.952 57.563z" transform="translate(-326 -954) translate(326 954) translate(514 275) translate(76.977 94.336)"/>
                            <path fill="#BC7C46" d="M61.509 75.049L61.48 106.672 50.849 100.62 47.759 98.862 38.235 93.434 38.235 61.67z" transform="translate(-326 -954) translate(326 954) translate(514 275) translate(76.977 94.336)"/>
                            <path fill="#DDA866" d="M60.71 73.117L60.678 104.172 84.783 90.335 84.783 59.17z" transform="translate(-326 -954) translate(326 954) translate(514 275) translate(76.977 94.336)"/>
                            <path fill="#9B7451" d="M51.111 66.771L51.111 98.339 48.634 96.583 48.634 65.003z" transform="translate(-326 -954) translate(326 954) translate(514 275) translate(76.977 94.336)"/>
                            <path fill="#CAAF8F" d="M75.64 52.497L67.147 57.154 64.112 58.822 51.347 65.798 51.253 65.837 48.21 64.184 48.3 64.133 61.073 57.154 64.112 55.481 72.621 50.836z" transform="translate(-326 -954) translate(326 954) translate(514 275) translate(76.977 94.336)"/>
                            <path fill="#E5E0DC" d="M80.627 72.312L69.821 78.337 69.821 69.362 80.627 63.337z" transform="translate(-326 -954) translate(326 954) translate(514 275) translate(76.977 94.336)"/>
                            <path fill="#4F2E16" d="M81.458 66.835L73.146 71.67 73.146 70.672 81.458 65.837z" transform="translate(-326 -954) translate(326 954) translate(514 275) translate(76.977 94.336)"/>
                            <path fill="#B2AEAB" d="M81.458 67.091L73.146 71.67 73.146 71.261 81.458 66.67z" transform="translate(-326 -954) translate(326 954) translate(514 275) translate(76.977 94.336)"/>
                            <path fill="#B2AEAB" d="M81.458 67.081L73.146 71.67 73.146 71.249 81.458 66.67zM81.458 71.244L73.146 75.837 73.146 75.426 81.458 70.837z" transform="translate(-326 -954) translate(326 954) translate(514 275) translate(76.977 94.336)"/>
                            <path fill="#B2AEAB" d="M81.458 71.252L73.146 75.837 73.146 75.422 81.458 70.837z" transform="translate(-326 -954) translate(326 954) translate(514 275) translate(76.977 94.336)"/>
                            <path fill="#E5E0DC" d="M108.888 55.649L98.082 61.67 98.082 52.705 108.888 46.669z" transform="translate(-326 -954) translate(326 954) translate(514 275) translate(76.977 94.336)"/>
                            <path fill="#4F2E16" d="M108.057 50.158L99.745 55.003 99.745 54.01 108.057 49.169z" transform="translate(-326 -954) translate(326 954) translate(514 275) translate(76.977 94.336)"/>
                            <path fill="#B2AEAB" d="M108.057 51.254L99.745 55.836 99.745 55.436 108.057 50.836zM108.057 55.414L99.745 60.003 99.745 59.574 108.057 55.003z" transform="translate(-326 -954) translate(326 954) translate(514 275) translate(76.977 94.336)"/>
                            <path fill="#B2AEAB" d="M108.057 55.42L99.745 60.003 99.745 59.593 108.057 55.003zM108.057 56.247L99.745 60.837 99.745 60.419 108.057 55.836z" transform="translate(-326 -954) translate(326 954) translate(514 275) translate(76.977 94.336)"/>
                            <path fill="#E8E8E8" d="M51.535 44.071L79.92 60.837 108.057 44.284 79.663 27.501z" transform="translate(-326 -954) translate(326 954) translate(514 275) translate(76.977 94.336)"/>
                            <path fill="#FFDDA8" d="M99.455 7.469L96.458 5.669 87.14 0 63.172 14.586 72.489 20.25 75.486 22.067 85.771 28.335 109.699 13.749 109.719 13.736z" transform="translate(-326 -954) translate(326 954) translate(514 275) translate(76.977 94.336)"/>
                            <path fill="#F9C98A" d="M89.638 0L66.496 14.249 88.264 27.501 111.381 13.39z" transform="translate(-326 -954) translate(326 954) translate(514 275) translate(76.977 94.336)"/>
                            <path fill="#BC7C46" d="M85.614 25.896L85.589 57.503 74.95 51.459 71.863 49.684 62.34 44.273 62.34 12.501z" transform="translate(-326 -954) translate(326 954) translate(514 275) translate(76.977 94.336)"/>
                            <path fill="#DDA866" d="M84.799 28.128L84.783 59.17 108.888 45.335 108.888 14.167z" transform="translate(-326 -954) translate(326 954) translate(514 275) translate(76.977 94.336)"/>
                            <path fill="#9B7451" d="M76.045 18.439L76.045 50.003 73.572 48.231 73.572 16.668z" transform="translate(-326 -954) translate(326 954) translate(514 275) translate(76.977 94.336)"/>
                            <path fill="#CAAF8F" d="M99.745 6.642L91.249 11.314 88.211 12.983 75.443 19.951 75.353 20.001 72.315 18.34 72.405 18.294 85.168 11.314 88.211 9.642 96.706 5z" transform="translate(-326 -954) translate(326 954) translate(514 275) translate(76.977 94.336)"/>
                            <path fill="#FFDDA8" d="M75.346 19.996L72.369 18.175 63.039 12.501 39.067 27.105 48.384 32.759 51.389 34.579 61.67 40.835 85.598 26.261 85.614 26.239z" transform="translate(-326 -954) translate(326 954) translate(514 275) translate(76.977 94.336)"/>
                            <path fill="#F9C98A" d="M62.206 12.501L39.067 26.771 60.836 40.002 83.952 25.895z" transform="translate(-326 -954) translate(326 954) translate(514 275) translate(76.977 94.336)"/>
                            <path fill="#BC7C46" d="M61.509 42.554L61.48 74.171 50.849 68.117 47.759 66.358 38.235 60.93 38.235 29.168z" transform="translate(-326 -954) translate(326 954) translate(514 275) translate(76.977 94.336)"/>
                            <path fill="#DDA866" d="M60.71 40.612L60.678 71.67 84.783 57.836 84.783 26.668z" transform="translate(-326 -954) translate(326 954) translate(514 275) translate(76.977 94.336)"/>
                            <path fill="#9B7451" d="M51.111 35.103L51.111 66.67 48.634 64.914 48.634 33.335z" transform="translate(-326 -954) translate(326 954) translate(514 275) translate(76.977 94.336)"/>
                            <path fill="#CAAF8F" d="M75.64 20.828L67.147 25.482 64.112 27.146 51.347 34.122 51.253 34.168 48.21 32.516 48.3 32.462 61.073 25.482 64.112 23.811 72.621 19.168z" transform="translate(-326 -954) translate(326 954) translate(514 275) translate(76.977 94.336)"/>
                            <path fill="#E5E0DC" d="M80.627 40.653L69.821 46.669 69.821 37.704 80.627 31.668z" transform="translate(-326 -954) translate(326 954) translate(514 275) translate(76.977 94.336)"/>
                            <path fill="#4F2E16" d="M81.458 34.335L73.146 39.169 73.146 38.176 81.458 33.335z" transform="translate(-326 -954) translate(326 954) translate(514 275) translate(76.977 94.336)"/>
                            <path fill="#B2AEAB" d="M81.458 37.079L73.146 41.669 73.146 41.258 81.458 36.669z" transform="translate(-326 -954) translate(326 954) translate(514 275) translate(76.977 94.336)"/>
                            <path fill="#B2AEAB" d="M81.458 37.09L73.146 41.669 73.146 41.251 81.458 36.669zM81.458 38.746L73.146 43.336 73.146 42.918 81.458 38.335z" transform="translate(-326 -954) translate(326 954) translate(514 275) translate(76.977 94.336)"/>
                            <path fill="#B2AEAB" d="M81.458 38.753L73.146 43.336 73.146 42.925 81.458 38.335z" transform="translate(-326 -954) translate(326 954) translate(514 275) translate(76.977 94.336)"/>
                        </g>
                        <path fill="#E5E0DC" d="M185.855 118.313L174.759 124.163 174.759 115.451 185.855 109.597z" transform="translate(-326 -954) translate(326 954) translate(514 275)"/>
                        <path fill="#4F2E16" d="M184.468 113.429L176.146 118.614 176.146 117.548 184.468 112.371z" transform="translate(-326 -954) translate(326 954) translate(514 275)"/>
                        <path fill="#B2AEAB" d="M184.468 114.851L176.146 119.308 176.146 118.902 184.468 114.452zM184.468 117.639L176.146 122.082 176.146 121.687 184.468 117.227z" transform="translate(-326 -954) translate(326 954) translate(514 275)"/>
                        <path fill="#B2AEAB" d="M184.468 117.626L176.146 122.082 176.146 121.676 184.468 117.227zM184.468 119.013L176.146 123.47 176.146 123.064 184.468 118.614z" transform="translate(-326 -954) translate(326 954) translate(514 275)"/>
                        <path fill="#E2E7E8" d="M14.91 130.406c-8.242 0-14.91 3.26-14.91 7.29 0 4.017 6.668 7.277 14.91 7.277 8.234 0 14.91-3.26 14.91-7.278 0-4.03-6.676-7.289-14.91-7.289" transform="translate(-326 -954) translate(326 954) translate(514 275)"/>
                        <path fill="#FFCCBC" d="M46.157 107.516c-.321 1.317-.812 1.597.321 2.692.54.532 1.192 1.151 1.82 1.597 1.397.97 3.566.525 5.1-.08-.994-1.298-2.065-2.544-3.395-3.632l-3.846-.577z" transform="translate(-326 -954) translate(326 954) translate(514 275)"/>
                        <path fill="#05CE7C" d="M45.12 97.968c-2.114-1.628-1.74-.568-4.383.165-1.782.491-2.512 2.139-1.313 4.193 1.543 2.647 6.695 10.635 9.023 11.433.955-1.056 2.26-1.938 3.27-1.922l.286-.068c.21-1.684-3.454-7.626-4.128-9.169-1.279-2.92-.972-3.259-2.754-4.632" transform="translate(-326 -954) translate(326 954) translate(514 275)"/>
                        <path fill="#05CE7C" d="M45.976 84.455c-.783-2.26-5.756-4.448-7.826-2.613-.997.202-2.72 3.386-1.852 5.377-.31 6.465 3.511 13.203 3.511 13.203s6.925 1.121 6.59-2.622c-.34-3.742 2.154-5.927-.423-13.345" transform="translate(-326 -954) translate(326 954) translate(514 275)"/>
                        <path fill="#000" d="M33.214 132.073c-3.774-.54-4.86-3.054-4.86-3.054l-5.366 1.836c-.328 3.01.234 4.323.234 4.323l.154.746s2.13.487 3.335.368c1.413-.134 2.81.306 5.247.35 2.43.035 5.067-.009 5.406-1.23.37-1.333-.381-2.808-4.15-3.34" transform="translate(-326 -954) translate(326 954) translate(514 275)"/>
                        <path fill="#030B0D" d="M28.887 111.203c.236-4.573.259-23.435-1.866-27.895-2.125-4.427-6.414 2.472-10.064 4.322l-1.007 1.097c.26 4.286 1.742 5.222 2.888 9.363.797 2.859 2.202 8.875 1.726 11.814-.735 4.553-1.63 7.476.604 20.516 3.434 2.573 6.352 1.052 7.959-.67-2.578-10.2-.33-16.77-.24-18.547" transform="translate(-326 -954) translate(326 954) translate(514 275)"/>
                        <path fill="#000" d="M5.84 133.48c.15-1.811-1.258-1.463-2.452-1.687l-3.002.426c-.994 3.464-.133 11.695 3.335 12.633 1.076.275 3.856.142 4.384-1.058.865-1.98-1.076-4.535-2.035-6.562-.605-1.265-.352-2.388-.23-3.752" transform="translate(-326 -954) translate(326 954) translate(514 275)"/>
                        <path fill="#0B242E" d="M4.216 106.49c-.59 4.384-2.275 8.54-3.08 12.892-.721 3.869-1.644 10.609-.798 16.147 1.032 1.444 6.671 1.288 8.384.667-.632-3.902-.304-6.504-.275-7.538.133-5.01.558-8.557 2.61-13.158 2.272-5.055 4.154-9.873 4.96-15.42.34-2.294 1.279-6.621 2.016-10.175 1.862-1.738 4.521-4.017 5.748-6.597.174-2.95.514-4.704.49-7.007L6.248 85.447s-1.412 16.417-2.032 21.043" transform="translate(-326 -954) translate(326 954) translate(514 275)"/>
                        <path fill="#202427" d="M54.179 112.454c-.356-.126-.935-.073-1.32-.065-.097 0-.194.004-.295.019-.858.088-2.696 1.126-2.631 1.351.19.66.68 1.272 1.449 1.848.417.329.898.752 1.247.924-.425.695-.709 1.44-.434 2.058.122.286 1.7.649 2.623 1.092.016-.008.025-.035.033-.035.158.164.364.317.457.355.478-.255.919-.557 1.409-.798.473-.24 1.068-.465 1.453-.813-.15-.397-.199-.828-.3-1.233-.077-.313-.239-.53-.405-.748.008-.023.34.355.636.523.651.374 1.518 2.119 2.772 1.909.025-.042.114-.134.154-.153-.757-1.08-1.663-2.752-2.716-3.58-.368-.302-3.096-2.295-4.132-2.654" transform="translate(-326 -954) translate(326 954) translate(514 275)"/>
                        <path fill="#05CE7C" d="M32.923 76.932c-4.862-2.385-8.94-4.876-12.549-6.401-5.545-2.345-15.299 4.48-10.98 10.74 1.361 1.965 4.16 1.99 5.644 3.959 2.227 2.976 1.757 7.224 4.531 10.083 2.914 3 6.248 2.952 9.493 1.63.846-.317 1.692-.737 2.513-1.214 2.537-1.423 4.907-3.328 6.906-4.779 8.462-6.14 1.185-10.666-5.558-14.018" transform="translate(-326 -954) translate(326 954) translate(514 275)"/>
                        <path fill="#0B242E" d="M10.883 72.272c-4.368 2.256-6.746 5.496-6.722 11.573.012 2.937.117 5.882.065 8.818 2.619.52 5.178.455 7.06-1.25 1.281-1.162.266-6.429 2.277-6.409 1.83-6.757 7.669-9.014 14.87-10.779l-4.916-2.592c-4.84-1.737-6.255-2.67-12.634.639" transform="translate(-326 -954) translate(326 954) translate(514 275)"/>
                        <path fill="#0B242E" d="M23.169 81.176c-2.49-1.599-5.048-3.018-7.373-4.875l-.54 3.754c7.229 3.634 17.372 7.24 14.805 16.362.88-.318 1.76-.738 2.614-1.215.854-1.734.756-4.006.072-5.765-1.39-3.614-6.45-6.29-9.578-8.26M25.563 71.446c-.198.055-.395.115-.597.17l1.46 1.334c7.688 5.01 18.42 7.607 15.423 16.53 9.086-6.437-8.597-13.76-16.286-18.034" transform="translate(-326 -954) translate(326 954) translate(514 275)"/>
                        <path fill="#F2B09E" d="M40.348 88.093c-.458 0-.953.1-1.485.297-1.976.737-2.81 2.523-1.418 4.432 1.202 1.646 6.234 5.028 6.885 1.01.23-1.388-.313-2.765-1.065-3.895-.8-1.188-1.749-1.832-2.917-1.844" transform="translate(-326 -954) translate(326 954) translate(514 275)"/>
                        <path fill="#F2B09E" d="M44.97 95.815c-1.527.17-2.408-.055-3.676-.946-1.102-.762.282-2.393-.808-3.25-.294-.234-6.14-.127-2.591 7.83 1.388 3.1 6.345 6.214 9.465 5.038 2.166-.81 3.41-5.473 1.918-7.901-.978-1.58-2.88-.933-4.307-.771" transform="translate(-326 -954) translate(326 954) translate(514 275)"/>
                        <path fill="#38201C" d="M43.825 89.729c-.076-.042-.156-.063-.236-.094-.717.031-1.435.156-2.115.385l2.351-.291z" transform="translate(-326 -954) translate(326 954) translate(514 275)"/>
                        <path fill="#38201C" d="M43.346 89.766c.092.043.183.069.271.117l-2.7.364c.778-.286 1.603-.438 2.429-.481-3.426-1.537-7.397 3.48-6.448 6.974 1.18 4.357 6.185 6.418 9.806 4.518 2.942-1.532 4.23-5.668 2.336-8.71-1.316-2.114-3.505-2.89-5.694-2.782" transform="translate(-326 -954) translate(326 954) translate(514 275)"/>
                        <path fill="#F2B09E" d="M36.328 96.14c-.128.035.143.947.313 1.242.235.406.42.69.683.912 1.619 1.363 2.215-.163 1.882-.878-.402-.863-1.84-1.564-2.878-1.276" transform="translate(-326 -954) translate(326 954) translate(514 275)"/>
                        <path fill="#FFDDA8" d="M52.148 110.018L43.956 105.435 22.885 117.224 31.072 121.796 33.715 123.269 42.75 128.325 63.785 116.544 63.801 116.536 54.775 111.484z" transform="translate(-326 -954) translate(326 954) translate(514 275)"/>
                        <path fill="#F9C98A" d="M24.966 117.302L44.474 128.325 65.188 116.584 45.704 105.435z" transform="translate(-326 -954) translate(326 954) translate(514 275)"/>
                        <path fill="#BC7C46" d="M21.498 143.265L29.726 147.94 32.393 149.467 41.581 154.684 41.609 127.401 21.498 115.839z" transform="translate(-326 -954) translate(326 954) translate(514 275)"/>
                        <path fill="#DDA866" d="M42.303 154.684L63.801 142.75 63.801 115.839 42.332 127.882z" transform="translate(-326 -954) translate(326 954) translate(514 275)"/>
                        <path fill="#9B7451" d="M33.196 148.286L35.46 149.828 35.46 122.246 33.196 120.695z" transform="translate(-326 -954) translate(326 954) translate(514 275)"/>
                        <path fill="#CAAF8F" d="M45.275 113.675L42.581 115.143 31.289 121.269 31.207 121.316 33.9 122.776 33.983 122.729 45.275 116.61 47.96 115.143 55.479 111.049 52.794 109.597z" transform="translate(-326 -954) translate(326 954) translate(514 275)"/>
                        <path fill="#202427" d="M32.475 123.081c.542-.717.472-.468 1.336-.65.665-.139 2.376-.932 1.603-1.979-1.93.924-2.72-.464-4.344-.371-.905.05-1.67.422-2.533.333-.211-.02-.554.178-.711.055-.637-.506-1.583-.667-2.468-.152-.041.03-.09.05-.14.089-.224.16-.467.523-.6.776-.926 1.925.22 2.457.947 3.415.516.68.59 1.696.921 2.51.017.056.05.085.07.144.666 1.929 2.427 3.267 3.708 4.65.41.453.926.782 1.521.946.352.093.724.207 1.05.334.397-.768-.632-1.469-.942-1.891l-.009-.008c.265.092.534.19.794.274.335.105 2.439.865 3.026.979.165-.055.252-.38.268-.7.079.025.132.063.17.092.38.266.992.173.897-.456-.17-1.071-.773-1.662-1.278-2.414.88.296 1.629.49 1.687.296.066-1.798-4.344-4.706-4.973-6.272" transform="translate(-326 -954) translate(326 954) translate(514 275)"/>
                        <path fill="#05CE7C" d="M25.216 90.868c-1.584.325-2.855-.053-4.253 2.624-2.985 6.257-5.297 12.46-4.984 16.248.213 2.542 1.6 5.405 3.444 8.206 1.845 2.798 5.242 6.91 5.242 6.91s1.034-3.5 3.468-4.483c.123-2.225-2.197-9.053-3.325-11.817 1.983-3.842 3.314-9.506 3.686-10.14 1.801-3.068-.543-7.47-3.278-7.548" transform="translate(-326 -954) translate(326 954) translate(514 275)"/>
                        <path fill="#8A6B27" d="M41.87 86.036c-2.611.377-4.214 5.027-3.595 10.364.614 5.36 3.24 9.387 5.847 9.01 2.61-.363 4.217-5.013 3.595-10.368-.626-5.346-3.237-9.378-5.848-9.006" transform="translate(-326 -954) translate(326 954) translate(514 275)"/>
                        <path fill="#E8B034" d="M51.87 94.183c-.027-.23-.097-.49-.172-.724-.201-.62-.504-1.2-.859-1.728-.1-.17-.228-.32-.333-.45-.974-1.262-2.386-2.22-3.93-2.744-.25-.07-.478-.156-.728-.227-.885-.189-1.762-.274-2.622-.174H43.2c-.18.026-.36.067-.53.134-.68.237-1.334.768-1.843 1.537-.048.067-.1.112-.122.171-.908 1.404-1.39 3.458-1.084 5.769.176 1.259.4 2.41.755 3.417.052.081.074.17.1.249.351.835.728 1.56 1.237 2.094.07.09.154.156.228.216.07.089.127.156.224.215l.026.015c.053.048.101.067.154.108.627.453 1.355.668 2.219.58 1.105-.086 2.113-.361 3.021-.792.154-.037.28-.126.43-.186 2.824-1.519 4.333-4.45 3.933-7.094-.021-.126-.021-.271-.078-.386" transform="translate(-326 -954) translate(326 954) translate(514 275)"/>
                        <path fill="#8A6B27" d="M41.334 88.787c-.042.072-.08.116-.097.184 1.532 1.01 2.628 3.763 2.628 7.027 0 2.361-.576 4.458-1.474 5.837l.021.016c.038.052.08.072.121.115.933-1.418 1.53-3.559 1.53-5.968 0-3.332-1.138-6.156-2.73-7.21M44.623 88.093c1.654 1.403 2.79 4.527 2.79 8.159 0 2.505-.54 4.774-1.417 6.408.121-.044.222-.14.34-.204.78-1.63 1.276-3.791 1.276-6.204 0-3.348-.978-6.289-2.414-7.91-.197-.08-.378-.173-.575-.249" transform="translate(-326 -954) translate(326 954) translate(514 275)"/>
                    </g>
                </g>
            </g>
        </g>
    </g>
</svg>
