<svg xmlns="http://www.w3.org/2000/svg" width="19" height="19" viewBox="0 0 19 19">
    <g fill="none" fill-rule="evenodd">
        <g fill="#05CE7C" fill-rule="nonzero">
            <g>
                <path d="M2.152 0C.963 0 0 .963 0 2.152V9h9V0H2.152zm3.522 5.283H4.89v.782c0 .324-.263.587-.587.587-.324 0-.587-.263-.587-.587v-.782h-.782c-.324 0-.587-.263-.587-.587 0-.324.263-.587.587-.587h.782v-.783c0-.324.263-.587.587-.587.324 0 .587.263.587.587v.783h.783c.324 0 .587.263.587.587 0 .324-.263.587-.587.587zM0 10v6.848C0 18.037.963 19 2.152 19H9v-9H0zm5.893 5.063c.23.23.23.602 0 .83-.114.115-.264.172-.415.172-.15 0-.3-.057-.415-.172L4.5 15.33l-.563.563c-.115.114-.265.172-.415.172-.15 0-.3-.057-.415-.172-.23-.23-.23-.601 0-.83l.563-.564-.563-.563c-.23-.23-.23-.601 0-.83.23-.23.601-.23.83 0l.564.563.563-.564c.23-.229.601-.229.83 0 .23.23.23.601 0 .83l-.563.564.562.564zM16.848 0H10v9h9V2.152C19 .963 18.037 0 16.848 0zm-.391 5.087h-3.522c-.324 0-.587-.263-.587-.587 0-.324.263-.587.587-.587h3.522c.324 0 .586.263.586.587 0 .324-.262.587-.586.587zM10 10v9h6.848C18.037 19 19 18.037 19 16.848V10h-9zm6.26 6.26h-3.52c-.325 0-.588-.262-.588-.586 0-.324.263-.587.587-.587h3.522c.324 0 .587.263.587.587 0 .324-.263.587-.587.587zm0-2.347h-3.52c-.325 0-.588-.263-.588-.587 0-.324.263-.587.587-.587h3.522c.324 0 .587.263.587.587 0 .324-.263.587-.587.587z" transform="translate(-815 -96) translate(815 96)"/>
            </g>
        </g>
    </g>
</svg>
