<svg xmlns="http://www.w3.org/2000/svg" width="22" height="22" viewBox="0 0 22 22">
    <g fill="none" fill-rule="evenodd">
        <g fill="#05CE7C">
            <g>
                <g>
                    <path d="M14.289 1.807c.684 1.43 1.061 3.307 1.061 5.283 0 .306-.009.61-.026.91h3.618c.038-.288.058-.58.058-.877C19 3.739 16.458.879 13 0c.45.406.895.985 1.289 1.807zM6.676 8c-.017-.3-.027-.604-.027-.91 0-1.976.378-3.852 1.062-5.283C8.105.985 8.551.406 9 0 5.542.879 3 3.74 3 7.123c0 .297.02.59.058.877h3.618zM14 7.056C14 3.159 12.657 0 11 0S8 3.159 8 7.056c0 .32.01.635.027.944h5.946c.018-.309.027-.624.027-.944z" transform="translate(-463 -247) translate(463 247)"/>
                    <path fill-rule="nonzero" d="M0 10v12h22V10H0zm6.171 9.064H3.167v-6.092h1.289v4.815h1.715v1.277zm1.078 0v-6.092h1.289v6.092H7.249zm4.299 0l-2.125-6.092h1.364l1.319 3.78 1.268-3.78h1.358l-2.043 6.092h-1.141zm7.285-4.807h-2.045v1.127h1.894v1.276h-1.894v1.127h2.045v1.277H15.5V12.98h3.334v1.276z" transform="translate(-463 -247) translate(463 247)"/>
                </g>
            </g>
        </g>
    </g>
</svg>
