<svg xmlns="http://www.w3.org/2000/svg" width="50" height="52" viewBox="0 0 50 52">
    <g fill="none" fill-rule="evenodd">
        <g>
            <g>
                <g fill="#E8B034" transform="translate(-622 -519) translate(622 519) translate(4.63 13.889)">
                    <ellipse cx="2.793" cy="14.558" rx="2.793" ry="2.912"/>
                    <ellipse cx="31.922" cy="9.982" rx="9.577" ry="9.982"/>
                </g>
                <g fill="#000">
                    <path fill-rule="nonzero" d="M45.968 0H26.613C24.39 0 22.58 1.876 22.58 4.182v37.634h1.613V6.691h24.193v35.125H50V4.182C50 1.876 48.191 0 45.968 0zM24.194 5.018v-.836c0-1.384 1.085-2.51 2.419-2.51h19.355c1.334 0 2.42 1.126 2.42 2.51v.836H24.193zM22.58 47.67c0 2.306 1.81 4.182 4.033 4.182h19.355c2.223 0 4.032-1.876 4.032-4.182V43.49H22.58v4.181zm1.614-2.509h24.193v2.51c0 1.383-1.085 2.508-2.42 2.508H26.614c-1.334 0-2.42-1.125-2.42-2.509v-2.509z" transform="translate(-622 -519) translate(622 519)"/>
                    <path d="M32.258 46.834H40.323V48.507000000000005H32.258zM9.245 10.29L8.134 21.815l-3.05.316C2.184 22.433 0 24.938 0 27.958v7.167h1.613v-7.167c0-2.157 1.561-3.946 3.63-4.16l4.364-.453 1.243-12.888c.207-2.147 1.933-3.766 4.013-3.766h6.105V5.018h-6.105c-2.912 0-5.328 2.266-5.618 5.271z" transform="translate(-622 -519) translate(622 519)"/>
                    <path fill-rule="nonzero" d="M0 39.307v3.345c0 1.384 1.085 2.51 2.42 2.51h.806v4.18c0 1.384 1.085 2.51 2.42 2.51h4.838c1.334 0 2.42-1.126 2.42-2.51v-4.18h8.064v-1.673H2.419c-.444 0-.806-.375-.806-.837v-3.345c0-.462.362-.836.806-.836h18.549v-1.673H2.419C1.085 36.798 0 37.924 0 39.307zm11.29 7.527H9.677v1.673h1.613v.836c0 .462-.362.836-.806.836H5.645c-.444 0-.806-.374-.806-.836v-.836h1.613v-1.673H4.839V45.16h6.451v1.673z" transform="translate(-622 -519) translate(622 519)"/>
                    <path d="M12.768 10.635l-1.174 12.782h9.374v-1.673h-7.6l1.006-10.951c.039-.432.384-.757.802-.757h5.792V8.363h-5.792c-1.254 0-2.29.976-2.408 2.272zM14.262 32.766l-1.372-7.825-1.587.298 1.372 7.827c.21 1.193 1.211 2.06 2.38 2.06h5.913v-1.673h-5.912c-.39 0-.724-.29-.794-.687z" transform="translate(-622 -519) translate(622 519)"/>
                    <path fill-rule="nonzero" d="M10.484 28.853c0-2.075-1.628-3.763-3.63-3.763-2 0-3.628 1.688-3.628 3.763s1.628 3.763 3.629 3.763c2 0 3.629-1.688 3.629-3.763zm-5.645 0c0-1.153.905-2.09 2.016-2.09s2.016.937 2.016 2.09c0 1.153-.905 2.09-2.016 2.09s-2.016-.937-2.016-2.09zM46.774 24.253c0-5.994-4.703-10.872-10.484-10.872-5.78 0-10.484 4.878-10.484 10.872 0 5.995 4.704 10.872 10.484 10.872 5.781 0 10.484-4.877 10.484-10.872zm-19.355 0c0-5.072 3.98-9.2 8.871-9.2s8.871 4.128 8.871 9.2c0 5.073-3.98 9.2-8.87 9.2-4.892 0-8.872-4.127-8.872-9.2z" transform="translate(-622 -519) translate(622 519)"/>
                    <path d="M37.097 31.78v-1.672c1.779 0 3.226-1.5 3.226-3.346 0-1.845-1.447-3.345-3.226-3.345h-1.613c-.89 0-1.613-.75-1.613-1.673 0-.922.723-1.672 1.613-1.672h1.613c.89 0 1.613.75 1.613 1.672v.837h1.613v-.837c0-1.845-1.447-3.345-3.226-3.345v-1.673h-1.613V18.4c-1.78 0-3.226 1.5-3.226 3.345 0 1.845 1.447 3.346 3.226 3.346h1.613c.89 0 1.613.75 1.613 1.672 0 .923-.724 1.673-1.613 1.673h-1.613c-.89 0-1.613-.75-1.613-1.673v-.836h-1.613v.836c0 1.845 1.447 3.346 3.226 3.346v1.672h1.613z" transform="translate(-622 -519) translate(622 519)"/>
                </g>
                <g fill="#E56565">
                    <path d="M0 0H1.638V1.688H0zM3.276 0H4.914V1.688H3.276zM6.553 0H8.190999999999999V1.688H6.553zM13.105 27.015H14.743V28.703H13.105zM16.382 27.015H18.020000000000003V28.703H16.382zM19.658 27.015H21.296V28.703H19.658z" transform="translate(-622 -519) translate(622 519) translate(25.926 10.185)"/>
                </g>
            </g>
        </g>
    </g>
</svg>
