<svg xmlns="http://www.w3.org/2000/svg" width="21" height="22" viewBox="0 0 21 22">
    <g fill="none" fill-rule="evenodd">
        <g fill="#05CE7C">
            <g>
                <path d="M9.188 0L11.813 0 11.813 3.882 9.188 3.882zM9.188 5.176L11.813 5.176 11.813 7.765 9.188 7.765z" transform="translate(-938 -109) translate(938 109)"/>
                <path d="M1.313 5.176v7.893c.425.098.827.355 1.142.767L4.719 16.8l.018.023v-.604c0-1.269.856-2.301 1.907-2.301h3.171c.394.053 1.437-.666 1.796-.839 1.526-.856 3.263-.822 4.766.093l.914.56c.256-.991.99-1.71 1.855-1.71h.541V5.176H13.31V8.21c0 .457-.307.827-.686.827H8.297c-.38 0-.686-.37-.686-.827V5.176H1.313zM13.125 3.882h6.563V1.036c0-.572-.365-1.036-.814-1.036h-5.749v3.882zM19.054 14.235c-.374 0-.679.318-.679.71v6.346c0 .391.305.709.679.709h1.267c.374 0 .679-.318.679-.709v-6.347c0-.39-.305-.709-.679-.709h-1.267zM7.875 0H1.997c-.378 0-.685.386-.685.861v3.021h6.563V0z" transform="translate(-938 -109) translate(938 109)"/>
                <path d="M1.237 14.972c-.61-.641-1.646.197-1.067.944l3.105 3.966C4.329 21.228 5.883 22 7.539 22h3.512c1.304 0 2.608-.161 3.876-.48l2.136-.538v-5.507l-1.444-.773c-1.13-.6-2.437-.623-3.586-.06l-1.227.601c-.36.177-.761.27-1.158.27H6.46c-.297 0-.539.255-.539.568v1.1h6.19c.381 0 .69.325.69.726 0 .401-.309.727-.69.727H5.803c-.8.01-1.718-.385-2.29-1.059l-2.276-2.603z" transform="translate(-938 -109) translate(938 109)"/>
            </g>
        </g>
    </g>
</svg>
