<svg width="34" height="24" viewBox="0 0 34 24" fill="none" xmlns="http://www.w3.org/2000/svg">
<g clip-path="url(#clip0_2925_8793)">
<path d="M0 0H33.2224V23.3196H0V0Z" fill="white"/>
<path fill-rule="evenodd" clip-rule="evenodd" d="M32.7433 0.47917H0.47917V22.8404H32.7433V0.47917ZM0 0V23.3196H33.2224V0H0Z" fill="#05CE7C"/>
<path d="M0 17.4897H33.2224V20.4047H0V17.4897Z" fill="#05CE7C"/>
<path fill-rule="evenodd" clip-rule="evenodd" d="M33.0627 17.6495H0.159723V20.245H33.0627V17.6495ZM0 17.4897V20.4047H33.2224V17.4897H0Z" fill="#05CE7C"/>
<path d="M0 11.6598H33.2224V14.5747H0V11.6598Z" fill="#05CE7C"/>
<path fill-rule="evenodd" clip-rule="evenodd" d="M33.0627 11.8195H0.159723V14.415H33.0627V11.8195ZM0 11.6598V14.5747H33.2224V11.6598H0Z" fill="#05CE7C"/>
<path d="M0 5.82996H33.2224V8.74491H0V5.82996Z" fill="#05CE7C"/>
<path fill-rule="evenodd" clip-rule="evenodd" d="M33.0627 5.98968H0.159723V8.58518H33.0627V5.98968ZM0 5.82996V8.74491H33.2224V5.82996H0Z" fill="#05CE7C"/>
<path d="M0 0H33.2224V2.91495H0V0Z" fill="#05CE7C"/>
<path fill-rule="evenodd" clip-rule="evenodd" d="M33.0627 0.159723H0.159723V2.75523H33.0627V0.159723ZM0 0V2.91495H33.2224V0H0Z" fill="#05CE7C"/>
<path d="M0 0H15.4247V11.6598H0V0Z" fill="white"/>
<path fill-rule="evenodd" clip-rule="evenodd" d="M14.9455 0.47917H0.47917V11.1806H14.9455V0.47917ZM0 0V11.6598H15.4247V0H0Z" fill="#05CE7C"/>
<path d="M2.37281 1.16602L2.63904 1.972H3.50149L2.80367 2.46973L3.06989 3.27498L2.37281 2.77725L1.67499 3.27498L1.94196 2.46973L1.24414 1.972H2.10659L2.37281 1.16602Z" fill="#05CE7C"/>
<path d="M2.37281 4.66394L2.63904 5.46992H3.50149L2.80367 5.96765L3.06989 6.77291L2.37281 6.27518L1.67499 6.77291L1.94196 5.96765L1.24414 5.46992H2.10659L2.37281 4.66394Z" fill="#05CE7C"/>
<path d="M2.37281 8.16187L2.63904 8.96785H3.50149L2.80367 9.46558L3.06989 10.2708L2.37281 9.7731L1.67499 10.2708L1.94196 9.46558L1.24414 8.96785H2.10659L2.37281 8.16187Z" fill="#05CE7C"/>
<path d="M5.93336 1.16602L6.19958 1.972H7.06129L6.36421 2.46973L6.63044 3.27498L5.93336 2.77725L5.23554 3.27498L5.50251 2.46973L4.80469 1.972H5.66714L5.93336 1.16602Z" fill="#05CE7C"/>
<path d="M5.93336 4.66394L6.19958 5.46992H7.06129L6.36421 5.96765L6.63044 6.77291L5.93336 6.27518L5.23554 6.77291L5.50251 5.96765L4.80469 5.46992H5.66714L5.93336 4.66394Z" fill="#05CE7C"/>
<path d="M5.93336 8.16187L6.19958 8.96785H7.06129L6.36421 9.46558L6.63044 10.2708L5.93336 9.7731L5.23554 10.2708L5.50251 9.46558L4.80469 8.96785H5.66714L5.93336 8.16187Z" fill="#05CE7C"/>
<path d="M9.49195 1.16602L9.75818 1.972H10.6199L9.92281 2.46973L10.189 3.27498L9.49195 2.77725L8.79413 3.27498L9.0611 2.46973L8.36328 1.972H9.22573L9.49195 1.16602Z" fill="#05CE7C"/>
<path d="M9.49195 4.66394L9.75818 5.46992H10.6199L9.92281 5.96765L10.189 6.77291L9.49195 6.27518L8.79413 6.77291L9.0611 5.96765L8.36328 5.46992H9.22573L9.49195 4.66394Z" fill="#05CE7C"/>
<path d="M9.49195 8.16187L9.75818 8.96785H10.6199L9.92281 9.46558L10.189 10.2708L9.49195 9.7731L8.79413 10.2708L9.0611 9.46558L8.36328 8.96785H9.22573L9.49195 8.16187Z" fill="#05CE7C"/>
<path d="M13.0525 1.16602L13.3187 1.972H14.1804L13.4834 2.46973L13.7496 3.27498L13.0525 2.77725L12.3547 3.27498L12.6216 2.46973L11.9238 1.972H12.7863L13.0525 1.16602Z" fill="#05CE7C"/>
<path d="M13.0525 4.66394L13.3187 5.46992H14.1804L13.4834 5.96765L13.7496 6.77291L13.0525 6.27518L12.3547 6.77291L12.6216 5.96765L11.9238 5.46992H12.7863L13.0525 4.66394Z" fill="#05CE7C"/>
<path d="M13.0525 8.16187L13.3187 8.96785H14.1804L13.4834 9.46558L13.7496 10.2708L13.0525 9.7731L12.3547 10.2708L12.6216 9.46558L11.9238 8.96785H12.7863L13.0525 8.16187Z" fill="#05CE7C"/>
</g>
<defs>
<clipPath id="clip0_2925_8793">
<rect width="33.2224" height="23.3196" fill="white"/>
</clipPath>
</defs>
</svg>
