<svg xmlns="http://www.w3.org/2000/svg" xmlns:xlink="http://www.w3.org/1999/xlink" width="599" height="603" viewBox="0 0 599 603">
    <defs>
        <path id="lx1d4gxpba" d="M18.641 6.547c-6.436 2.999-11.1 6.75-13.953 10.837-1.711 2.07-2.932 4.246-3.656 6.468 0 0-.623 7.945-.54 8.542-.48 6.402 3.081 12.921 10.914 18.244 16.807 11.42 46.892 13.01 67.195 3.55 9.255-4.313 14.867-10.177 16.659-16.36.894-1.939 1.836-9.538 1.508-11.343-.272-5.793-3.853-11.579-10.932-16.389C76.402 3.686 62.786.373 49.063.373c-10.724 0-21.515 2.024-30.422 6.174"/>
        <path id="jltiy2f0ic" d="M12.558 4.91c-14.397 6.734-16.407 18.784-4.49 26.912 11.917 8.13 33.249 9.26 47.646 2.526 14.396-6.733 16.406-18.783 4.49-26.91C53.513 2.873 43.858.515 34.13.515c-7.605 0-15.256 1.44-21.572 4.394"/>
        <path id="z1t859q6je" d="M34.315 2.277L25.29.884l-5.194 1.393-3.814.629-.054 4.428c-.017.198-.019.398-.008.6v.009c.125 2.137 1.702 4.407 2.306 6.23l-3.205.643-5.352-1.369 1.454 1.86-1.438.006c-1.081-1.114-1.665-2.445-1.97-4.101l-2.839.17-4.103-3.781v4.026c.016 1.302.61 2.69 1.513 3.973l-2.064.672v4.027l3.947 2.654 4.557-2.277c5.156 2.338 10.557 2.168 14.765.066 2.28-1.14 3.114-2.493 3.206-3.901h.001v-.018c.01-.172.01-.346 0-.52v-3.492l-1.085.127c-1.189-2.4-2.667-4.52-.685-5.51 1.973-.985 3.864-.69 5.818.624 1.708 1.149 2.225 2.37 2.244 4.078l6.693.186c.056-.524.06-1.047 0-1.57V8.288l-1.048-2.558 3.002-1.5V.203l-7.622 2.074zm-15.56 12.998c.035.756-.26 1.385-1.141 1.826-1.505.752-3.014.842-4.63.202l-1.56-1.997 7.33-.031z"/>
        <path id="xb1vv0c8yg" d="M18.641 6.817c-6.436 2.999-11.1 6.75-13.953 10.837-1.711 2.071-2.932 4.246-3.656 6.468 0 0-.623 7.946-.54 8.542-.48 6.402 3.081 12.921 10.914 18.245 16.807 11.42 46.892 13.008 67.195 3.548 9.255-4.311 14.867-10.175 16.659-16.36.894-1.939 1.836-9.537 1.508-11.342-.272-5.793-3.853-11.58-10.932-16.39C76.402 3.956 62.788.644 49.064.644 38.34.644 27.548 2.668 18.641 6.817"/>
        <path id="vqju5gzl9i" d="M12.558 4.463c-14.397 6.735-16.407 18.783-4.49 26.912 11.917 8.13 33.249 9.26 47.646 2.527C70.11 27.167 72.12 15.118 60.204 6.99 53.513 2.427 43.858.07 34.13.07c-7.605 0-15.256 1.44-21.572 4.393"/>
        <path id="r5bslw2m4k" d="M34.315 2.581l-9.025-1.41-5.194 1.41-3.814.636-.054 4.481c-.017.2-.019.403-.008.605v.01c.125 2.163 1.702 4.46 2.306 6.305l-3.205.65-5.352-1.386 1.454 1.883-1.438.007c-1.081-1.128-1.665-2.476-1.97-4.15l-2.839.17-4.103-3.824v4.074c.016 1.317.61 2.722 1.513 4.02l-2.064.68v4.074l3.947 2.687 4.557-2.304c5.156 2.365 10.557 2.192 14.765.066 2.28-1.153 3.114-2.522 3.206-3.947h.001V17.3c.01-.175.01-.35 0-.526v-3.535l-1.085.129c-1.189-2.428-2.667-4.573-.685-5.575 1.973-.997 3.864-.698 5.818.632 1.708 1.162 2.225 2.398 2.244 4.126l6.693.189c.056-.531.06-1.06 0-1.59V8.663l-1.048-2.59 3.002-1.516V.482l-7.622 2.1zm-15.56 13.152c.035.766-.26 1.402-1.141 1.847-1.505.762-3.014.851-4.63.205l-1.56-2.02 7.33-.032z"/>
        <path id="pj2vc9y7em" d="M18.641 6.453c-6.436 3.034-11.1 6.83-13.953 10.964-1.711 2.095-2.932 4.297-3.656 6.545 0 0-.623 8.037-.54 8.643-.48 6.477 3.081 13.072 10.914 18.458 16.807 11.554 46.892 13.161 67.195 3.59 9.255-4.362 14.867-10.294 16.659-16.552.894-1.962 1.836-9.65 1.508-11.476-.272-5.86-3.853-11.716-10.932-16.582C76.402 3.557 62.788.206 49.064.207c-10.724 0-21.516 2.047-30.423 6.246"/>
        <path id="o4suke4rfo" d="M12.558 4.74c-14.397 6.732-16.407 18.78-4.49 26.91 11.917 8.129 33.249 9.26 47.646 2.526 14.396-6.734 16.406-18.783 4.49-26.912C53.513 2.702 43.858.344 34.13.344c-7.605 0-15.256 1.44-21.572 4.395"/>
        <path id="d41e2zbrtq" d="M34.315 2.104L25.29.713l-5.194 1.391-3.814.63-.054 4.428c-.017.199-.019.399-.008.6V7.77c.125 2.137 1.702 4.407 2.306 6.23l-3.205.644-5.352-1.37 1.454 1.86-1.438.006c-1.081-1.115-1.665-2.446-1.97-4.102l-2.839.17-4.103-3.78v4.027c.016 1.302.61 2.69 1.513 3.972L.522 16.1v4.027l3.947 2.655 4.557-2.277c5.156 2.337 10.557 2.167 14.765.065 2.28-1.14 3.114-2.493 3.206-3.9h.001v-.019c.01-.171.01-.345 0-.52V12.64l-1.085.125c-1.189-2.398-2.667-4.517-.685-5.509 1.973-.986 3.864-.69 5.818.624 1.708 1.15 2.225 2.37 2.244 4.079l6.693.186c.056-.524.06-1.049 0-1.571V8.118l-1.048-2.56 3.002-1.5V.032l-7.622 2.072zm-15.56 13c.035.755-.26 1.385-1.141 1.825-1.505.752-3.014.841-4.63.202l-1.56-1.996 7.33-.031z"/>
        <path id="7e6jvdpafs" d="M0 0.551L24.724 0.551 24.724 90.323 0 90.323z"/>
        <path id="0fzb3mijxu" d="M0.306 0.504L16.078 0.504 16.078 15.654 0.306 15.654z"/>
        <path id="dqdjpxxjnw" d="M0.339 0.071L18.177 0.071 18.177 13.083 0.339 13.083z"/>
        <path id="wrvxgp4nxy" d="M19.35 4.343C12.889 6.92 8.117 10.37 5.099 14.28c-1.79 1.963-3.793 2.123-4.626 4.304 0 0-.362 9.878-.315 10.484C-.67 35.462 2.452 42.25 9.82 48.123 25.624 60.73 54.967 64.363 75.356 56.24c9.293-3.703 15.109-9.21 17.206-15.3.983-1.884 2.327-9.45 2.107-11.285.055-5.837-3.125-11.888-9.782-17.197C74.787 4.402 59.156.011 43.867.011c-8.633 0-17.158 1.4-24.516 4.332"/>
        <path id="u3cfnaz7gA" d="M13.713 3.052C-.982 8.716-3.84 20.586 7.33 29.562c11.17 8.98 32.139 11.666 46.833 6.002 14.696-5.663 17.554-17.533 6.384-26.51-7.209-5.795-18.5-8.968-29.55-8.969-6.072 0-12.072.959-17.284 2.967"/>
        <path id="xoyqg3gipC" d="M21.217 1.184l-3.9.352-.38 4.502c-.032.201-.048.404-.052.609v.01c-.032 2.184 1.394 4.613 1.871 6.514l-3.285.412-5.308-1.797 1.333 2.002-1.454-.102c-1.01-1.215-1.502-2.613-1.688-4.321L5.47 9.324 1.602 5.166l-.296 4.098c-.078 1.326.419 2.783 1.238 4.157l-2.136.528-.295 4.097 3.794 3 4.773-1.974c5.038 2.767 10.508 3.002 14.914 1.18 2.388-.989 3.33-2.302 3.527-3.728h.001l.001-.018c.024-.174.037-.35.039-.529l.257-3.554-1.108.047c-1.024-2.531-2.362-4.799-.286-5.657 2.066-.855 3.954-.411 5.832 1.073 1.643 1.299 2.075 2.58 1.97 4.319l6.75.694c.093-.53.137-1.062.114-1.6l.18-2.498-.87-2.683 3.144-1.3.297-4.097-7.857 1.535L26.568.158l-5.351 1.026zm-8.29 14.754l-1.431-2.15 7.41.522c-.02.771-.363 1.39-1.287 1.772-.742.306-1.474.463-2.206.463-.823 0-1.647-.198-2.486-.607z"/>
        <path id="ahfo7of6oE" d="M7.338 31.68c-3.709 5.82-5.54 11.358-5.689 16.244C1.355 50.538-.169 51.83.436 54.06c0 0 5.481 8.124 5.873 8.582 3.072 5.604 9.557 9.227 18.935 9.652 20.118.912 45.907-13.232 57.604-31.59 5.331-8.367 6.803-16.16 4.934-22.256-.31-2.082-3.647-8.925-4.897-10.267C79.518 3.475 73.415.475 64.942.091c-.616-.029-1.236-.043-1.863-.043C43.26.05 18.676 13.885 7.338 31.68"/>
        <path id="9gjmyyvv0G" d="M4.879 23.036C-3.645 36.024.906 47.07 15.042 47.708c14.138.636 32.508-9.376 41.032-22.365C64.597 12.354 60.047 1.31 45.91.671c-.427-.019-.86-.029-1.294-.029-13.946 0-31.471 9.797-39.737 22.394"/>
        <path id="708fmuzejI" d="M26.436 6.231l-8.56 3.588-3.762 3.92-2.971 2.545 2.305 3.77c.091.177.196.347.312.511l.005.008h.001c1.242 1.74 3.815 2.826 5.306 4.047l-2.436 2.236-5.365 1.668 2.249.804-1.243.766c-1.53-.372-2.743-1.188-3.886-2.428l-2.372 1.645-5.563-1.029 2.14 3.403c.705 1.09 1.955 1.951 3.421 2.557L4.584 35.9l2.14 3.403 4.83.16 2.74-4.332c5.71-.747 10.3-3.741 12.83-7.739 1.37-2.168 1.375-3.75.707-4.99l.001-.001-.01-.014c-.082-.152-.174-.298-.276-.44l-1.854-2.951-.874.68c-2.305-1.4-4.711-2.411-3.52-4.295 1.186-1.874 2.982-2.622 5.372-2.544 2.092.07 3.188.828 4.113 2.262l5.898-3.377c-.23-.472-.504-.918-.835-1.328l-1.304-2.075-2.266-1.61 1.805-2.853-2.14-3.402-5.505 5.777zm-6.58 19.2c.432.62.51 1.308-.019 2.145-.905 1.43-2.165 2.303-3.905 2.615l-2.412-.863 6.336-3.897z"/>
    </defs>
    <g fill="none" fill-rule="evenodd">
        <g>
            <g>
                <path fill="#A8C4E5" d="M472 438c0 24.3-31.788 44-71 44s-71-19.7-71-44 31.788-44 71-44 71 19.7 71 44" opacity=".33" transform="translate(-360 -6037) translate(360 6037)"/>
                <path fill="#F1A32F" d="M422 453L290 450.151 290 414 422 416.123z" transform="translate(-360 -6037) translate(360 6037)"/>
                <g>
                    <path fill="#F1A32F" d="M315.683 401.339c0 22.49-29.539 40.72-65.977 40.72s-65.977-18.23-65.977-40.72c0-22.489 29.539-40.72 65.977-40.72s65.977 18.231 65.977 40.72" transform="translate(-360 -6037) translate(360 6037) translate(106 48)"/>
                    <path fill="#FFCE43" d="M315.683 368.038c0 22.49-29.539 40.72-65.977 40.72s-65.977-18.23-65.977-40.72c0-22.489 29.539-40.72 65.977-40.72s65.977 18.231 65.977 40.72" transform="translate(-360 -6037) translate(360 6037) translate(106 48)"/>
                    <path fill="#F1A32F" d="M253.385 369.925l-5.798.012c-12.28.027-22.257-9.879-22.284-22.126l-.182-82.969 45.219-.098.192 88.007c.02 9.464-7.656 17.153-17.147 17.174M134.252 108.312L119.815 115.422 151.393 134.975 156.528 124.36z" transform="translate(-360 -6037) translate(360 6037) translate(106 48)"/>
                    <path fill="#F1A32F" d="M143.156 109.02l31.168 12.624-6.1 21.99c-.052-.028-.154-.104-.154-.104l-16.784-11.376c-4.818-3.299-9.012-.745-9.116 5.582-.303 18.235 1.877 53.127 21.75 65.536l-5.672 25.5c-31.064-19.397-34.91-77.402-34.438-105.905.164-9.89 11.815-19.003 19.346-13.846" transform="translate(-360 -6037) translate(360 6037) translate(106 48)"/>
                    <path fill="#F7C22D" d="M128.742 117.21l31.832 14.608-6.765 20.005c-.051-.028 1.544-4.565 1.544-4.565l-18.482-6.915c-4.817-3.299-9.011-.744-9.116 5.583-.302 18.234 8.097 62.347 33.374 73.704l2.673 20.736c-46.006-22.674-49.783-85.926-49.31-114.43.163-9.89 6.718-13.883 14.25-8.726" transform="translate(-360 -6037) translate(360 6037) translate(106 48)"/>
                    <path fill="#FFCE43" d="M148.87 144.439l8.877 69.515c5.2 39.376 28.928 72.197 60.817 84.125l22.066 8.253c44.585 16.678 90.222-16.746 97.4-71.334l8.237-93.61-197.398 3.051z" transform="translate(-360 -6037) translate(360 6037) translate(106 48)"/>
                    <path fill="#FFDD4D" d="M173.424 215.364l-12.949-105.845-12.124 32.272 9.397 73.573c5.2 39.377 28.927 72.197 60.817 84.125h15.676c-31.89-11.928-55.617-44.748-60.817-84.125" transform="translate(-360 -6037) translate(360 6037) translate(106 48)"/>
                    <path fill="#EFB430" d="M313.483 144.439l-9.32 78.873c-6.66 50.647-47.86 83.638-89.176 74.737 4.218 2.4 9.378 3.845 9.378 3.845l8.072 3.02c44.585 16.676 90.221-16.747 97.401-71.335l9.81-83.013-26.165-6.127z" transform="translate(-360 -6037) translate(360 6037) translate(106 48)"/>
                    <path fill="#F1A32F" d="M362.282 178.131l-40.222-17.143.724 20.848c.08.041.236.101.236.101l25.731 10.967c7.39 3.11 13.491 12 13.264 19.361-.653 21.214-6.019 57.874-36.422 43.68l.49 20.73c47.524 22.188 55.912-35.117 56.934-68.278.354-11.506-9.184-25.403-20.735-30.266" transform="translate(-360 -6037) translate(360 6037) translate(106 48)"/>
                    <path fill="#DB9628" d="M325.593 255.944L309.793 266.055 336.404 279.067 327.442 260.451z" transform="translate(-360 -6037) translate(360 6037) translate(106 48)"/>
                    <path fill="#FFDD4D" d="M346.482 188.242l-40.222-17.143.724 20.848c.079.041.236.101.236.101l25.73 10.967c7.39 3.11 13.492 12 13.265 19.361-.654 21.214-6.02 57.874-36.422 43.678l.49 20.731c47.523 22.19 55.911-35.117 56.933-68.277.355-11.506-9.183-25.403-20.734-30.266" transform="translate(-360 -6037) translate(360 6037) translate(106 48)"/>
                    <path fill="#F1A32F" d="M319.947 159.886L306.26 171.099 344.472 187.385 349.365 174.934z" transform="translate(-360 -6037) translate(360 6037) translate(106 48)"/>
                    <path fill="#FFDD4D" d="M346.404 138.151c0 33.755-44.336 61.118-99.026 61.118-54.691 0-99.027-27.363-99.027-61.118 0-33.754 44.336-61.118 99.027-61.118 54.69 0 99.026 27.364 99.026 61.118" transform="translate(-360 -6037) translate(360 6037) translate(106 48)"/>
                    <path fill="#BF7E1F" d="M318.012 138.151c0 24.078-31.624 43.595-70.635 43.595-39.01 0-70.634-19.517-70.634-43.595 0-24.076 31.624-43.594 70.634-43.594 39.011 0 70.635 19.518 70.635 43.594" transform="translate(-360 -6037) translate(360 6037) translate(106 48)"/>
                    <path fill="#F1A32F" d="M247.378 123.227c30.872 0 57.115 12.226 66.722 29.26 2.532-4.49 3.912-9.313 3.912-14.336 0-24.077-31.624-43.595-70.634-43.595-39.011 0-70.635 19.518-70.635 43.595 0 5.023 1.38 9.846 3.913 14.335 9.607-17.033 35.849-29.26 66.722-29.26" transform="translate(-360 -6037) translate(360 6037) translate(106 48)"/>
                    <path fill="#000" d="M290.576 165.267c-1.053 6.695-3.072 17.209.998 6.773-.534 7.803 3.23 42.065 4.222 50.874.121 1.085.708 2.036 1.578 2.65l.896 7.144c-.072.049-.16.094-.224.144l-11.032 14.386c-2.084 1.616-2.056 3.64.062 4.498l.6.243c2.118.858 5.555.238 7.638-1.379l12.37-9.595c2.083-1.617 2.339-2.193 1.43-5.801l-.542-2.522c-.151-.701-.586-1.287-1.166-1.645l-.764-6.09c.407-.568.751-1.264.995-2.148 2.15-7.8.373-34.132 5.905-41.886.554-.777 1.272-1.574 2.153-2.394 0 0-24.953-14.315-25.12-13.252" opacity=".11" transform="translate(-360 -6037) translate(360 6037) translate(106 48)"/>
                    <path fill="#000" d="M271.092 156.193c-2.63 6.248-7.115 15.974-.658 6.814-2.391 7.448-6.966 41.612-8.119 50.4-.142 1.085.2 2.147.896 2.951l-.845 7.15c-.082.03-.178.054-.253.087l-14.166 11.332c-2.41 1.071-2.87 3.044-1.02 4.382l.525.38c1.85 1.338 5.336 1.557 7.746.485l14.314-6.362c2.41-1.072 2.798-1.57 2.782-5.29l.079-2.579c.021-.716-.26-1.389-.736-1.875l.721-6.096c.531-.454 1.032-1.047 1.481-1.847 3.96-7.061 8.561-33.05 15.793-39.256.725-.623 1.613-1.225 2.666-1.81 0 0-20.788-19.86-21.206-18.866M315.695 178.52s22.058-12.025 16.52-26.053c-5.537-14.027-28.367 19.244-28.367 19.244l11.847 6.808z" opacity=".11" transform="translate(-360 -6037) translate(360 6037) translate(106 48)"/>
                    <path fill="#0B242E" d="M294.161 158.444c1.94 0 40.771 13.96 40.735-18.111-.036-32.071-49.572 4.547-49.572 4.547l8.837 13.564zM238.092 223.545l15.411-9.58c1.91-.59 5.802-.143 8.306.781 1.124.415 1.781 1.581 1.604 2.763l-.384 2.55c-.426 3.695-.87 4.145-3.39 4.925l-14.97 4.627c-2.52.78-5.956.15-7.635-1.396l-.475-.44c-1.678-1.547-.988-3.45 1.533-4.23" transform="translate(-360 -6037) translate(360 6037) translate(106 48)"/>
                    <path fill="#05CE7C" d="M262.636 216.675c-.892 3.696-9.909 1.533-9.017-2.163l2.898-12.013 9.016 2.163-2.897 12.013z" transform="translate(-360 -6037) translate(360 6037) translate(106 48)"/>
                    <path fill="#0B242E" d="M273.926 241.541l11.032-14.386c1.578-1.224 5.378-2.175 8.047-2.191 1.2-.007 2.227.853 2.478 2.02l.543 2.522c.91 3.609.652 4.185-1.43 5.8l-12.37 9.597c-2.082 1.616-5.52 2.236-7.637 1.379l-.6-.243c-2.118-.858-2.146-2.882-.063-4.498" transform="translate(-360 -6037) translate(360 6037) translate(106 48)"/>
                    <path fill="#05CE7C" d="M294.461 226.478c.473 3.772-8.728 4.92-9.201 1.148l-1.539-12.26 9.203-1.148 1.537 12.26z" transform="translate(-360 -6037) translate(360 6037) translate(106 48)"/>
                    <path fill="#0B242E" d="M292.34 129.184s-28.706 14.65-29.904 22.274c-1.053 6.695-7.173 45.814-7.277 55.153-.047 4.129 8.284 6.747 10 .97 2.419-8.148 9.117-36.313 14.905-44.281 5.787-7.97 34.508-19.213 34.508-19.213l-22.232-14.903z" transform="translate(-360 -6037) translate(360 6037) translate(106 48)"/>
                    <path fill="#0B242E" d="M311.605 142.475s-32.116 15.968-33.06 23.228c-.824 6.337 3.141 42.437 4.163 51.513.157 1.396 1.078 2.578 2.388 3.094 2.924 1.152 7.957 2.22 9.453-3.208 2.15-7.801.374-34.133 5.905-41.886 3-4.206 10.715-8.958 23.883-15.157 6.02-2.834 10.336-14.636 3.017-15.571l-15.749-2.013z" transform="translate(-360 -6037) translate(360 6037) translate(106 48)"/>
                    <path fill="#8A681D" d="M286.449 67.692s1.122.404-8.248-31.455c-3.163-10.754 1.175-28.782 1.175-28.782l7.967-.509s-2.992 17.32-.182 24.707c3.772 9.913 10.669 30.1 9.858 33.706-.811 3.607-10.57 2.333-10.57 2.333" transform="translate(-360 -6037) translate(360 6037) translate(106 48)"/>
                    <path fill="#05CE7C" d="M304.413 66.272l-9.478-25.16c-1.303-2.04-19.107 3.813-17.487 6.889.285.543 10.682 30.768 21.139 37.023 8.493 5.081 10.76-7.192 5.826-18.752" transform="translate(-360 -6037) translate(360 6037) translate(106 48)"/>
                    <path stroke="#FFF" stroke-linecap="round" stroke-linejoin="round" stroke-width="4.673" d="M297.595 48.174s-9.95-1.471-17.724 6.457" transform="translate(-360 -6037) translate(360 6037) translate(106 48)"/>
                    <path fill="#8A681D" d="M281.826 11.685l-.99-.44c-1.819-.81-2.642-2.957-1.831-4.77l1.664-3.722c.813-1.816 2.965-2.637 4.785-1.827l.99.441c1.819.81 2.644 2.956 1.833 4.77l-1.665 3.721c-.812 1.815-2.966 2.637-4.786 1.827" transform="translate(-360 -6037) translate(360 6037) translate(106 48)"/>
                    <path fill="#05CE7C" d="M286.697 126.752v-39.26c0-22.084 8.366-30.257 22.318-25.181l5.765 1.526c16.84 9.047 25.39 8.592 22.38 26.364l-2.95 38.955c0 20.054-48.586 21.171-47.513-2.404" transform="translate(-360 -6037) translate(360 6037) translate(106 48)"/>
                    <path fill="#0B242E" d="M308.255 62.054s2.261 2.117 3.41 2.365c1.148.25 12.442-7.523 8.054-18.743-2.779-7.106-15.08-3.769-15.08-3.769l3.616 20.147z" transform="translate(-360 -6037) translate(360 6037) translate(106 48)"/>
                    <path fill="#8A681D" d="M310.225 57.607c-1.364 6.269-5.837 8.301-9.99 4.54-4.155-3.762-6.415-11.894-5.05-18.163 1.365-6.27 5.838-8.302 9.99-4.54 4.154 3.762 6.415 11.894 5.05 18.163" transform="translate(-360 -6037) translate(360 6037) translate(106 48)"/>
                    <path fill="#8A681D" d="M316.6 55.227c-1.365 6.269-7.833 8.929-11.986 5.167-4.154-3.762-6.414-11.894-5.05-18.163 1.365-6.27 5.838-8.302 9.991-4.54 4.154 3.762 8.409 11.266 7.045 17.536" transform="translate(-360 -6037) translate(360 6037) translate(106 48)"/>
                    <path fill="#8A681D" d="M310.786 71.922l-.67.114c-2.261.382-4.425-1.149-4.81-3.404l-2.165-12.715c-.384-2.256 1.152-4.414 3.414-4.796l.669-.114c2.261-.382 4.425 1.149 4.81 3.404l3.882 11.913c.383 2.254-2.87 5.215-5.13 5.598" transform="translate(-360 -6037) translate(360 6037) translate(106 48)"/>
                    <path fill="#4E3B11" d="M317.088 57.763c-.332 1.524-1.84 2.492-3.369 2.16-1.529-.33-2.499-1.834-2.166-3.358.331-1.524 1.84-2.492 3.368-2.162 1.528.331 2.499 1.835 2.167 3.36" transform="translate(-360 -6037) translate(360 6037) translate(106 48)"/>
                    <path fill="#0B242E" d="M303.738 41.712s-2.042 14.79 13.95 13.29c0 0 9.49-7.698.001-17.706-8.363-8.82-18.002.452-18.002.452l4.05 3.964z" transform="translate(-360 -6037) translate(360 6037) translate(106 48)"/>
                    <path fill="#0B242E" d="M294.807 46.97s2.42-4.629 8.931-5.258l-4.052-3.964s-5.109-.068-4.879 9.223" transform="translate(-360 -6037) translate(360 6037) translate(106 48)"/>
                    <path fill="#36280B" d="M304.594 64.001s5.478.118 9.049-5.115c0 0-3.448 7.987-8.443 8.67l-.606-3.555z" transform="translate(-360 -6037) translate(360 6037) translate(106 48)"/>
                    <path fill="#8A681D" d="M328.01 70.853s.755.92 9.118-31.216c2.823-10.848.011-25.504.011-25.504l8.224.656s3.206 17.725 1.814 25.502c-1.868 10.438-6.343 31.293-8.896 33.972-2.553 2.679-10.272-3.41-10.272-3.41" transform="translate(-360 -6037) translate(360 6037) translate(106 48)"/>
                    <path fill="#8A681D" d="M343.753 17.78l-.866.652c-1.59 1.197-3.872.88-5.073-.705l-2.464-3.25c-1.202-1.586-.884-3.864.708-5.061l.865-.652c1.59-1.197 3.872-.88 5.073.704l2.464 3.251c1.202 1.586.884 3.863-.707 5.061" transform="translate(-360 -6037) translate(360 6037) translate(106 48)"/>
                    <path fill="#05CE7C" d="M338.87 76.914l10.644-24.691c.479-2.373-16.427-10.452-17.396-7.115-.171.588-13.672 29.568-10.477 41.304 2.595 9.532 12.756 2.247 17.228-9.498" transform="translate(-360 -6037) translate(360 6037) translate(106 48)"/>
                    <path stroke="#FFF" stroke-linecap="round" stroke-linejoin="round" stroke-width="4.673" d="M346.526 59.153c-4.872.189-15.425-5.437-17.266-7.589" transform="translate(-360 -6037) translate(360 6037) translate(106 48)"/>
                    <path fill="#A8C4E5" d="M217.573 432.061l-27.51 15.316c-1.969 1.096-2.756 3.334-1.752 4.974 1.005 1.64 3.438 2.086 5.406.991l30.556-17.007-6.7-4.274zM203.047 402.197l-.812-8.244-52.622 29.984c-1.968 1.095-2.756 3.333-1.75 4.974 1.004 1.64 3.437 2.086 5.405.99l49.779-27.704z" opacity=".33" transform="translate(-360 -6037) translate(360 6037) translate(106 48)"/>
                    <path fill="#0B242E" d="M160.536 392.26l7.025-26.193 36.98 21.026-7.024 26.193-36.98-21.026zm45.672-11.377l-36.981-21.027 7.024-26.194 36.98 21.027-7.023 26.194zm8.689-32.404l-36.981-21.027 7.024-26.194 36.981 21.027-7.024 26.194zm15.714-58.598l-7.025 26.194-36.98-21.027 7.024-26.193 36.981 21.026zm11.251-31.287l-.334-.19c-1.182-.672-2.552.285-3.045 2.125l-6.206 23.142-36.981-21.026 6.206-23.141c.493-1.841-.07-3.897-1.251-4.57l-.334-.189c-1.182-.672-2.552.285-3.046 2.126l-6.711 25.028-.654 2.437-8.037 29.966-.481 1.795-8.208 30.61-.033.121-8.975 33.467-.335 1.252-8.037 29.967-.653 2.437-8.41 31.36c-.493 1.84.07 3.896 1.25 4.567l.335.19c1.181.672 2.551-.285 3.045-2.126l7.904-29.472 36.981 21.026-7.904 29.472c-.493 1.842.07 3.897 1.25 4.57l.335.19c1.181.67 2.552-.286 3.046-2.127l50.534-188.439c.493-1.841-.069-3.897-1.25-4.568z" transform="translate(-360 -6037) translate(360 6037) translate(106 48)"/>
                    <path fill="#FFF" d="M298.31 54.956l7.54 1.202s-2.725 3.984-4.807 3.274c-2.08-.709-2.733-4.476-2.733-4.476" transform="translate(-360 -6037) translate(360 6037) translate(106 48)"/>
                    <path fill="#A8C4E5" d="M82.559 430.446c-12.735 6.945-34.525 7.403-48.67 1.025-14.145-6.38-15.289-17.18-2.554-24.125 12.734-6.945 34.526-7.403 48.67-1.025 14.145 6.38 15.289 17.18 2.554 24.125" opacity=".33" transform="translate(-360 -6037) translate(360 6037) translate(106 48)"/>
                    <path fill="#E8B034" d="M32.61 421.785l-4.723-16.791c-.973-1.656-4.031-3.859-6.415-4.822-1.068-.433-2.295-.029-2.938.925l-1.387 2.063c-2.104 2.905-2.08 3.51-.795 5.697l7.632 12.982c1.285 2.186 4.137 3.963 6.338 3.949l.624-.003c2.2-.014 2.95-1.814 1.664-4M84.444 416.57l-14.13-10.268c-1.793-.698-5.56-.539-8.026.177-1.108.32-1.82 1.395-1.73 2.543l.192 2.477c.153 3.58.548 4.042 2.914 4.965l14.048 5.48c2.365.922 5.706.556 7.424-.814l.487-.39c1.718-1.37 1.187-3.246-1.179-4.17" transform="translate(-360 -6037) translate(360 6037) translate(106 48)"/>
                    <path fill="#FFC2B0" d="M61.778 407.863c.13 3.622 6.445 4.25 8.54 1.469 3.273-34.91 6.32-89.489 6.32-89.489l-16.31-31.66s1.741 87.345 1.45 119.68" transform="translate(-360 -6037) translate(360 6037) translate(106 48)"/>
                    <path fill="#FFC2B0" d="M20.29 400.37c-1.483 2.994 4.216 6.711 6.787 4.201 12.881-11.76 23.05-30.208 31.496-51.942 7.621-19.61-11.403-27.593-15.107-7.076-3.498 19.386-10.346 37.838-23.176 54.817" transform="translate(-360 -6037) translate(360 6037) translate(106 48)"/>
                    <path fill="#05CE7C" d="M42.914 300.592c-3.624 14.072 3.754 46.232-3.624 58.448 0 0 12.413 26.722 40.518 3.793l-3.871-58.41-33.023-3.83z" transform="translate(-360 -6037) translate(360 6037) translate(106 48)"/>
                    <path fill="#E8B034" d="M105.469 264.728l-9.267 18.189c-2.117 4.154-7.377 6.146-10.95 4.148L63.625 268.37l9.002-7.465 13.187 15.157c1.245.853 3.208.353 4.252-1.085l8.505-11.696 6.897 1.446z" transform="translate(-360 -6037) translate(360 6037) translate(106 48)"/>
                    <path fill="#8585FF" d="M121.165 246.773c-.552 3.083.29 5.812 1.882 6.095 1.592.285 3.33-1.984 3.883-5.067.553-3.082-.29-5.81-1.881-6.095-1.593-.283-3.332 1.985-3.884 5.067" transform="translate(-360 -6037) translate(360 6037) translate(106 48)"/>
                    <path fill="#0B242E" d="M108.917 272.572l-.405.162c-2.214.885-4.728-.189-5.615-2.397L95.253 251.3c-.886-2.208.19-4.714 2.404-5.599l.405-.16c2.214-.885 4.728.188 5.615 2.396l7.643 19.036c.887 2.209-.189 4.715-2.403 5.6" transform="translate(-360 -6037) translate(360 6037) translate(106 48)"/>
                    <path fill="#FFC2B0" d="M111.95 267.896l-.079.028c-2.755.959-5.796-.505-6.757-3.253l-2.422-6.923c-.96-2.748.507-5.78 3.262-6.738l.08-.028c2.756-.959 5.796.505 6.757 3.253l2.422 6.923c.96 2.748-.507 5.78-3.262 6.738M101.108 263.71l-1.345.468c-1.019.354-2.142-.187-2.498-1.202l-.535-1.531c-.356-1.017.188-2.137 1.205-2.491l1.346-.468c1.018-.355 2.142.186 2.498 1.202l.535 1.53c.356 1.017-.187 2.138-1.206 2.492" transform="translate(-360 -6037) translate(360 6037) translate(106 48)"/>
                    <path fill="#05CE7C" d="M97.556 242.802c-.219-.072-6.666-.908-6.905-.895-.795-.258-1.75.024-2.666.909-1.782 1.719-2.739 5.057-2.137 7.456.378 1.507 1.282 2.284 2.342 2.228.22.072 6.667.907 6.906.895.794.257 1.75-.025 2.666-.908 1.781-1.72 2.738-5.059 2.136-7.457-.377-1.507-1.28-2.284-2.342-2.228" transform="translate(-360 -6037) translate(360 6037) translate(106 48)"/>
                    <path fill="#05CE7C" d="M106.059 241.69c-.324-.105-9.86-1.342-10.215-1.323-1.174-.381-2.587.036-3.942 1.343-2.636 2.544-4.052 7.482-3.162 11.03.56 2.229 1.895 3.378 3.465 3.296.325.105 9.86 1.342 10.215 1.323 1.175.381 2.587-.037 3.943-1.343 2.635-2.543 4.051-7.482 3.161-11.03-.559-2.23-1.895-3.378-3.465-3.296" transform="translate(-360 -6037) translate(360 6037) translate(106 48)"/>
                    <path fill="#DBEFFF" d="M106.05 241.639l23.448-6.325-5.646 35.607-24.195-14.391c-1.382-6.785.864-14.49 6.393-14.891" transform="translate(-360 -6037) translate(360 6037) translate(106 48)"/>
                    <path fill="#BAD4F5" d="M127.22 249.679l-3.428 19.19s-24.32-13.35-24.382-13.86c-.33-2.682-.112-5.413.635-7.702l27.176 2.372z" transform="translate(-360 -6037) translate(360 6037) translate(106 48)"/>
                    <path fill="#05CE7C" d="M134.614 240.97c3.087 7.69 1.428 19.199-3.706 25.71-5.133 6.51-11.796 5.555-14.884-2.134-3.087-7.687-1.428-19.198 3.705-25.708 5.134-6.51 11.799-5.555 14.885 2.133" transform="translate(-360 -6037) translate(360 6037) translate(106 48)"/>
                    <path fill="#05CE7C" d="M137.423 241.489c3.087 7.688 1.428 19.199-3.705 25.708-5.134 6.51-11.797 5.556-14.884-2.133-3.087-7.687-1.428-19.198 3.705-25.708 5.133-6.51 11.797-5.555 14.884 2.133" transform="translate(-360 -6037) translate(360 6037) translate(106 48)"/>
                    <path fill="#FFF" d="M135.566 241.943c2.863 7.13 1.325 17.802-3.436 23.84-4.76 6.037-10.94 5.151-13.802-1.978-2.863-7.129-1.324-17.803 3.436-23.84 4.76-6.037 10.94-5.152 13.802 1.978" transform="translate(-360 -6037) translate(360 6037) translate(106 48)"/>
                    <path fill="#DBEFFF" d="M117.496 249.407c.953-4.574 3.188-8.055 4.263-9.417 4.76-6.038 10.94-5.152 13.802 1.976.82 2.042 1.554 4.406 1.394 9.882-5.466-7.255-13.156-6.287-19.459-2.441" transform="translate(-360 -6037) translate(360 6037) translate(106 48)"/>
                    <path fill="#D0E7F4" d="M119.354 247.74c1.103-1.306 2.181-1.854 3.297-1.899l-.037.002.181.058c.05.004.166.036.215.042l4.221.032c.163.003.342-.334.498-.34l-.86.035.023.588c.01.249 2.445 1.138 3.029 2.59 1.246 3.105.808 7.868-1.494 10.585-1.644 1.941-2.99 1.874-2.99 1.874s-.543.003-.663-.018l-7.416-.776s-.303-10.054 1.996-12.774" transform="translate(-360 -6037) translate(360 6037) translate(106 48)"/>
                    <path fill="#022E1C" d="M119.49 243.677c.047.006 7.124 1.465 7.124 1.465.152.007.323.525.47.518l-.215.01-.255-.528c.323.124 2.231.771 2.815 2.223 1.247 3.106.594 7.703-1.48 10.333-.975 1.238-1.036 1.76-3.105 1.707v-.008s-7.815-1.191-8.095-1.283c-.282-3.075-.21-8.635 2.741-14.437" transform="translate(-360 -6037) translate(360 6037) translate(106 48)"/>
                    <path fill="#FFF" d="M104.538 242.714L118.824 238.929 115.951 243.643 103.518 245.04zM92.136 243.077L100.727 244.365 102.162 242.56 93.466 241.393z" transform="translate(-360 -6037) translate(360 6037) translate(106 48)"/>
                    <path fill="#E8B034" d="M77.427 308.638c-.101-11.357-1.609-18.121-1.743-32.132-2.166-16.533-2.762-21.088-15.955-20.188l-3.377 1.485c-1.612.71-3.153 1.59-4.586 2.617-15.301 10.984-15.575 9.787-13.596 19.291.627 4.968-2.02 3.048-.863 6.186 2.222 6.019 4.18 9.649 2.896 21.268-.259 2.347 3.919 4.974 6.068 5.89 8.473 3.615 28.817 2.86 31.156-4.417" transform="translate(-360 -6037) translate(360 6037) translate(106 48)"/>
                    <path fill="#875963" d="M55.753 258.574s-1.989 2.46-3.116 2.873c-1.129.414-15.135-7.831-12.278-19.805 1.81-7.583 16.21-3.968 16.21-3.968l-.816 20.9z" transform="translate(-360 -6037) translate(360 6037) translate(106 48)"/>
                    <path fill="#FFC2B0" d="M53.195 268.582l.62.014c2.098.045 3.851-1.63 3.898-3.72l.257-11.792c.046-2.092-1.632-3.84-3.73-3.885l-.62-.015c-2.097-.044-3.851 1.629-3.897 3.72L47.804 264.2c-.045 2.091 3.293 4.338 5.39 4.383" transform="translate(-360 -6037) translate(360 6037) translate(106 48)"/>
                    <path fill="#F09A82" d="M57.872 259.11s-4.941.836-8.872-3.424c0 0 4.188 6.768 8.799 6.722l.073-3.298z" transform="translate(-360 -6037) translate(360 6037) translate(106 48)"/>
                    <path fill="#FFC2B0" d="M45.557 235.048c1.584-3.589 4.444-4.695 7.338-3.332 2.538-1.625 5.91-.547 8.703 3.25 3.887 5.288 5.165 13.817 2.855 19.051-1.613 3.657-3.97 4.746-7.617 4.83-3.903.13-7.681-.61-10.547-4.508-3.886-5.287-3.042-14.057-.732-19.291" transform="translate(-360 -6037) translate(360 6037) translate(106 48)"/>
                    <path fill="#875963" d="M49.315 238.182s4.445 11.323-4.136 16.4c0 0-12.069-3.255-7.38-16.532 4.132-11.703 16.996-7.04 16.996-7.04l-5.48 7.172z" transform="translate(-360 -6037) translate(360 6037) translate(106 48)"/>
                    <path fill="#875963" d="M46.289 246.327c1.385-3.463 10.898-5.77 18.371-4.943 3.442-.688 2.091-3.568-.684-6.347-3.46-3.463-8.134-5.45-13.02-5.822l-3.378-.257c-6.016-.002-10.795 9.23-10.775 13.296l3.825-.72c.02 4.065 1.584 4.812 5.66 4.793" transform="translate(-360 -6037) translate(360 6037) translate(106 48)"/>
                    <path fill="#875963" d="M54.02 237.26c1.761 1.092-6.83 4.005-7.671 5.895-2.5 5.62 1.083 18.718 7.41 21.993 1.492.771 2.338 2.54 3.667 3.834 3.694 3.596-1.163 9.354-5.346 6.338l-.253-.182c-8.361-6.025-14.69-18.481-14.03-26.873.39-4.952 2.682-9.93 4.496-13.178 1.153-2.066 3.811-2.733 5.825-1.485l5.902 3.658z" transform="translate(-360 -6037) translate(360 6037) translate(106 48)"/>
                    <path fill="#875963" d="M57.075 272.684s10.216 6.105 10.062 18.15c0 0-3.88-4.964-7.095-7.106 0 0 7.758 5.457 7.804 15.382 0 0-3.482-6.356-9.082-11.042-5.599-4.687-7.277-15.302-7.277-15.302l5.588-.082z" transform="translate(-360 -6037) translate(360 6037) translate(106 48)"/>
                    <path fill="#0B242E" d="M53.156 277.115l5.894-3.197c1.374-.745 1.886-2.476 1.139-3.846-.747-1.369-2.483-1.88-3.856-1.135l-5.895 3.198c-1.373.745-1.886 2.475-1.139 3.845.748 1.37 2.483 1.88 3.857 1.135" transform="translate(-360 -6037) translate(360 6037) translate(106 48)"/>
                    <path fill="#FFC2B0" d="M45.01 254.457c.946 1.286 2.757 1.563 4.046.621 1.29-.942 1.568-2.748.623-4.034-.945-1.286-2.756-1.564-4.046-.621-1.289.942-1.567 2.748-.622 4.034" transform="translate(-360 -6037) translate(360 6037) translate(106 48)"/>
                    <path fill="#E8B034" d="M44.033 286.52s17.474 7.723-2.819-22.818c-4.108-6.183-30.595-36.216-30.595-36.216l-4.006 4.147s16.523 28.021 20.639 35.02c5.935 10.093 13.84 31.514 13.84 31.514 4.064-.45 2.941-11.648 2.941-11.648" transform="translate(-360 -6037) translate(360 6037) translate(106 48)"/>
                    <path fill="#FFC2B0" d="M11.61 232.822l.678-.985c1.245-1.808.78-4.302-1.03-5.543l-3.717-2.547c-1.812-1.242-4.314-.78-5.56 1.03l-.678.985c-1.245 1.807-.78 4.301 1.031 5.542l3.715 2.547c1.814 1.242 4.316.78 5.56-1.029" transform="translate(-360 -6037) translate(360 6037) translate(106 48)"/>
                    <path fill="#FFF" d="M54.666 252.245l7.977-1.266s-1.426 4.9-3.752 4.87c-2.326-.03-4.225-3.604-4.225-3.604M155.01 183.18s14.4-.081 17.822-25.343c0 0 1.926 25.882 17.494 31.666 0 0-17.843.302-19.104 23.272 0 0-.048-24.567-16.211-29.596" transform="translate(-360 -6037) translate(360 6037) translate(106 48)"/>
                    <path fill="#A8C4E5" d="M444.913 446.306c-16.252-11.073-45.343-12.613-64.977-3.44-19.633 9.172-22.375 25.585-6.123 36.658 16.252 11.074 45.343 12.614 64.976 3.442 19.635-9.173 22.376-25.586 6.124-36.66" opacity=".33" transform="translate(-360 -6037) translate(360 6037) translate(106 48)"/>
                </g>
                <g transform="translate(-360 -6037) translate(360 6037) translate(448 482)">
                    <mask id="7jv2b3vijb" fill="#fff">
                        <use xlink:href="#lx1d4gxpba"/>
                    </mask>
                    <path d="M18.641 6.547c-6.436 2.999-11.1 6.75-13.953 10.837-1.711 2.07-2.932 4.246-3.656 6.468 0 0-.623 7.945-.54 8.542-.48 6.402 3.081 12.921 10.914 18.244 16.807 11.42 46.892 13.01 67.195 3.55 9.255-4.313 14.867-10.177 16.659-16.36.894-1.939 1.836-9.538 1.508-11.343-.272-5.793-3.853-11.579-10.932-16.389C76.402 3.686 62.786.373 49.063.373c-10.724 0-21.515 2.024-30.422 6.174" mask="url(#7jv2b3vijb)"/>
                </g>
                <g>
                    <path fill="#FFF" d="M84.467 11.405c-16.756-11.413-46.751-13-66.995-3.547-20.244 9.454-23.07 26.37-6.314 37.784 16.757 11.412 46.751 13 66.995 3.546 20.244-9.454 23.07-26.37 6.314-37.783" transform="translate(-360 -6037) translate(360 6037) translate(449 474)"/>
                    <path fill="#FFE46E" d="M84.467 9.942c-16.756-11.413-46.751-13-66.995-3.547-20.244 9.454-23.07 26.37-6.314 37.783 16.757 11.413 46.751 13.002 66.995 3.548 20.244-9.455 23.07-26.37 6.314-37.784" transform="translate(-360 -6037) translate(360 6037) translate(449 474)"/>
                </g>
                <g transform="translate(-360 -6037) translate(360 6037) translate(462 482)">
                    <mask id="x4ifsn3exd" fill="#fff">
                        <use xlink:href="#jltiy2f0ic"/>
                    </mask>
                    <path d="M12.558 4.91c-14.397 6.734-16.407 18.784-4.49 26.912 11.917 8.13 33.249 9.26 47.646 2.526 14.396-6.733 16.406-18.783 4.49-26.91C53.513 2.873 43.858.515 34.13.515c-7.605 0-15.256 1.44-21.572 4.394" mask="url(#x4ifsn3exd)"/>
                </g>
                <g>
                    <path stroke="#DEA749" stroke-width="1.403" d="M74.164 8.746C59.42-1.306 33.03-2.704 15.217 5.622-2.593 13.95-5.08 28.85 9.663 38.9c14.743 10.052 41.134 11.45 58.945 3.123 17.812-8.326 20.299-23.225 5.556-33.277z" transform="translate(-360 -6037) translate(360 6037) translate(454 478)"/>
                    <path fill="#C99334" d="M20.361 10.777c14.288-6.68 35.459-5.558 47.286 2.506 4.714 3.214 7.23 7.047 7.649 10.916.5-4.634-1.991-9.382-7.65-13.24C55.82 2.897 34.65 1.775 20.362 8.455c-8.593 4.016-12.737 9.94-12.105 15.778.546-5.052 4.652-9.971 12.105-13.455" transform="translate(-360 -6037) translate(360 6037) translate(454 478)"/>
                </g>
                <g transform="translate(-360 -6037) translate(360 6037) translate(475 490)">
                    <mask id="sai5y5giuf" fill="#fff">
                        <use xlink:href="#z1t859q6je"/>
                    </mask>
                    <path d="M34.315 2.277L25.29.884l-5.194 1.393-3.814.629-.054 4.428c-.017.198-.019.398-.008.6v.009c.125 2.137 1.702 4.407 2.306 6.23l-3.205.643-5.352-1.369 1.454 1.86-1.438.006c-1.081-1.114-1.665-2.445-1.97-4.101l-2.839.17-4.103-3.781v4.026c.016 1.302.61 2.69 1.513 3.973l-2.064.672v4.027l3.947 2.654 4.557-2.277c5.156 2.338 10.557 2.168 14.765.066 2.28-1.14 3.114-2.493 3.206-3.901h.001v-.018c.01-.172.01-.346 0-.52v-3.492l-1.085.127c-1.189-2.4-2.667-4.52-.685-5.51 1.973-.985 3.864-.69 5.818.624 1.708 1.149 2.225 2.37 2.244 4.078l6.693.186c.056-.524.06-1.047 0-1.57V8.288l-1.048-2.558 3.002-1.5V.203l-7.622 2.074zm-15.56 12.998c.035.756-.26 1.385-1.141 1.826-1.505.752-3.014.842-4.63.202l-1.56-1.997 7.33-.031z" mask="url(#sai5y5giuf)"/>
                </g>
                <g>
                    <path fill="#FFF" d="M4.904 17.724c-2.093-1.769-3.803-4.253-3.832-6.481l6.944-.417c.41 2.229 1.323 3.87 3.277 5.184 2.28 1.533 4.304 1.714 6.32.707 4.514-2.257-6.317-9.438 1.57-13.38 4.296-2.146 9.636-2.048 14.294.11l4.514-2.257 3.947 2.655-4.425 2.213c2.209 1.948 2.678 3.908 2.47 5.873l-6.693-.185c-.019-1.709-.536-2.93-2.245-4.078-1.953-1.314-3.844-1.61-5.816-.624-4.163 2.079 6.931 9.13-1.439 13.313-4.207 2.102-9.607 2.272-14.763-.066l-4.558 2.278-3.947-2.655 4.382-2.19z" transform="translate(-360 -6037) translate(360 6037) translate(475 486)"/>
                    <path fill="#FFE46E" d="M4.904 16.957c-2.093-1.769-3.803-4.253-3.832-6.482l6.944-.416c.41 2.228 1.323 3.87 3.277 5.184 2.28 1.533 4.304 1.714 6.32.706 4.514-2.255-6.317-9.437 1.57-13.38C23.48.425 28.82.524 33.478 2.68L37.991.423l3.947 2.655-4.425 2.212c2.209 1.949 2.678 3.909 2.47 5.874l-6.693-.185c-.019-1.709-.536-2.93-2.245-4.079-1.953-1.314-3.844-1.609-5.816-.624-4.163 2.08 6.931 9.131-1.439 13.314-4.207 2.102-9.607 2.272-14.763-.066L4.469 21.8.522 19.147l4.382-2.19z" transform="translate(-360 -6037) translate(360 6037) translate(475 486)"/>
                </g>
                <g transform="translate(-360 -6037) translate(360 6037) translate(448 460)">
                    <mask id="azeigfd1gh" fill="#fff">
                        <use xlink:href="#xb1vv0c8yg"/>
                    </mask>
                    <path d="M18.641 6.817c-6.436 2.999-11.1 6.75-13.953 10.837-1.711 2.071-2.932 4.246-3.656 6.468 0 0-.623 7.946-.54 8.542-.48 6.402 3.081 12.921 10.914 18.245 16.807 11.42 46.892 13.008 67.195 3.548 9.255-4.311 14.867-10.175 16.659-16.36.894-1.939 1.836-9.537 1.508-11.342-.272-5.793-3.853-11.58-10.932-16.39C76.402 3.956 62.788.644 49.064.644 38.34.644 27.548 2.668 18.641 6.817" mask="url(#azeigfd1gh)"/>
                </g>
                <g>
                    <path fill="#FFF" d="M84.467 11.675C67.711.262 37.716-1.325 17.472 8.128c-20.244 9.454-23.07 26.37-6.314 37.783 16.757 11.413 46.751 13.001 66.995 3.547 20.244-9.455 23.07-26.37 6.314-37.783" transform="translate(-360 -6037) translate(360 6037) translate(449 452)"/>
                    <path fill="#FFE46E" d="M84.467 10.212c-16.756-11.414-46.751-13-66.995-3.547-20.244 9.454-23.07 26.37-6.314 37.783 16.757 11.413 46.751 13 66.995 3.547 20.244-9.454 23.07-26.37 6.314-37.783" transform="translate(-360 -6037) translate(360 6037) translate(449 452)"/>
                </g>
                <g transform="translate(-360 -6037) translate(360 6037) translate(462 460)">
                    <mask id="8ah0ehlumj" fill="#fff">
                        <use xlink:href="#vqju5gzl9i"/>
                    </mask>
                    <path d="M12.558 4.463c-14.397 6.735-16.407 18.783-4.49 26.912 11.917 8.13 33.249 9.26 47.646 2.527C70.11 27.167 72.12 15.118 60.204 6.99 53.513 2.427 43.858.07 34.13.07c-7.605 0-15.256 1.44-21.572 4.393" mask="url(#8ah0ehlumj)"/>
                </g>
                <g>
                    <path stroke="#DEA749" stroke-width="1.403" d="M74.164 9.019C59.42-1.033 33.03-2.431 15.217 5.895-2.593 14.222-5.08 29.121 9.663 39.173c14.743 10.052 41.134 11.45 58.945 3.123C86.42 33.97 88.907 19.07 74.164 9.02z" transform="translate(-360 -6037) translate(360 6037) translate(454 455)"/>
                    <path fill="#C99334" d="M20.361 11.05C34.65 4.37 55.82 5.492 67.647 13.555c4.714 3.215 7.23 7.047 7.649 10.917.5-4.635-1.991-9.382-7.65-13.24C55.82 3.168 34.65 2.047 20.362 8.726c-8.593 4.017-12.737 9.94-12.105 15.779.546-5.052 4.652-9.971 12.105-13.455" transform="translate(-360 -6037) translate(360 6037) translate(454 455)"/>
                </g>
                <g transform="translate(-360 -6037) translate(360 6037) translate(475 467)">
                    <mask id="214ovzh7zl" fill="#fff">
                        <use xlink:href="#r5bslw2m4k"/>
                    </mask>
                    <path d="M34.315 2.581l-9.025-1.41-5.194 1.41-3.814.636-.054 4.481c-.017.2-.019.403-.008.605v.01c.125 2.163 1.702 4.46 2.306 6.305l-3.205.65-5.352-1.386 1.454 1.883-1.438.007c-1.081-1.128-1.665-2.476-1.97-4.15l-2.839.17-4.103-3.824v4.074c.016 1.317.61 2.722 1.513 4.02l-2.064.68v4.074l3.947 2.687 4.557-2.304c5.156 2.365 10.557 2.192 14.765.066 2.28-1.153 3.114-2.522 3.206-3.947h.001V17.3c.01-.175.01-.35 0-.526v-3.535l-1.085.129c-1.189-2.428-2.667-4.573-.685-5.575 1.973-.997 3.864-.698 5.818.632 1.708 1.162 2.225 2.398 2.244 4.126l6.693.189c.056-.531.06-1.06 0-1.59V8.663l-1.048-2.59 3.002-1.516V.482l-7.622 2.1zm-15.56 13.152c.035.766-.26 1.402-1.141 1.847-1.505.762-3.014.851-4.63.205l-1.56-2.02 7.33-.032z" mask="url(#214ovzh7zl)"/>
                </g>
                <g>
                    <path fill="#FFF" d="M4.904 17.997c-2.093-1.768-3.803-4.252-3.832-6.48l6.944-.417c.41 2.228 1.323 3.87 3.277 5.184 2.28 1.533 4.304 1.713 6.32.706 4.514-2.256-6.317-9.438 1.57-13.38 4.296-2.146 9.636-2.047 14.294.11l4.514-2.256 3.947 2.655-4.425 2.212c2.209 1.948 2.678 3.908 2.47 5.874l-6.693-.185c-.019-1.709-.536-2.93-2.245-4.08-1.953-1.313-3.844-1.609-5.816-.623-4.163 2.08 6.931 9.13-1.439 13.314-4.207 2.102-9.607 2.271-14.763-.066l-4.558 2.277-3.947-2.655 4.382-2.19z" transform="translate(-360 -6037) translate(360 6037) translate(475 464)"/>
                    <path fill="#FFE46E" d="M4.904 17.23c-2.093-1.768-3.803-4.253-3.832-6.48l6.944-.417c.41 2.228 1.323 3.87 3.277 5.184 2.28 1.533 4.304 1.713 6.32.706 4.514-2.256-6.317-9.438 1.57-13.38C23.48.697 28.82.796 33.478 2.953L37.991.697l3.947 2.655-4.425 2.212c2.209 1.948 2.678 3.909 2.47 5.874l-6.693-.186c-.019-1.708-.536-2.93-2.245-4.078-1.953-1.314-3.844-1.61-5.816-.624-4.163 2.08 6.931 9.131-1.439 13.314-4.207 2.102-9.607 2.272-14.763-.066l-4.558 2.277L.522 19.42l4.382-2.19z" transform="translate(-360 -6037) translate(360 6037) translate(475 464)"/>
                </g>
                <g transform="translate(-360 -6037) translate(360 6037) translate(448 439)">
                    <mask id="1tcsoaqk7n" fill="#fff">
                        <use xlink:href="#pj2vc9y7em"/>
                    </mask>
                    <path d="M18.641 6.453c-6.436 3.034-11.1 6.83-13.953 10.964-1.711 2.095-2.932 4.297-3.656 6.545 0 0-.623 8.037-.54 8.643-.48 6.477 3.081 13.072 10.914 18.458 16.807 11.554 46.892 13.161 67.195 3.59 9.255-4.362 14.867-10.294 16.659-16.552.894-1.962 1.836-9.65 1.508-11.476-.272-5.86-3.853-11.716-10.932-16.582C76.402 3.557 62.788.206 49.064.207c-10.724 0-21.516 2.047-30.423 6.246" mask="url(#1tcsoaqk7n)"/>
                </g>
                <g>
                    <path fill="#FFF" d="M84.467 11.38C67.711-.18 37.716-1.787 17.472 7.788c-20.244 9.575-23.07 26.707-6.314 38.267 16.757 11.56 46.751 13.167 66.995 3.592 20.244-9.575 23.07-26.708 6.314-38.267" transform="translate(-360 -6037) translate(360 6037) translate(449 431)"/>
                    <path fill="#FFE46E" d="M84.467 9.898C67.711-1.662 37.716-3.27 17.472 6.306c-20.244 9.576-23.07 26.708-6.314 38.268 16.757 11.558 46.751 13.167 66.995 3.592 20.244-9.576 23.07-26.709 6.314-38.268" transform="translate(-360 -6037) translate(360 6037) translate(449 431)"/>
                </g>
                <g transform="translate(-360 -6037) translate(360 6037) translate(462 437)">
                    <mask id="irrstle5jp" fill="#fff">
                        <use xlink:href="#o4suke4rfo"/>
                    </mask>
                    <path d="M12.558 4.74c-14.397 6.732-16.407 18.78-4.49 26.91 11.917 8.129 33.249 9.26 47.646 2.526 14.396-6.734 16.406-18.783 4.49-26.912C53.513 2.702 43.858.344 34.13.344c-7.605 0-15.256 1.44-21.572 4.395" mask="url(#irrstle5jp)"/>
                </g>
                <g>
                    <path stroke="#DEA749" stroke-width="1.403" d="M74.164 8.575C59.42-1.477 33.03-2.875 15.217 5.452-2.593 13.779-5.08 28.677 9.663 38.729c14.743 10.052 41.134 11.45 58.945 3.124 17.812-8.327 20.299-23.226 5.556-33.278z" transform="translate(-360 -6037) translate(360 6037) translate(454 434)"/>
                    <path fill="#C99334" d="M20.361 10.606c14.288-6.68 35.459-5.558 47.286 2.505 4.714 3.214 7.23 7.047 7.649 10.917.5-4.634-1.991-9.382-7.65-13.24C55.82 2.725 34.65 1.603 20.362 8.283c-8.593 4.016-12.737 9.94-12.105 15.778.546-5.052 4.652-9.972 12.105-13.455" transform="translate(-360 -6037) translate(360 6037) translate(454 434)"/>
                </g>
                <g transform="translate(-360 -6037) translate(360 6037) translate(475 445)">
                    <mask id="im01fjciar" fill="#fff">
                        <use xlink:href="#d41e2zbrtq"/>
                    </mask>
                    <path d="M34.315 2.104L25.29.713l-5.194 1.391-3.814.63-.054 4.428c-.017.199-.019.399-.008.6V7.77c.125 2.137 1.702 4.407 2.306 6.23l-3.205.644-5.352-1.37 1.454 1.86-1.438.006c-1.081-1.115-1.665-2.446-1.97-4.102l-2.839.17-4.103-3.78v4.027c.016 1.302.61 2.69 1.513 3.972L.522 16.1v4.027l3.947 2.655 4.557-2.277c5.156 2.337 10.557 2.167 14.765.065 2.28-1.14 3.114-2.493 3.206-3.9h.001v-.019c.01-.171.01-.345 0-.52V12.64l-1.085.125c-1.189-2.398-2.667-4.517-.685-5.509 1.973-.986 3.864-.69 5.818.624 1.708 1.15 2.225 2.37 2.244 4.079l6.693.186c.056-.524.06-1.049 0-1.571V8.118l-1.048-2.56 3.002-1.5V.032l-7.622 2.072zm-15.56 13c.035.755-.26 1.385-1.141 1.825-1.505.752-3.014.841-4.63.202l-1.56-1.996 7.33-.031z" mask="url(#im01fjciar)"/>
                </g>
                <g>
                    <path fill="#FFF" d="M479.562 460.578c-2.103-1.755-3.82-4.222-3.848-6.434l6.972-.414c.412 2.212 1.329 3.843 3.291 5.147 2.289 1.522 4.322 1.701 6.347.7 4.532-2.238-6.344-9.369 1.576-13.283 4.313-2.13 9.676-2.032 14.353.108l4.533-2.239 3.962 2.636-4.443 2.196c2.218 1.935 2.69 3.88 2.48 5.832l-6.72-.184c-.019-1.696-.538-2.908-2.254-4.05-1.961-1.304-3.86-1.597-5.84-.619-4.18 2.065 6.96 9.066-1.445 13.218-4.225 2.088-9.647 2.256-14.825-.065l-4.576 2.261-3.964-2.635 4.4-2.175z" transform="translate(-360 -6037) translate(360 6037)"/>
                    <path fill="#FFE46E" d="M479.562 459.817c-2.103-1.756-3.82-4.223-3.848-6.435l6.972-.414c.412 2.212 1.329 3.843 3.291 5.147 2.289 1.522 4.322 1.702 6.347.701 4.532-2.24-6.344-9.37 1.576-13.284 4.313-2.13 9.676-2.032 14.353.109l4.533-2.24 3.962 2.636-4.443 2.196c2.218 1.935 2.69 3.88 2.48 5.832l-6.72-.184c-.019-1.696-.538-2.908-2.254-4.05-1.961-1.304-3.86-1.597-5.84-.619-4.18 2.066 6.96 9.066-1.445 13.219-4.225 2.087-9.647 2.255-14.825-.065l-4.576 2.26-3.964-2.635 4.4-2.174z" transform="translate(-360 -6037) translate(360 6037)"/>
                    <path fill="#FFC2B0" d="M476.66 446.548c-10.785 4.772-22.224 13.656-28.79 23.547-4.626 6.969-5.734 14.984-5.297 23.13.604 11.25 2.426 16.64 3.03 27.89.41 7.611 7.956 7.66 7.544 0-.566-10.544 4.017-37.943 6.92-43.403 2.545-4.785 10.05-2.867 14.12-6.343 4.48-3.828 3.085-12.165 8.484-14.553 2.963-1.312 3.599-5.569 2.136-8.135-1.735-3.044-5.225-3.426-8.148-2.133" transform="translate(-360 -6037) translate(360 6037)"/>
                    <path fill="#FFC2B0" d="M418.582 509.188c8.733-9.365 15.515-16.725 25.218-25.25 1.895-1.664 5.362-7.07 5.924-7.114-1.282.102 6.123 1.99 9.013 2.552 9.927 1.931 19.533.194 27.932-5.55 6.285-4.298.334-14.606-6.013-10.267-7.677 5.25-15.271 5.597-23.96 3.029-2.438-.721-4.953-1.706-7.534-1.664-5.026.082-9.863 3.047-13.571 6.162-10.25 8.608-13.62 23.659-22.611 33.3-5.218 5.596.365 10.417 5.602 4.802" transform="translate(-360 -6037) translate(360 6037)"/>
                    <path fill="#0B242E" d="M466.084 437.419c-15.178 16.45-27.923 25.286-27.148 30.837 0 0 3.85-1.231 11.831 3.397 7.89 4.574 5.75 7.354 7.724 10.885.449.802 1.526 3.139 2.444 3.166 9.464.287 39.332-8.424 37.897-26.197-.71-8.797-2.068-11.103-2.068-11.103s-19.578 3.487-30.68-10.985M453.651 519.321c-.821-1.58-2.98-3.299-4.137-2.965l-3.064 4.907-.455.144c-1.674 2.146-10.234 11.268-12.555 14.548-1.18 1.667 1.557 2.682 1.557 2.682 5.815 1.077 11.595-1.543 11.595-1.543 2.486-1.699.864-4.016 3.4-7.707.429-.624 1.44-1.264 1.607-.675l-.219 3.952 1.38-.264s.826-5.65 1.575-9.45c.311-1.578 0-2.892-.684-3.629" transform="translate(-360 -6037) translate(360 6037)"/>
                    <path fill="#FFC2B0" d="M448.725 515.935l-2.576 2.128s-6.459 10.098-7.68 12.115c-1.418 2.343 7.074 6.38 12.911-7.406 4.256-7.278-2.655-6.837-2.655-6.837" transform="translate(-360 -6037) translate(360 6037)"/>
                    <path fill="#0B242E" d="M422.967 506.926c-.064-1.78-1.279-4.256-2.467-4.449l-4.875 3.126-.473-.064c-2.432 1.224-14.08 5.81-17.583 7.782-1.78 1.003.258 3.09.258 3.09 4.794 3.46 11.141 3.561 11.141 3.561 2.974-.472 2.502-3.26 6.378-5.512.654-.38 1.842-.527 1.74.076l-1.891 3.479 1.36.35s3.168-4.752 5.474-7.867c.958-1.293 1.241-2.613.938-3.572" transform="translate(-360 -6037) translate(360 6037)"/>
                    <path fill="#FFC2B0" d="M419.966 501.76l-3.24.824s-10.167 6.364-12.136 7.666c-2.286 1.512 3.659 8.79 14.846-1.175 6.966-4.76.53-7.316.53-7.316" transform="translate(-360 -6037) translate(360 6037)"/>
                    <path fill="#0B242E" d="M484.445 366.065s8.088-5.535 12.773 1.53c4.685 7.065 1.584 11.871 6.915 15.74 5.332 3.868 12.948 15.317 6.8 18.835-6.15 3.516-10.473 1.655-11.202-3.777-.73-5.433-.04-6.359-4.312-9.712-4.272-3.353-10.974-22.616-10.974-22.616" transform="translate(-360 -6037) translate(360 6037)"/>
                    <path fill="#E8B034" d="M492.225 370.291c-.424 2.89-2.83 4.93-5.377 4.557-2.546-.372-4.266-3.015-3.843-5.904.423-2.889 2.83-4.929 5.377-4.556 2.546.371 4.266 3.015 3.843 5.903" transform="translate(-360 -6037) translate(360 6037)"/>
                    <path fill="#05CE7C" d="M451.013 404.9c7.42-15.616 16.932-17.183 19.798-14.967 2.867 2.217-11.345 16.194-11.345 16.194s-4.98 19.35-11.533 16.079c-7.24-3.614-4.5-1.349 3.08-17.306" transform="translate(-360 -6037) translate(360 6037)"/>
                    <path fill="#05CE7C" d="M461.32 442.43c-1.325-11.032-.376-17.892-2.003-31.504 0-16.382 0-20.896 12.718-22.115l3.415.905c1.628.431 3.21 1.04 4.708 1.81 15.995 8.228 19.288 10 18.587 19.534.023 4.919-2.805-.29-3.519 2.936-1.37 6.192-1.366 21.675 1.316 32.744.54 2.234-.223 4.602-2.056 5.994-7.941 6.027-30.02-3.615-33.165-10.303" transform="translate(-360 -6037) translate(360 6037)"/>
                    <path fill="#0B242E" d="M475.258 389.305s1.819 2.245 2.848 2.622c1.03.376 13.806-7.171 11.186-18.108-1.659-6.927-14.798-3.61-14.798-3.61l.764 19.096z" transform="translate(-360 -6037) translate(360 6037)"/>
                    <path fill="#FFC2B0" d="M479.4 398.721l-.559.095c-1.887.32-3.694-.96-4.014-2.845l-1.808-10.624c-.32-1.885.962-3.688 2.85-4.008l.558-.095c1.888-.32 3.695.96 4.015 2.844l3.24 9.955c.32 1.884-2.394 4.358-4.282 4.678" transform="translate(-360 -6037) translate(360 6037)"/>
                    <path fill="#FFC2B0" d="M479.576 366.934c-2.302-2.749-5.09-2.995-7.282-1.066-2.638-.782-5.321 1.017-6.802 5.058-2.063 5.625-1.014 13.435 2.343 17.443 2.344 2.801 5.194 2.997 7.402.947 3.254.852 7.084-1.118 8.605-5.265 2.063-5.625-.91-13.108-4.266-17.117" transform="translate(-360 -6037) translate(360 6037)"/>
                    <path fill="#0B242E" d="M477.078 370.637s-1.016 11.064 7.799 13.346c0 0 9.753-5.914 2.265-16.379-6.6-9.225-16.693-1.875-16.693-1.875l6.629 4.908z" transform="translate(-360 -6037) translate(360 6037)"/>
                    <path fill="#0B242E" d="M481.804 377.02c-2.095-2.69-11.023-2.305-17.364.314-3.194.267-2.742-2.602-1.016-5.743 2.152-3.917 5.745-6.845 9.935-8.41l2.896-1.08c5.273-1.526 11.812 5.367 12.828 8.94l-3.536.337c1.017 3.574-.164 4.626-3.743 5.641" transform="translate(-360 -6037) translate(360 6037)"/>
                    <path fill="#FFC2B0" d="M485.298 385.596c-.5 1.368-2.018 2.07-3.389 1.57-1.37-.5-2.074-2.015-1.571-3.383.5-1.367 2.018-2.07 3.388-1.57 1.37.501 2.074 2.015 1.572 3.383" transform="translate(-360 -6037) translate(360 6037)"/>
                    <path fill="#027043" d="M488.367 414.601L498.121 435.853 487.614 442.431z" transform="translate(-360 -6037) translate(360 6037)"/>
                    <path fill="#FFC2B0" d="M478.074 446.013l.067-1.016c.122-1.867-1.308-3.495-3.179-3.618l-3.837-.252c-1.872-.124-3.503 1.304-3.625 3.174l-.067 1.015c-.123 1.868 1.308 3.496 3.178 3.619l3.838.252c1.872.123 3.503-1.305 3.625-3.174" transform="translate(-360 -6037) translate(360 6037)"/>
                    <path fill="#FFC2B0" d="M475.623 448.083s23.209 2.643 25.802-13.426l-5.501-5.019s3.09 11.913-22.12 13.086l1.819 5.36z" transform="translate(-360 -6037) translate(360 6037)"/>
                    <path fill="#05CE7C" d="M488.774 407.988l3.018 28.996 5.478 7.083s8.35-2.627 7.275-15.294c-1.353-15.932-7.46-26.374-7.46-26.374l-8.311 5.589z" transform="translate(-360 -6037) translate(360 6037)"/>
                    <path fill="#FFF" d="M467.765 383.534l5.213 1.028s-1.998 2.704-3.427 2.159c-1.428-.548-1.786-3.187-1.786-3.187" transform="translate(-360 -6037) translate(360 6037)"/>
                    <path fill="#F09A82" d="M473.94 390.301s4.573 1.04 7.553-3.332c0 0-2.877 5.731-7.047 6.303l-.505-2.971z" transform="translate(-360 -6037) translate(360 6037)"/>
                    <path fill="#FFC2B0" d="M435.654 391.278s2.025 33.264 13.215 30.097c0 0 4.211.542-1.24-12.268-5.45-12.81-4.613-19.077-4.613-19.077l-7.362 1.248z" transform="translate(-360 -6037) translate(360 6037)"/>
                    <path fill="#05CE7C" d="M463.866 378.223l-14.689 4.994 1.77 5.186 14.688-4.995c.903-.306 1.238-1.717.75-3.149-.488-1.431-1.616-2.343-2.52-2.036" transform="translate(-360 -6037) translate(360 6037)"/>
                    <path fill="#05CE7C" d="M460.82 378l-20.902 7.106 2.516 7.378 20.904-7.106c1.283-.436 1.762-2.442 1.067-4.479-.695-2.037-2.3-3.335-3.584-2.899" transform="translate(-360 -6037) translate(360 6037)"/>
                    <path fill="#027043" d="M447.85 380.703l-.024.011-25.657 7.946.004.01c-.035.01-.07.014-.104.025-1.81.615-2.359 3.807-1.226 7.128 1.133 3.322 3.518 5.516 5.328 4.9.034-.011.065-.03.097-.043l.004.01 25.184-9.418c1.809-.616 2.47-3.48 1.474-6.398-.995-2.919-3.27-4.786-5.08-4.171" transform="translate(-360 -6037) translate(360 6037)"/>
                    <path fill="#05CE7C" d="M431.345 384.845l-.031.014-12.403 3.029 5.63 15.035 11.285-4.942c2.248-.765 3.07-4.325 1.832-7.952-1.237-3.628-4.064-5.948-6.313-5.184" transform="translate(-360 -6037) translate(360 6037)"/>
                    <path fill="#027043" d="M426.631 393.774c1.438 4.216.193 8.455-2.781 9.466-2.974 1.01-6.551-1.588-7.99-5.805-1.438-4.217-.193-8.455 2.781-9.467 2.974-1.01 6.551 1.589 7.99 5.806" transform="translate(-360 -6037) translate(360 6037)"/>
                    <path fill="#022E1C" d="M425.358 394.206c1.098 3.22.147 6.456-2.124 7.229-2.27.772-5.003-1.213-6.1-4.433-1.099-3.22-.148-6.456 2.123-7.229 2.272-.772 5.002 1.213 6.1 4.433" transform="translate(-360 -6037) translate(360 6037)"/>
                    <path fill="#FFC2B0" d="M434.336 380.935l2.183-.112c1.96-.102 3.645 1.417 3.747 3.373l.087 1.69c.1 1.955-1.42 3.638-3.38 3.74l-2.183.111c-1.96.1-3.646-1.417-3.747-3.374l-.087-1.688c-.1-1.956 1.42-3.64 3.38-3.74" transform="translate(-360 -6037) translate(360 6037)"/>
                    <path fill="#027043" d="M420.854 392.5c-.381-1.332-2.159-1.665-2.982-.55-.77 1.043-1.042 2.843.718 5.917 3.273 5.715 3.716-.296 2.264-5.367" transform="translate(-360 -6037) translate(360 6037)"/>
                    <path fill="#FFF" d="M421.402 392.148c.35.577.25 1.279-.227 1.566-.476.288-1.145.054-1.496-.524-.35-.578-.25-1.278.227-1.567.475-.288 1.146-.053 1.496.525M509.965 471.086s7.03-1.437 9.174-13.011c0 0 .456 11.329 7.948 12.387 0 0-8.716 1.871-9.76 12.215 0 0 .434-10.926-7.362-11.591" transform="translate(-360 -6037) translate(360 6037)"/>
                    <path fill="#05CE7C" d="M186.164 239.67c8.826 6.974 9.091 21.317 9.091 21.317s-14.044 3.035-22.87-3.939c-8.827-6.974-9.092-21.318-9.092-21.318s14.044-3.035 22.87 3.94" transform="translate(-360 -6037) translate(360 6037)"/>
                    <path fill="#05CE7C" d="M211.132 244.63c-3.087 10.808-16.265 16.528-16.265 16.528s-8.172-11.8-5.084-22.607c3.087-10.806 16.265-16.527 16.265-16.527s8.171 11.8 5.084 22.607M177.684 196.25c6.637 9.075 3.053 22.968 3.053 22.968s-14.347-.824-20.984-9.9c-6.638-9.075-3.052-22.967-3.052-22.967s14.346.823 20.983 9.899" transform="translate(-360 -6037) translate(360 6037)"/>
                    <path fill="#05CE7C" d="M200.555 207.695c-5.869 9.59-20.099 11.585-20.099 11.585s-4.714-13.551 1.154-23.14c5.869-9.59 20.099-11.585 20.099-11.585s4.715 13.55-1.154 23.14M180.513 153.55c3.86 10.556-3.44 22.914-3.44 22.914s-13.556-4.759-17.416-15.314c-3.86-10.557 3.44-22.914 3.44-22.914s13.557 4.758 17.416 15.314M200.374 131.143c-4.099 10.466-17.76 14.915-17.76 14.915s-7.015-12.52-2.917-22.986c4.1-10.465 17.76-14.914 17.76-14.914s7.016 12.52 2.917 22.985" transform="translate(-360 -6037) translate(360 6037)"/>
                    <path fill="#05CE7C" d="M199.495 170.789c-8.3 7.591-22.528 5.574-22.528 5.574s-.77-14.325 7.53-21.916c8.3-7.592 22.526-5.575 22.526-5.575s.77 14.325-7.528 21.917M514.054 334.168c-9.58 5.901-11.516 20.116-11.516 20.116s13.595 4.647 23.175-1.253c9.578-5.902 11.515-20.117 11.515-20.117s-13.595-4.647-23.174 1.254" transform="translate(-360 -6037) translate(360 6037)"/>
                    <path fill="#05CE7C" d="M488.29 335.976c1.806 11.092 14.226 18.305 14.226 18.305s9.494-10.77 7.688-21.86c-1.807-11.093-14.227-18.307-14.227-18.307s-9.493 10.77-7.687 21.862M527.54 292.03c-7.651 8.242-5.71 22.456-5.71 22.456s14.344.85 21.994-7.393c7.651-8.242 5.71-22.456 5.71-22.456s-14.344-.85-21.995 7.392" transform="translate(-360 -6037) translate(360 6037)"/>
                    <path fill="#05CE7C" d="M503.677 300.451c4.71 10.206 18.61 13.842 18.61 13.842s6.264-12.91 1.553-23.117c-4.71-10.206-18.61-13.843-18.61-13.843s-6.264 12.911-1.553 23.118M529.71 249.291c-5.064 10.036.744 23.158.744 23.158s14.019-3.15 19.083-13.186c5.065-10.036-.744-23.158-.744-23.158s-14.019 3.15-19.083 13.186M514.114 224.67c2.85 10.872 15.9 16.878 15.9 16.878s8.428-11.619 5.578-22.49c-2.85-10.87-15.9-16.877-15.9-16.877s-8.428 11.619-5.578 22.49" transform="translate(-360 -6037) translate(360 6037)"/>
                    <path fill="#05CE7C" d="M508.78 264.251c7.359 8.504 21.724 8.155 21.724 8.155s2.436-14.138-4.922-22.642c-7.357-8.504-21.723-8.155-21.723-8.155s-2.436 14.138 4.921 22.642" transform="translate(-360 -6037) translate(360 6037)"/>
                    <g transform="translate(-360 -6037) translate(360 6037) translate(0 301.143)">
                        <mask id="ifq5100mqt" fill="#fff">
                            <use xlink:href="#7e6jvdpafs"/>
                        </mask>
                        <path fill="#FFC2B0" d="M5.288 3.477C2.333 11.11 1.482 19.61.822 27.709.212 35.2-.005 42.727.03 50.242c.007 1.393-.102 2.858.057 4.244.24 2.102 1.365 3.363 2.475 5.092 5.56 8.651 10.072 17.992 13.432 27.703 1.826 5.278 10.312 3.132 8.47-2.191-3.401-9.83-7.79-19.337-13.262-28.196-.683-1.105-1.331-2.312-2.142-3.331-.187-.237-.346-.684-.591-.865-.965-.715 2.53-1.502.37 1.924.424-.675-.052-3.255-.057-3.986-.081-14.573-.405-31.002 4.927-44.783C15.74.6 7.3-1.727 5.288 3.477" mask="url(#ifq5100mqt)"/>
                    </g>
                    <path fill="#0B242E" d="M.19 355.01c.513 8.721 6.248 27.096 10.521 37.269.839 2.975 4.81-2.353 6.818-3.48l7.607-2.763c1.657-.93 4.527-7.105 3.582-9.476l-13.643-18.858c-1.694-4.247-3.294-11.121-7.414-11.148 0 0-9.077-1.33-7.47 8.457" transform="translate(-360 -6037) translate(360 6037)"/>
                    <path fill="#FFC2B0" d="M8.749 299.089l-2.898 3.744c-1.844 2.385-1.4 5.844.99 7.687 2.389 1.842 5.854 1.398 7.699-.987l2.897-3.744c1.846-2.386 1.4-5.846-.99-7.687-2.388-1.843-5.853-1.399-7.698.987" transform="translate(-360 -6037) translate(360 6037)"/>
                    <path fill="#A8C4E5" d="M9.749 572.855c13.82 7.347 37.328 7.58 52.509.523 15.18-7.058 16.284-18.735 2.464-26.08-13.82-7.347-37.328-7.581-52.509-.524-15.18 7.058-16.284 18.735-2.464 26.081" opacity=".33" transform="translate(-360 -6037) translate(360 6037)"/>
                    <path fill="#0B242E" d="M11.764 547.044l7.567-.95c5.063-2.293 7.43-4.015 9.685-2.715l.64.368c2.256 1.3 1.97 3.593-.633 5.096l-11.124 8.831c-2.604 1.502-6.113 1.028-8.192-.793 0 0-1.245-1.122-.356-5.845.507-2.693.33-2.79 2.413-3.992M48.102 558.555l8.136 1.039c5.89-1.03 8.817-2.188 10.817-.23l.567.554c1.999 1.958 1.086 4.268-2.029 5.134l-13.958 6.211c-3.116.866-6.643-.567-8.319-3.021 0 0-.995-1.5 1.2-6.179 1.252-2.667 1.094-2.815 3.586-3.508" transform="translate(-360 -6037) translate(360 6037)"/>
                    <path fill="#8A6B27" d="M51.64 561.027c.201 3.41-8.106 3.9-8.307.49l-.656-11.08 8.307-.49.656 11.08z" transform="translate(-360 -6037) translate(360 6037)"/>
                    <path fill="#E8B034" d="M52.273 553.964c-.792 4.381-9.449 4.574-11.295 1.882-1.656-37.31-8.494-75.751-20.24-114.622l31.401-1.767c2.41 38.223 1.78 76.4.134 114.507" transform="translate(-360 -6037) translate(360 6037)"/>
                    <path fill="#8A6B27" d="M17.684 548.43c-.19 3.093-8.512 3.093-8.322 0l.617-10.052h8.32l-.615 10.052z" transform="translate(-360 -6037) translate(360 6037)"/>
                    <path fill="#E8B034" d="M19.31 543.928c-3.316 3.479-9.86 1.994-11.123-.52l1.693-105.83 23.408 6.978-13.978 99.372z" transform="translate(-360 -6037) translate(360 6037)"/>
                    <path fill="#FFC2B0" d="M42.618 361.463c-1.081 7.62-6.25 10.442-11.543 6.304-5.293-4.138-8.708-13.669-7.627-21.288 1.08-7.62 6.249-10.442 11.542-6.304 5.294 4.138 8.708 13.669 7.628 21.288" transform="translate(-360 -6037) translate(360 6037)"/>
                    <path fill="#FFC2B0" d="M50.026 358.06c-1.08 7.619-8.577 11.366-13.87 7.228-5.294-4.138-8.71-13.67-7.628-21.289 1.081-7.62 6.249-10.442 11.542-6.304 5.294 4.139 11.037 12.745 9.956 20.365" transform="translate(-360 -6037) translate(360 6037)"/>
                    <path fill="#FFC2B0" d="M31.5 380.685l-.77-.17c-2.603-.58-4.257-3.18-3.676-5.778l3.272-14.646c.58-2.598 3.185-4.25 5.787-3.67l.77.172c2.602.579 4.256 3.178 3.676 5.776l-1.072 14.536c-.58 2.598-5.385 4.36-7.987 3.78" transform="translate(-360 -6037) translate(360 6037)"/>
                    <path fill="#875963" d="M23.454 362.886s1.76 6.792 11.39 4.04c6.909-1.973 3.255-13.132 10.14-15.26 7.573-2.343 7.64-12.096 4.074-15.338-3.566-3.243-12.37-3.97-18.171-.388-5.801 3.583-15.355 4.75-7.433 26.946" transform="translate(-360 -6037) translate(360 6037)"/>
                    <path fill="#FFC2B0" d="M45.568 355.635c-.263 1.853-1.98 3.142-3.836 2.88-1.855-.262-3.147-1.977-2.884-3.83.262-1.853 1.98-3.142 3.836-2.879 1.856.263 3.147 1.977 2.884 3.83" transform="translate(-360 -6037) translate(360 6037)"/>
                    <path fill="#0B242E" d="M11.222 446.515c-.924-.718-2.52-2.83-2.636-5.469-1.11-25.271-.952-40.135-.399-55.265-.427-22.08 1.82-20.399 16.275-16.438l4.076 1.023c1.942.488 3.823 1.194 5.6 2.101 18.992 9.708 24.05 12.711 22.95 24.48-.34 19.339-3.6 41.092-4.205 50.616-3.984 12.63-33.478 5.323-41.661-1.048" transform="translate(-360 -6037) translate(360 6037)"/>
                    <path fill="#F09A82" d="M39.62 367.49l-.758-1.747s1.35 1.347 3.918 1.019c0 0-1.516.866-3.16.729" transform="translate(-360 -6037) translate(360 6037)"/>
                    <path fill="#FFC2B0" d="M78.761 391.189l1.584 4.465c1.009 2.841 4.162 4.342 7.009 3.335 2.844-1.008 4.346-4.155 3.339-6.995l-1.585-4.465c-1.009-2.841-4.162-4.342-7.009-3.334-2.843 1.007-4.346 4.154-3.338 6.994" transform="translate(-360 -6037) translate(360 6037)"/>
                    <path fill="#FFC2B0" d="M44.053 390.599c3.927 7.265 8.156 13.948 14.27 19.563 3.038 2.791 6.257 5.385 9.427 8.023 2.486 2.068 5.096 4.077 8.224 5.07 17.403 5.526 15.577-22.334 14.558-31.555-.619-5.6-9.272-4.284-8.656 1.292.682 6.174 1.767 13.77-.504 19.774-.315.836-.655 1.372-1.126 2.111.01-.015-.489.246-.176.194-.878.147-2.106-.3-3.365-1.042-4.977-2.931-9.823-7.562-13.938-11.612-4.522-4.45-7.72-9.817-10.715-15.359-2.657-4.915-10.678-1.415-8 3.54" transform="translate(-360 -6037) translate(360 6037)"/>
                    <path fill="#0B242E" d="M40.28 389.464c10.386 19.963 22.015 30.764 33.716 34.074 5.815.844 7.445-8.428 3.876-12.307-12.163-4.648-17.775-20.894-24.73-26.541-2.01-2.558-5.697-4.995-16.525-1.443l.34-1.69c-3.054 2.16 1.357 5.014 3.324 7.907" transform="translate(-360 -6037) translate(360 6037)"/>
                    <path fill="#A8C4E5" d="M345.495 557.534c-8.968-5.17-9.013-13.525-.101-18.661 8.913-5.138 23.409-5.112 32.378.058 8.968 5.17 9.014 13.525.101 18.661-8.913 5.137-23.408 5.111-32.378-.058m50.26 1.803c-3.193-1.84-.957-4.972 3.545-4.964 5.093.01 9.21-2.363 9.195-5.3l-.008-1.512c-.016-2.937-4.159-5.325-9.253-5.334-4.501-.007-6.772-3.148-3.6-4.977 3.591-2.07 3.573-5.436-.04-7.52l-1.86-1.071c-3.614-2.083-9.456-2.093-13.047-.024-3.173 1.829-8.621.52-8.635-2.074-.016-2.937-4.16-5.324-9.254-5.334l-2.622-.005c-5.096-.009-9.213 2.365-9.196 5.301.013 2.594-5.42 3.883-8.613 2.043-3.614-2.083-9.455-2.093-13.046-.023l-1.849 1.065c-3.59 2.07-3.572 5.436.042 7.52 3.192 1.839.955 4.972-3.546 4.963-5.094-.008-9.212 2.364-9.196 5.3l.008 1.512c.016 2.937 4.16 5.325 9.255 5.334 4.5.008 6.771 3.149 3.599 4.977-3.592 2.07-3.574 5.437.04 7.52l1.86 1.072c3.615 2.082 9.455 2.093 13.046.024 3.172-1.83 8.62-.52 8.635 2.074.015 2.937 4.159 5.324 9.253 5.334l2.623.004c5.095.01 9.212-2.364 9.196-5.3-.014-2.594 5.42-3.884 8.613-2.044 3.614 2.083 9.456 2.094 13.046.024l1.849-1.066c3.591-2.07 3.573-5.436-.04-7.52" transform="translate(-360 -6037) translate(360 6037)"/>
                    <path fill="#027043" d="M353.16 549.504c-8.97 0-16.24-4.19-16.24-9.36 0-5.168 7.27-9.36 16.24-9.36 8.968 0 16.239 4.192 16.239 9.36 0 5.17-7.27 9.36-16.24 9.36m46.218-3.11l.01-12.512-7.266-1.15-3.126-1.495c-.361-.974-1.195-1.903-2.51-2.66l-1.86-1.073c-.395-.227-.821-.426-1.265-.605l5.547-.255.291-8.4L365 515.398l-2.329-5.607-20.742.632 2.907 5.426c-5.406.401-12.344.926-12.344.926l-1.133 1.45c-2.226-.146-15.585-1.125-15.585-1.125v10.908l4.885-.85c-.15.075-.302.149-.446.231l-1.848 1.065c-1.36.785-2.2 1.756-2.526 2.772l-10.174.667v13.607l.09.021c-.055.236-.092.474-.09.718l.008 1.51c.016 2.937 4.159 5.326 9.254 5.335.303 0 .596.016.878.043l.044 8.573h.005c-.045 1.399.855 2.809 2.713 3.88l1.86 1.073c3.614 2.083 9.455 2.093 13.045.023 3.173-1.828 8.622-.52 8.636 2.075.016 2.936 4.158 5.324 9.253 5.333l2.622.004c5.095.01 9.213-2.363 9.197-5.3-.014-2.594 5.42-3.883 8.613-2.043 3.614 2.083 9.455 2.093 13.046.023l1.848-1.065c2.238-1.29 3.073-3.082 2.512-4.755v-7.675c.317-.035.647-.054.993-.053 4.932.009 8.935-2.216 9.173-5.023l.012-.002v-.146c.002-.044.011-.086.011-.13l-.008-1.512-.002-.012" transform="translate(-360 -6037) translate(360 6037)"/>
                    <path fill="#05CE7C" d="M336.387 542.034c-8.969-5.17-9.014-13.525-.101-18.662 8.913-5.137 23.408-5.11 32.377.058 8.969 5.17 9.015 13.525.102 18.661-8.913 5.138-23.409 5.111-32.378-.057m50.259 1.802c-3.193-1.84-.956-4.972 3.545-4.964 5.094.01 9.211-2.363 9.196-5.3l-.008-1.512c-.016-2.936-4.159-5.324-9.253-5.333-4.502-.008-6.773-3.148-3.6-4.977 3.591-2.07 3.573-5.437-.041-7.52l-1.86-1.072c-3.613-2.083-9.455-2.093-13.047-.023-3.172 1.828-8.62.519-8.635-2.074-.015-2.937-4.159-5.325-9.254-5.334l-2.622-.005c-5.095-.009-9.212 2.364-9.196 5.3.014 2.594-5.42 3.883-8.613 2.043-3.614-2.083-9.454-2.093-13.046-.023l-1.848 1.065c-3.59 2.07-3.573 5.436.041 7.52 3.193 1.84.956 4.972-3.545 4.964-5.095-.01-9.213 2.364-9.196 5.3l.008 1.511c.016 2.938 4.16 5.325 9.254 5.335 4.5.008 6.772 3.148 3.6 4.976-3.593 2.07-3.574 5.437.04 7.52l1.86 1.073c3.614 2.082 9.454 2.093 13.045.023 3.173-1.828 8.622-.52 8.636 2.074.015 2.937 4.158 5.325 9.253 5.334l2.622.004c5.096.01 9.213-2.363 9.196-5.3-.013-2.594 5.42-3.883 8.614-2.044 3.614 2.083 9.456 2.094 13.046.025l1.849-1.066c3.591-2.07 3.572-5.437-.041-7.52" transform="translate(-360 -6037) translate(360 6037)"/>
                    <path fill="#A8C4E5" d="M282.902 590.098c-6.535-3.766-6.568-9.854-.075-13.597 6.494-3.742 17.056-3.723 23.59.044 6.534 3.766 6.567 9.853.074 13.596-6.494 3.742-17.055 3.723-23.59-.043m36.618 1.314c-2.326-1.34-.697-3.623 2.582-3.617 3.712.006 6.712-1.722 6.7-3.861l-.006-1.102c-.01-2.14-3.03-3.879-6.742-3.886-3.278-.006-4.934-2.294-2.621-3.626 2.616-1.508 2.602-3.96-.03-5.479l-1.356-.78c-2.633-1.518-6.888-1.525-9.505-.018-2.311 1.333-6.281.379-6.292-1.511-.01-2.14-3.03-3.88-6.742-3.886l-1.91-.003c-3.712-.007-6.712 1.722-6.7 3.861.01 1.89-3.95 2.83-6.275 1.489-2.633-1.517-6.888-1.525-9.505-.017l-1.346.776c-2.617 1.509-2.604 3.96.029 5.478 2.326 1.341.696 3.623-2.583 3.617-3.712-.006-6.712 1.722-6.7 3.863l.005 1.1c.012 2.14 3.031 3.88 6.743 3.886 3.28.006 4.934 2.295 2.623 3.626-2.617 1.509-2.604 3.962.03 5.48l1.354.78c2.633 1.517 6.888 1.525 9.505.017 2.312-1.331 6.28-.379 6.291 1.512.013 2.139 3.03 3.879 6.743 3.885l1.91.004c3.712.007 6.712-1.722 6.7-3.862-.01-1.89 3.95-2.829 6.276-1.489 2.633 1.518 6.888 1.526 9.504.017l1.347-.775c2.617-1.509 2.604-3.961-.03-5.479" transform="translate(-360 -6037) translate(360 6037)"/>
                    <path fill="#027043" d="M290.028 583.321c-5.78 0-10.467-2.7-10.467-6.033 0-3.331 4.687-6.032 10.467-6.032s10.467 2.7 10.467 6.032-4.686 6.033-10.467 6.033m29.79-2.005l.005-8.064-4.683-.741-2.014-.964c-.234-.628-.771-1.226-1.618-1.714l-1.199-.691c-.255-.147-.53-.276-.816-.39l3.575-.165.188-5.414-15.596-1.836-1.502-3.613-13.369.408 1.873 3.496c-3.484.26-7.956.597-7.956.597l-.73.935c-1.435-.095-10.044-.725-10.044-.725v7.03l3.148-.549c-.096.05-.195.097-.287.15l-1.191.687c-.878.506-1.419 1.131-1.628 1.787l-6.558.43v8.77l.057.013c-.035.151-.058.305-.057.462l.005.974c.01 1.893 2.68 3.433 5.964 3.438.197 0 .385.01.566.028l.028 5.526h.004c-.03.901.55 1.811 1.749 2.501l1.198.69c2.33 1.343 6.094 1.35 8.409.016 2.044-1.179 5.556-.335 5.565 1.337.011 1.893 2.68 3.431 5.965 3.438l1.69.002c3.283.007 5.938-1.523 5.927-3.416-.01-1.672 3.494-2.503 5.551-1.317 2.33 1.343 6.095 1.35 8.408.016l1.192-.687c1.443-.831 1.98-1.986 1.618-3.065h.001v-4.947c.205-.021.418-.034.64-.034 3.179.005 5.76-1.428 5.912-3.237l.008-.002v-.093c.001-.029.008-.057.007-.084l-.005-.974v-.009" transform="translate(-360 -6037) translate(360 6037)"/>
                    <path fill="#05CE7C" d="M279.218 578.506c-5.78-3.332-5.81-8.717-.066-12.027 5.745-3.312 15.089-3.295 20.87.037 5.78 3.331 5.809 8.716.064 12.028-5.745 3.31-15.087 3.294-20.868-.038m32.393 1.162c-2.058-1.186-.616-3.205 2.285-3.199 3.284.005 5.937-1.524 5.927-3.417l-.005-.974c-.01-1.892-2.68-3.432-5.964-3.437-2.901-.006-4.365-2.03-2.32-3.209 2.314-1.333 2.303-3.503-.026-4.846l-1.199-.691c-2.33-1.343-6.094-1.35-8.41-.015-2.044 1.179-5.555.334-5.565-1.338-.01-1.892-2.68-3.431-5.964-3.437l-1.69-.004c-3.284-.005-5.937 1.525-5.928 3.417.01 1.672-3.492 2.503-5.55 1.317-2.33-1.342-6.095-1.35-8.409-.015l-1.191.686c-2.315 1.334-2.304 3.505.026 4.847 2.057 1.185.616 3.205-2.285 3.2-3.284-.006-5.938 1.523-5.927 3.416l.005.974c.01 1.893 2.68 3.432 5.964 3.438 2.901.005 4.365 2.03 2.321 3.208-2.315 1.334-2.304 3.504.026 4.847l1.198.69c2.33 1.343 6.094 1.35 8.409.016 2.044-1.18 5.557-.335 5.565 1.337.011 1.892 2.68 3.43 5.965 3.437l1.69.003c3.283.007 5.938-1.523 5.927-3.416-.009-1.673 3.494-2.503 5.551-1.317 2.33 1.342 6.094 1.35 8.41.016l1.19-.687c2.315-1.334 2.303-3.505-.026-4.847" transform="translate(-360 -6037) translate(360 6037)"/>
                    <path fill="#0B242E" d="M137.424 107.447c-.699.523-1.68-.057-1.544-.919.524-3.341 2.1-8.799 6.8-8.538 4.23.233 6.692-2.858 7.943-5.202.273-.513 1.048-.307 1.015.272-.222 4.025-1.263 10.987-5.795 11.246-3.8.216-6.696 1.852-8.419 3.141" transform="translate(-360 -6037) translate(360 6037)"/>
                    <path fill="#E8B034" d="M311.975 42.097c-.7.523-1.68-.057-1.545-.92.523-3.34 2.1-8.798 6.8-8.538 4.23.234 6.692-2.858 7.943-5.201.274-.513 1.048-.308 1.016.272-.223 4.025-1.264 10.987-5.796 11.246-3.8.216-6.696 1.851-8.418 3.14" transform="translate(-360 -6037) translate(360 6037)"/>
                    <path fill="#05CE7C" d="M553.074 121.464c-.699.523-1.68-.057-1.544-.92.523-3.34 2.1-8.798 6.8-8.538 4.23.233 6.693-2.858 7.943-5.202.274-.512 1.048-.307 1.016.273-.223 4.024-1.264 10.986-5.796 11.245-3.8.217-6.696 1.852-8.419 3.142" transform="translate(-360 -6037) translate(360 6037)"/>
                    <path fill="#E8B034" d="M82.544 98.246c-.7.523-1.681-.058-1.546-.92.524-3.34 2.1-8.798 6.8-8.538 4.23.233 6.693-2.858 7.944-5.201.273-.514 1.048-.308 1.016.271-.223 4.025-1.264 10.987-5.796 11.246-3.8.216-6.696 1.852-8.418 3.142" transform="translate(-360 -6037) translate(360 6037)"/>
                    <g transform="translate(-360 -6037) translate(360 6037) translate(582.574 189.107)">
                        <mask id="03snndchlv" fill="#fff">
                            <use xlink:href="#0fzb3mijxu"/>
                        </mask>
                        <path fill="#E8B034" d="M1.863 15.456c-.7.523-1.68-.057-1.545-.92.523-3.34 2.1-8.798 6.8-8.539 4.23.235 6.692-2.858 7.943-5.201.273-.512 1.048-.307 1.016.273-.223 4.024-1.264 10.986-5.796 11.245-3.8.217-6.695 1.852-8.418 3.142" mask="url(#03snndchlv)"/>
                    </g>
                    <path fill="#0B242E" d="M445.816 27.348c-.7.523-1.68-.057-1.545-.919.523-3.34 2.099-8.799 6.8-8.539 4.23.234 6.692-2.858 7.943-5.201.273-.513 1.048-.307 1.016.272-.223 4.025-1.264 10.987-5.796 11.245-3.8.217-6.696 1.853-8.418 3.142" transform="translate(-360 -6037) translate(360 6037)"/>
                    <path fill="#05CE7C" d="M91.45 146.427c-.658-.574-.292-1.652.58-1.7 3.383-.182 9.057.225 9.778 4.87.65 4.177 4.19 5.941 6.746 6.676.56.161.518.96-.056 1.05-3.989.617-11.027 1.046-12.222-3.327-1-3.666-3.204-6.155-4.825-7.569" transform="translate(-360 -6037) translate(360 6037)"/>
                    <path fill="#E8B034" d="M499.607 65.878c-.658-.575-.293-1.653.58-1.7 3.382-.182 9.057.225 9.778 4.869.649 4.178 4.19 5.942 6.746 6.677.559.16.518.96-.057 1.05-3.989.617-11.027 1.045-12.22-3.327-1.002-3.666-3.206-6.155-4.827-7.57" transform="translate(-360 -6037) translate(360 6037)"/>
                    <path fill="#0B242E" d="M235.896 7.623c-.657-.574-.293-1.652.58-1.699 3.383-.182 9.057.224 9.778 4.869.65 4.178 4.19 5.942 6.746 6.677.559.16.518.96-.057 1.049-3.988.618-11.026 1.046-12.22-3.326-1.002-3.666-3.205-6.155-4.827-7.57M294.175 79.541c-.658-.574-.293-1.652.58-1.699 3.383-.182 9.057.224 9.778 4.869.65 4.178 4.19 5.943 6.746 6.677.559.16.518.96-.056 1.049-3.99.618-11.027 1.046-12.221-3.326-1.002-3.666-3.205-6.155-4.827-7.57" transform="translate(-360 -6037) translate(360 6037)"/>
                    <g transform="translate(-360 -6037) translate(360 6037) translate(375.278)">
                        <mask id="h5re0pjuhx" fill="#fff">
                            <use xlink:href="#dqdjpxxjnw"/>
                        </mask>
                        <path fill="#05CE7C" d="M.676 1.804C.018 1.229.383.15 1.256.104c3.382-.182 9.057.225 9.778 4.869.648 4.178 4.19 5.942 6.746 6.677.559.16.518.96-.057 1.05-3.989.617-11.027 1.045-12.221-3.327-1-3.666-3.205-6.155-4.826-7.57" mask="url(#h5re0pjuhx)"/>
                    </g>
                    <path fill="#05CE7C" d="M96.297 34.552c-.728.485-1.675-.148-1.493-1.002.707-3.307 2.581-8.67 7.26-8.152 4.21.465 6.84-2.486 8.218-4.757.302-.497 1.064-.25 1 .328-.444 4.005-1.866 10.9-6.406 10.909-3.806.008-6.788 1.482-8.58 2.674M167.614 32.904c-.658-.575-.293-1.653.58-1.7 3.382-.182 9.057.224 9.778 4.869.649 4.178 4.19 5.942 6.746 6.677.558.16.518.96-.056 1.05-3.99.617-11.028 1.045-12.221-3.327-1.002-3.666-3.206-6.155-4.827-7.57" transform="translate(-360 -6037) translate(360 6037)"/>
                    <path fill="#0B242E" d="M574.298 32.904c-.659-.575-.293-1.653.58-1.7 3.382-.182 9.055.224 9.777 4.869.649 4.178 4.19 5.942 6.746 6.677.559.16.518.96-.056 1.05-3.99.617-11.027 1.045-12.222-3.327-1-3.666-3.204-6.155-4.825-7.57" transform="translate(-360 -6037) translate(360 6037)"/>
                    <path fill="#A8C4E5" d="M199.407 527.412c-15.373-12.225-44.23-15.884-64.456-8.171-20.225 7.712-24.158 23.875-8.785 36.1 15.373 12.225 44.23 15.884 64.456 8.171 20.225-7.712 24.158-23.874 8.785-36.1" opacity=".33" transform="translate(-360 -6037) translate(360 6037)"/>
                    <path fill="#A8C4E5" d="M267.477 513.342c-15.372-12.225-44.23-15.884-64.455-8.171-20.225 7.712-24.159 23.875-8.785 36.1 15.373 12.226 44.23 15.884 64.455 8.172 20.226-7.713 24.159-23.875 8.785-36.1" opacity=".33" transform="translate(-360 -6037) translate(360 6037)"/>
                </g>
                <g transform="translate(-360 -6037) translate(360 6037) translate(165 496)">
                    <mask id="b4bnxq7e5z" fill="#fff">
                        <use xlink:href="#wrvxgp4nxy"/>
                    </mask>
                    <path d="M19.35 4.343C12.889 6.92 8.117 10.37 5.099 14.28c-1.79 1.963-3.793 2.123-4.626 4.304 0 0-.362 9.878-.315 10.484C-.67 35.462 2.452 42.25 9.82 48.123 25.624 60.73 54.967 64.363 75.356 56.24c9.293-3.703 15.109-9.21 17.206-15.3.983-1.884 2.327-9.45 2.107-11.285.055-5.837-3.125-11.888-9.782-17.197C74.787 4.402 59.156.011 43.867.011c-8.633 0-17.158 1.4-24.516 4.332" mask="url(#b4bnxq7e5z)"/>
                </g>
                <g>
                    <path fill="#FFF" d="M85.628 14.516C69.754 1.91 39.956-1.862 19.072 6.09-1.811 14.042-5.872 30.707 10 43.31c15.874 12.606 45.672 16.378 66.555 8.426 20.884-7.952 24.945-24.615 9.072-37.22" transform="translate(-360 -6037) translate(360 6037) translate(165 489)"/>
                    <path fill="#FFE46E" d="M85.735 13.056C69.861.452 40.063-3.32 19.18 4.631c-20.884 7.952-24.946 24.616-9.072 37.221C25.983 54.457 55.78 58.23 76.664 50.278s24.945-24.617 9.071-37.222" transform="translate(-360 -6037) translate(360 6037) translate(165 489)"/>
                </g>
                <g transform="translate(-360 -6037) translate(360 6037) translate(178 497)">
                    <mask id="5elal544kB" fill="#fff">
                        <use xlink:href="#u3cfnaz7gA"/>
                    </mask>
                    <path d="M13.713 3.052C-.982 8.716-3.84 20.586 7.33 29.562c11.17 8.98 32.139 11.666 46.833 6.002 14.696-5.663 17.554-17.533 6.384-26.51-7.209-5.795-18.5-8.968-29.55-8.969-6.072 0-12.072.959-17.284 2.967" mask="url(#5elal544kB)"/>
                </g>
                <g>
                    <path stroke="#DEA749" stroke-width="1.403" d="M75.29 11.548C61.322.446 35.104-2.876 16.73 4.128-1.644 11.13-5.218 25.807 8.75 36.91c13.966 11.101 40.184 14.424 58.559 7.42 18.374-7.003 21.947-21.68 7.981-32.782z" transform="translate(-360 -6037) translate(360 6037) translate(170 492)"/>
                    <path fill="#C99334" d="M21.482 9.643c14.739-5.618 35.77-2.953 46.975 5.953 4.466 3.55 6.693 7.556 6.827 11.446.84-4.585-1.297-9.503-6.657-13.763-11.204-8.905-32.235-11.57-46.975-5.952-8.864 3.378-13.432 8.983-13.23 14.852.916-5 5.372-9.605 13.06-12.536" transform="translate(-360 -6037) translate(360 6037) translate(170 492)"/>
                </g>
                <g transform="translate(-360 -6037) translate(360 6037) translate(191 504)">
                    <mask id="51gkffc4lD" fill="#fff">
                        <use xlink:href="#xoyqg3gipC"/>
                    </mask>
                    <path d="M21.217 1.184l-3.9.352-.38 4.502c-.032.201-.048.404-.052.609v.01c-.032 2.184 1.394 4.613 1.871 6.514l-3.285.412-5.308-1.797 1.333 2.002-1.454-.102c-1.01-1.215-1.502-2.613-1.688-4.321L5.47 9.324 1.602 5.166l-.296 4.098c-.078 1.326.419 2.783 1.238 4.157l-2.136.528-.295 4.097 3.794 3 4.773-1.974c5.038 2.767 10.508 3.002 14.914 1.18 2.388-.989 3.33-2.302 3.527-3.728h.001l.001-.018c.024-.174.037-.35.039-.529l.257-3.554-1.108.047c-1.024-2.531-2.362-4.799-.286-5.657 2.066-.855 3.954-.411 5.832 1.073 1.643 1.299 2.075 2.58 1.97 4.319l6.75.694c.093-.53.137-1.062.114-1.6l.18-2.498-.87-2.683 3.144-1.3.297-4.097-7.857 1.535L26.568.158l-5.351 1.026zm-8.29 14.754l-1.431-2.15 7.41.522c-.02.771-.363 1.39-1.287 1.772-.742.306-1.474.463-2.206.463-.823 0-1.647-.198-2.486-.607z" mask="url(#51gkffc4lD)"/>
                </g>
                <g>
                    <path fill="#FFF" d="M4.941 15.567c-1.986-1.932-3.53-4.557-3.396-6.798l7.048.1c.25 2.268 1.053 3.986 2.931 5.451 2.19 1.712 4.223 2.043 6.335 1.18 4.727-1.93-5.692-9.953 2.57-13.326C24.926.337 30.316.834 34.864 3.348l4.727-1.93 3.794 2.961-4.635 1.893c2.09 2.123 2.421 4.127 2.065 6.086l-6.75-.685c.107-1.718-.325-2.983-1.969-4.265-1.877-1.465-3.765-1.903-5.831-1.06-4.36 1.781 6.334 9.69-2.433 13.27-4.405 1.8-9.874 1.569-14.913-1.165l-4.773 1.95L.352 17.44l4.59-1.874z" transform="translate(-360 -6037) translate(360 6037) translate(191 502)"/>
                    <path fill="#FFE46E" d="M4.998 14.797C3.01 12.864 1.467 10.24 1.602 7.998l7.047.1c.25 2.268 1.053 3.987 2.931 5.452 2.19 1.71 4.224 2.042 6.335 1.18 4.727-1.93-5.691-9.953 2.57-13.326C24.982-.434 30.372.064 34.92 2.577l4.727-1.93 3.794 2.962L38.806 5.5c2.09 2.123 2.422 4.127 2.066 6.086l-6.75-.685c.106-1.718-.326-2.982-1.97-4.265-1.877-1.465-3.765-1.902-5.831-1.06-4.359 1.781 6.335 9.69-2.432 13.271-4.405 1.799-9.875 1.568-14.913-1.166l-4.774 1.95L.409 16.67l4.589-1.874z" transform="translate(-360 -6037) translate(360 6037) translate(191 502)"/>
                </g>
                <g transform="translate(-360 -6037) translate(360 6037) translate(103 489)">
                    <mask id="se1499klsF" fill="#fff">
                        <use xlink:href="#ahfo7of6oE"/>
                    </mask>
                    <path d="M7.338 31.68c-3.709 5.82-5.54 11.358-5.689 16.244C1.355 50.538-.169 51.83.436 54.06c0 0 5.481 8.124 5.873 8.582 3.072 5.604 9.557 9.227 18.935 9.652 20.118.912 45.907-13.232 57.604-31.59 5.331-8.367 6.803-16.16 4.934-22.256-.31-2.082-3.647-8.925-4.897-10.267C79.518 3.475 73.415.475 64.942.091c-.616-.029-1.236-.043-1.863-.043C43.26.05 18.676 13.885 7.338 31.68" mask="url(#se1499klsF)"/>
                </g>
                <g>
                    <path fill="#FFF" d="M66.896 1.56C46.33.638 19.609 15.132 7.21 33.932c-12.4 18.802-5.78 34.79 14.785 35.712 20.565.923 47.287-13.57 59.686-32.372C94.08 18.472 87.46 2.483 66.896 1.56" transform="translate(-360 -6037) translate(360 6037) translate(99 480)"/>
                    <path fill="#FFE46E" d="M66.113.307C45.548-.615 18.826 13.878 6.427 32.679-5.973 51.48.647 67.469 21.21 68.39c20.565.922 47.288-13.571 59.686-32.372 12.4-18.8 5.78-34.79-14.784-35.712" transform="translate(-360 -6037) translate(360 6037) translate(99 480)"/>
                </g>
                <g transform="translate(-360 -6037) translate(360 6037) translate(111 490)">
                    <mask id="v6t4hwnneH" fill="#fff">
                        <use xlink:href="#9gjmyyvv0G"/>
                    </mask>
                    <path d="M4.879 23.036C-3.645 36.024.906 47.07 15.042 47.708c14.138.636 32.508-9.376 41.032-22.365C64.597 12.354 60.047 1.31 45.91.671c-.427-.019-.86-.029-1.294-.029-13.946 0-31.471 9.797-39.737 22.394" mask="url(#v6t4hwnneH)"/>
                </g>
                <g>
                    <path stroke="#DEA749" stroke-width="1.403" d="M57.228.384c-17.814-.79-40.962 11.63-51.702 27.741C-5.215 44.237.519 57.938 18.333 58.73c17.814.79 40.961-11.63 51.702-27.742C80.775 14.877 75.042 1.175 57.228.384z" transform="translate(-360 -6037) translate(360 6037) translate(104 485)"/>
                    <path fill="#C99334" d="M12.608 29.775C21.225 16.85 39.793 6.888 54.083 7.52c5.697.253 9.85 2.153 12.244 5.164-2.015-4.122-6.63-6.797-13.467-7.1C38.57 4.95 20 14.914 11.385 27.838 6.203 35.61 5.803 42.682 9.414 47.224c-2.197-4.494-1.3-10.708 3.194-17.45" transform="translate(-360 -6037) translate(360 6037) translate(104 485)"/>
                </g>
                <g transform="translate(-360 -6037) translate(360 6037) translate(121 494)">
                    <mask id="kw7o0wqdrJ" fill="#fff">
                        <use xlink:href="#708fmuzejI"/>
                    </mask>
                    <path d="M26.436 6.231l-8.56 3.588-3.762 3.92-2.971 2.545 2.305 3.77c.091.177.196.347.312.511l.005.008h.001c1.242 1.74 3.815 2.826 5.306 4.047l-2.436 2.236-5.365 1.668 2.249.804-1.243.766c-1.53-.372-2.743-1.188-3.886-2.428l-2.372 1.645-5.563-1.029 2.14 3.403c.705 1.09 1.955 1.951 3.421 2.557L4.584 35.9l2.14 3.403 4.83.16 2.74-4.332c5.71-.747 10.3-3.741 12.83-7.739 1.37-2.168 1.375-3.75.707-4.99l.001-.001-.01-.014c-.082-.152-.174-.298-.276-.44l-1.854-2.951-.874.68c-2.305-1.4-4.711-2.411-3.52-4.295 1.186-1.874 2.982-2.622 5.372-2.544 2.092.07 3.188.828 4.113 2.262l5.898-3.377c-.23-.472-.504-.918-.835-1.328l-1.304-2.075-2.266-1.61 1.805-2.853-2.14-3.402-5.505 5.777zm-6.58 19.2c.432.62.51 1.308-.019 2.145-.905 1.43-2.165 2.303-3.905 2.615l-2.412-.863 6.336-3.897z" mask="url(#kw7o0wqdrJ)"/>
                </g>
                <g>
                    <path fill="#FFF" d="M17.562 33.131c-2.72-.397-5.485-1.623-6.678-3.534l5.724-4.11c1.519 1.705 3.163 2.631 5.524 2.712 2.756.094 4.582-.844 5.78-2.804 2.68-4.389-10.358-4.747-5.675-12.416 2.55-4.176 7.173-6.975 12.291-7.626l2.68-4.39 4.771.164-2.628 4.303c2.915.492 4.345 1.932 5.197 3.745l-5.827 3.453c-.911-1.465-1.995-2.242-4.06-2.313-2.362-.08-4.134.686-5.306 2.603-2.471 4.047 10.723 4.15 5.753 12.287-2.498 4.091-7.031 7.155-12.67 7.919l-2.706 4.43-4.771-.162 2.601-4.26z" transform="translate(-360 -6037) translate(360 6037) translate(111 493)"/>
                    <path fill="#FFE46E" d="M17.16 32.468c-2.72-.398-5.485-1.623-6.678-3.534l5.724-4.11c1.519 1.705 3.162 2.63 5.524 2.71 2.755.095 4.582-.842 5.78-2.802 2.68-4.39-10.359-4.747-5.676-12.416 2.551-4.176 7.174-6.975 12.292-7.627L36.806.3l4.77.163-2.627 4.303c2.914.491 4.344 1.932 5.196 3.745l-5.826 3.453c-.912-1.466-1.995-2.242-4.06-2.313-2.362-.08-4.135.685-5.306 2.603-2.471 4.047 10.723 4.15 5.753 12.287-2.498 4.09-7.031 7.155-12.67 7.918l-2.707 4.432-4.77-.163 2.601-4.26z" transform="translate(-360 -6037) translate(360 6037) translate(111 493)"/>
                    <path fill="#FFF" d="M121.285 22.008s7.134-.942 10.126-12.602c0 0-.376 11.605 7.035 13.246 0 0-8.85 1.259-10.655 11.745 0 0 1.24-11.127-6.506-12.39M.115 20.999s7.076-1.32 9.47-13.123c0 0 .217 11.61 7.702 12.855 0 0-8.774 1.727-10.042 12.295 0 0 .67-11.178-7.13-12.027" transform="translate(-360 -6037) translate(360 6037) translate(111 493)"/>
                </g>
            </g>
        </g>
    </g>
</svg>
