<svg xmlns="http://www.w3.org/2000/svg" width="23" height="23" viewBox="0 0 23 23">
    <g fill="none" fill-rule="evenodd">
        <g fill="#05CE7C">
            <g>
                <path d="M21 5.127L17.855 2 12 7.872 15.145 11zM9.05 13.142c-.213.51.3 1.021.809.808L13 12.326 10.673 10l-1.624 3.142zM22.831 2.61c.225-.225.225-.589 0-.814L21.204.17c-.225-.225-.59-.225-.814 0L19 1.559 21.442 4l1.39-1.39z" transform="translate(-815 -140) translate(815 140)"/>
                <path d="M2.066 18.81h.69v3.5c0 .279.167.53.424.637.254.107.552.05.75-.15l3.978-3.986h8.026c1.139 0 2.066-.93 2.066-2.072V9.883l-2.173 2.178c-.19.19-.41.34-.659.444l-3.943 2.05c-.359.156-.628.21-.903.21-.205 0-.402-.04-.593-.097H4.82c-.38 0-.688-.31-.688-.691 0-.382.308-.69.688-.69H8.31c-.136-.453-.077-.942.11-1.392l2.126-4.138c.06-.153.21-.376.398-.565L13.13 5H2.066C.927 5 0 5.93 0 7.072v9.667c0 1.142.927 2.072 2.066 2.072z" transform="translate(-815 -140) translate(815 140)"/>
            </g>
        </g>
    </g>
</svg>
